%TF.GenerationSoftware,KiCad,Pcbnew,9.0.5*%
%TF.CreationDate,2026-02-21T14:17:59+05:30*%
%TF.ProjectId,gignal generatoe(sine _ sqaure _ triangle),6769676e-616c-4206-9765-6e657261746f,rev?*%
%TF.SameCoordinates,Original*%
%TF.FileFunction,Soldermask,Bot*%
%TF.FilePolarity,Negative*%
%FSLAX46Y46*%
G04 Gerber Fmt 4.6, Leading zero omitted, Abs format (unit mm)*
G04 Created by KiCad (PCBNEW 9.0.5) date 2026-02-21 14:17:59*
%MOMM*%
%LPD*%
G01*
G04 APERTURE LIST*
G04 Aperture macros list*
%AMRoundRect*
0 Rectangle with rounded corners*
0 $1 Rounding radius*
0 $2 $3 $4 $5 $6 $7 $8 $9 X,Y pos of 4 corners*
0 Add a 4 corners polygon primitive as box body*
4,1,4,$2,$3,$4,$5,$6,$7,$8,$9,$2,$3,0*
0 Add four circle primitives for the rounded corners*
1,1,$1+$1,$2,$3*
1,1,$1+$1,$4,$5*
1,1,$1+$1,$6,$7*
1,1,$1+$1,$8,$9*
0 Add four rect primitives between the rounded corners*
20,1,$1+$1,$2,$3,$4,$5,0*
20,1,$1+$1,$4,$5,$6,$7,0*
20,1,$1+$1,$6,$7,$8,$9,0*
20,1,$1+$1,$8,$9,$2,$3,0*%
G04 Aperture macros list end*
%ADD10C,1.600000*%
%ADD11RoundRect,0.250000X-0.550000X-0.550000X0.550000X-0.550000X0.550000X0.550000X-0.550000X0.550000X0*%
%ADD12C,3.000000*%
%ADD13R,3.000000X3.000000*%
%ADD14C,2.200000*%
%ADD15RoundRect,0.250001X1.149999X-1.149999X1.149999X1.149999X-1.149999X1.149999X-1.149999X-1.149999X0*%
%ADD16C,2.800000*%
%ADD17C,2.000000*%
G04 APERTURE END LIST*
D10*
%TO.C,U2*%
X171704000Y-51562000D03*
X171704000Y-54102000D03*
X171704000Y-56642000D03*
X171704000Y-59182000D03*
X164084000Y-59182000D03*
X164084000Y-56642000D03*
X164084000Y-54102000D03*
D11*
X164084000Y-51562000D03*
%TD*%
D12*
%TO.C,RV2*%
X186092000Y-47070000D03*
X186092000Y-52070000D03*
X186092000Y-57070000D03*
X191092000Y-47070000D03*
X191092000Y-52070000D03*
D13*
X191092000Y-57070000D03*
%TD*%
D14*
%TO.C,REF\u002A\u002A*%
X116332000Y-18288000D03*
%TD*%
%TO.C,REF\u002A\u002A*%
X116332000Y-66548000D03*
%TD*%
%TO.C,REF\u002A\u002A*%
X195072000Y-66802000D03*
%TD*%
%TO.C,REF\u002A\u002A*%
X194818000Y-18034000D03*
%TD*%
D10*
%TO.C,R2*%
X150368000Y-29972000D03*
X135128000Y-29972000D03*
%TD*%
%TO.C,R3*%
X150876000Y-35306000D03*
X135636000Y-35306000D03*
%TD*%
D11*
%TO.C,U1*%
X163322000Y-25400000D03*
D10*
X163322000Y-27940000D03*
X163322000Y-30480000D03*
X163322000Y-33020000D03*
X170942000Y-33020000D03*
X170942000Y-30480000D03*
X170942000Y-27940000D03*
X170942000Y-25400000D03*
%TD*%
%TO.C,R7*%
X150876000Y-53086000D03*
X135636000Y-53086000D03*
%TD*%
%TO.C,R6*%
X135636000Y-46990000D03*
X150876000Y-46990000D03*
%TD*%
%TO.C,R5*%
X150876000Y-58928000D03*
X135636000Y-58928000D03*
%TD*%
%TO.C,R4*%
X135382000Y-41402000D03*
X150622000Y-41402000D03*
%TD*%
%TO.C,R1*%
X135128000Y-24384000D03*
X150368000Y-24384000D03*
%TD*%
D15*
%TO.C,J2*%
X184404000Y-38622000D03*
D16*
X184404000Y-33622000D03*
X184404000Y-28622000D03*
X184404000Y-23622000D03*
%TD*%
D15*
%TO.C,J1*%
X121125500Y-46192000D03*
D16*
X121125500Y-41192000D03*
%TD*%
D17*
%TO.C,C3*%
X172974000Y-44664000D03*
X172974000Y-39664000D03*
%TD*%
%TO.C,C2*%
X161330000Y-44450000D03*
X166330000Y-44450000D03*
%TD*%
%TO.C,C1*%
X166330000Y-39624000D03*
X161330000Y-39624000D03*
%TD*%
M02*
