%TF.GenerationSoftware,KiCad,Pcbnew,9.0.5*%
%TF.CreationDate,2026-02-21T14:17:59+05:30*%
%TF.ProjectId,gignal generatoe(sine _ sqaure _ triangle),6769676e-616c-4206-9765-6e657261746f,rev?*%
%TF.SameCoordinates,Original*%
%TF.FileFunction,Legend,Top*%
%TF.FilePolarity,Positive*%
%FSLAX46Y46*%
G04 Gerber Fmt 4.6, Leading zero omitted, Abs format (unit mm)*
G04 Created by KiCad (PCBNEW 9.0.5) date 2026-02-21 14:17:59*
%MOMM*%
%LPD*%
G01*
G04 APERTURE LIST*
%ADD10C,0.200000*%
%ADD11C,0.100000*%
%ADD12C,0.150000*%
%ADD13C,0.120000*%
G04 APERTURE END LIST*
D10*
G36*
X132999662Y-16089556D02*
G01*
X132866685Y-16190904D01*
X132768120Y-16291789D01*
X132545859Y-16543725D01*
X132523144Y-16557281D01*
X132502139Y-16528094D01*
X132376842Y-16361764D01*
X132318008Y-16317660D01*
X132231030Y-16273226D01*
X132057181Y-16213111D01*
X131872083Y-16177869D01*
X131670736Y-16166004D01*
X131483568Y-16175412D01*
X131325166Y-16202238D01*
X131189578Y-16245871D01*
X131082096Y-16304458D01*
X131019432Y-16370382D01*
X130998092Y-16446394D01*
X131022051Y-16525702D01*
X131092778Y-16594214D01*
X131215854Y-16655058D01*
X131405592Y-16708918D01*
X131683193Y-16754018D01*
X132145056Y-16809828D01*
X132476396Y-16863183D01*
X132724968Y-16930222D01*
X132906884Y-17009241D01*
X133033565Y-17100605D01*
X133110716Y-17206728D01*
X133137659Y-17331775D01*
X133116077Y-17440438D01*
X133053039Y-17538077D01*
X132948250Y-17627138D01*
X132797673Y-17709252D01*
X132619460Y-17775576D01*
X132422638Y-17822938D01*
X132203578Y-17851980D01*
X131957478Y-17862026D01*
X131637681Y-17850918D01*
X131258943Y-17814643D01*
X130939473Y-17775442D01*
X130753599Y-17757638D01*
X130621469Y-17752605D01*
X130458190Y-17765612D01*
X130274400Y-17808293D01*
X130245824Y-17783624D01*
X130458230Y-17607378D01*
X130615940Y-17443669D01*
X130725272Y-17290986D01*
X130786822Y-17299535D01*
X130832153Y-17405418D01*
X130904839Y-17494892D01*
X131003523Y-17570555D01*
X131129006Y-17634270D01*
X131330924Y-17698251D01*
X131575993Y-17738321D01*
X131875412Y-17752605D01*
X132112445Y-17742275D01*
X132301350Y-17713735D01*
X132452069Y-17669074D01*
X132570723Y-17606939D01*
X132641103Y-17533298D01*
X132665538Y-17444371D01*
X132647253Y-17367016D01*
X132593441Y-17297585D01*
X132502353Y-17233959D01*
X132368050Y-17174971D01*
X132212978Y-17133419D01*
X131936282Y-17086121D01*
X131486089Y-17033799D01*
X131148035Y-16988373D01*
X130903949Y-16931302D01*
X130733088Y-16865027D01*
X130633757Y-16802626D01*
X130561036Y-16728711D01*
X130515156Y-16641007D01*
X130498859Y-16536520D01*
X130519237Y-16430984D01*
X130578025Y-16338712D01*
X130674469Y-16257010D01*
X130811490Y-16184078D01*
X130974422Y-16126330D01*
X131161088Y-16084272D01*
X131375863Y-16057995D01*
X131624330Y-16048767D01*
X131956006Y-16060957D01*
X132372202Y-16101890D01*
X132558601Y-16121821D01*
X132665293Y-16126925D01*
X132797558Y-16116201D01*
X132957163Y-16079908D01*
X132999662Y-16089556D01*
G37*
G36*
X133167945Y-16150250D02*
G01*
X133139124Y-16174552D01*
X132948127Y-16356879D01*
X132731972Y-16584392D01*
X132714386Y-16596726D01*
X132635740Y-16580240D01*
X132649906Y-16564120D01*
X132879739Y-16325739D01*
X133065607Y-16143045D01*
X133083193Y-16129001D01*
X133167945Y-16150250D01*
G37*
G36*
X132357792Y-16427954D02*
G01*
X132194536Y-16354165D01*
X132034676Y-16305025D01*
X131875711Y-16276850D01*
X131714212Y-16267609D01*
X131582214Y-16274533D01*
X131470662Y-16294303D01*
X131375203Y-16326593D01*
X131300506Y-16369561D01*
X131256318Y-16418806D01*
X131241113Y-16476436D01*
X131266045Y-16536839D01*
X131349393Y-16603602D01*
X131513688Y-16680501D01*
X131542020Y-16689294D01*
X131520527Y-16706391D01*
X131347140Y-16656387D01*
X131234908Y-16600762D01*
X131170680Y-16538907D01*
X131149034Y-16468132D01*
X131166821Y-16399436D01*
X131218178Y-16341532D01*
X131304372Y-16291789D01*
X131415114Y-16254819D01*
X131547974Y-16231889D01*
X131708838Y-16223767D01*
X131934862Y-16236838D01*
X132124051Y-16274203D01*
X132232772Y-16312790D01*
X132320275Y-16360776D01*
X132388322Y-16419284D01*
X132357792Y-16427954D01*
G37*
G36*
X132979878Y-16954908D02*
G01*
X133150706Y-17035683D01*
X133269768Y-17126790D01*
X133341976Y-17230330D01*
X133367003Y-17349727D01*
X133341367Y-17477053D01*
X133266244Y-17592231D01*
X133140888Y-17698073D01*
X132960094Y-17796447D01*
X132746595Y-17876183D01*
X132513488Y-17932823D01*
X132256781Y-17967368D01*
X131971155Y-17979263D01*
X131683304Y-17970829D01*
X131436263Y-17947023D01*
X130999069Y-17890114D01*
X130843673Y-17875036D01*
X130673249Y-17869842D01*
X130523992Y-17879466D01*
X130382355Y-17908554D01*
X130343521Y-17861415D01*
X130495799Y-17832277D01*
X130643207Y-17822947D01*
X130812756Y-17829315D01*
X131019585Y-17850424D01*
X131440171Y-17906845D01*
X131695346Y-17931710D01*
X131968468Y-17940184D01*
X132234538Y-17928846D01*
X132474272Y-17895862D01*
X132692663Y-17841640D01*
X132893416Y-17765062D01*
X133063006Y-17671094D01*
X133180565Y-17570456D01*
X133250943Y-17461422D01*
X133274923Y-17341422D01*
X133256395Y-17239460D01*
X133201789Y-17145104D01*
X133110624Y-17056587D01*
X132979878Y-16972616D01*
X132979878Y-16954908D01*
G37*
G36*
X131048161Y-17353024D02*
G01*
X131122353Y-17470539D01*
X131236273Y-17566155D01*
X131390620Y-17643591D01*
X131590869Y-17704612D01*
X131590869Y-17723174D01*
X131396318Y-17683785D01*
X131240114Y-17629265D01*
X131116339Y-17559099D01*
X131022388Y-17471012D01*
X130959257Y-17361206D01*
X131048161Y-17353024D01*
G37*
G36*
X130689124Y-16905693D02*
G01*
X130799278Y-16936712D01*
X130877034Y-16979782D01*
X131037108Y-17024623D01*
X131322690Y-17070069D01*
X131762572Y-17124901D01*
X132172709Y-17183243D01*
X132362432Y-17222110D01*
X132490925Y-17273807D01*
X132579320Y-17349605D01*
X132548789Y-17358397D01*
X132415113Y-17293990D01*
X132280367Y-17252640D01*
X132104000Y-17220974D01*
X131731797Y-17172162D01*
X131190830Y-17100946D01*
X130936298Y-17052972D01*
X130814876Y-17012717D01*
X130734602Y-16964120D01*
X130689124Y-16905693D01*
G37*
G36*
X133504267Y-16072214D02*
G01*
X134838810Y-16072214D01*
X134461455Y-16263334D01*
X134461455Y-17687148D01*
X134819271Y-17838579D01*
X133503290Y-17838579D01*
X133896766Y-17674814D01*
X133896766Y-16248314D01*
X133504267Y-16072214D01*
G37*
G36*
X134953605Y-16154158D02*
G01*
X134671993Y-16293376D01*
X134671993Y-17689713D01*
X135140695Y-17948000D01*
X133699418Y-17948000D01*
X133613933Y-17908921D01*
X134944323Y-17908921D01*
X134579913Y-17706443D01*
X134579913Y-16277867D01*
X134896940Y-16120819D01*
X134953605Y-16154158D01*
G37*
G36*
X138344916Y-16114835D02*
G01*
X137811002Y-16639346D01*
X137752952Y-16492885D01*
X137661365Y-16382874D01*
X137541113Y-16301558D01*
X137383384Y-16240125D01*
X137194742Y-16202640D01*
X136966166Y-16189451D01*
X136719966Y-16202416D01*
X136510339Y-16239555D01*
X136329460Y-16300408D01*
X136172621Y-16387410D01*
X136055978Y-16488167D01*
X135967288Y-16611283D01*
X135909797Y-16761149D01*
X135889055Y-16942940D01*
X135914818Y-17149648D01*
X135985237Y-17313999D01*
X136092466Y-17443750D01*
X136232366Y-17545286D01*
X136404894Y-17623260D01*
X136614113Y-17680201D01*
X136867751Y-17716256D01*
X137176459Y-17729158D01*
X137608524Y-17729158D01*
X137608524Y-17025739D01*
X136927819Y-17025739D01*
X136718894Y-17022526D01*
X136604686Y-17015114D01*
X136509326Y-16998467D01*
X136411734Y-16967731D01*
X136411734Y-16925721D01*
X136522114Y-16958741D01*
X136618364Y-16975791D01*
X136730948Y-16983378D01*
X136935879Y-16986660D01*
X137608524Y-16986660D01*
X137608524Y-16924133D01*
X136856745Y-16924133D01*
X136733646Y-16924133D01*
X136535080Y-16912020D01*
X136413299Y-16881283D01*
X136343762Y-16834758D01*
X136318922Y-16767452D01*
X136336859Y-16710483D01*
X136389264Y-16663038D01*
X136468238Y-16629900D01*
X136559013Y-16619318D01*
X136628030Y-16626256D01*
X136688706Y-16647528D01*
X136730559Y-16678348D01*
X136744393Y-16714207D01*
X136732224Y-16754420D01*
X136700966Y-16778112D01*
X136650848Y-16790411D01*
X136585147Y-16797494D01*
X136558524Y-16807996D01*
X136572883Y-16817600D01*
X136640834Y-16822528D01*
X136733646Y-16822528D01*
X138556675Y-16822528D01*
X138167840Y-17007420D01*
X138167840Y-17675180D01*
X138530053Y-17838579D01*
X137113688Y-17838579D01*
X136837694Y-17838579D01*
X136505722Y-17826861D01*
X136261036Y-17795836D01*
X136039609Y-17739197D01*
X135799418Y-17644284D01*
X135602964Y-17537513D01*
X135450655Y-17418373D01*
X135340122Y-17285131D01*
X135271549Y-17135326D01*
X135247673Y-16965899D01*
X135270916Y-16789198D01*
X135337102Y-16635475D01*
X135442630Y-16501258D01*
X135586298Y-16383692D01*
X135769376Y-16280676D01*
X136010314Y-16185274D01*
X136267986Y-16118421D01*
X136546468Y-16078143D01*
X136851371Y-16064399D01*
X137139160Y-16075990D01*
X137492997Y-16114591D01*
X137831463Y-16156595D01*
X137977087Y-16166004D01*
X138147858Y-16154075D01*
X138344916Y-16114835D01*
G37*
G36*
X138501232Y-16215951D02*
G01*
X138027157Y-16683066D01*
X137947045Y-16664748D01*
X138424540Y-16195923D01*
X138501232Y-16215951D01*
G37*
G36*
X137624156Y-16425145D02*
G01*
X137562362Y-16401210D01*
X137346900Y-16331602D01*
X137161572Y-16294559D01*
X136998894Y-16283240D01*
X136802359Y-16295567D01*
X136626723Y-16331902D01*
X136466200Y-16393760D01*
X136370367Y-16452271D01*
X136292006Y-16523222D01*
X136231727Y-16608694D01*
X136179951Y-16752364D01*
X136159676Y-16960159D01*
X136174350Y-17146549D01*
X136212927Y-17284722D01*
X136268364Y-17384531D01*
X136358081Y-17476575D01*
X136490151Y-17564872D01*
X136670632Y-17650267D01*
X136670632Y-17674081D01*
X136469413Y-17599206D01*
X136313717Y-17509199D01*
X136199243Y-17402239D01*
X136126551Y-17284548D01*
X136077522Y-17131031D01*
X136059292Y-16933659D01*
X136077283Y-16767484D01*
X136127109Y-16630441D01*
X136203803Y-16517899D01*
X136304267Y-16425878D01*
X136441092Y-16345503D01*
X136598402Y-16289750D01*
X136780144Y-16255933D01*
X136993277Y-16244161D01*
X137178241Y-16254445D01*
X137342031Y-16284452D01*
X137489687Y-16334639D01*
X137624156Y-16407682D01*
X137624156Y-16425145D01*
G37*
G36*
X138664875Y-16898610D02*
G01*
X138381064Y-17040637D01*
X138381064Y-17679699D01*
X138844149Y-17948122D01*
X137742125Y-17940184D01*
X136758315Y-17948000D01*
X136615433Y-17945313D01*
X136443960Y-17921378D01*
X136245893Y-17862026D01*
X136328692Y-17862026D01*
X136456306Y-17886521D01*
X136621923Y-17902868D01*
X136834519Y-17908921D01*
X136971050Y-17901105D01*
X138656326Y-17901105D01*
X138288985Y-17697651D01*
X138288985Y-17023785D01*
X138611874Y-16860630D01*
X138664875Y-16898610D01*
G37*
G36*
X142200534Y-16072214D02*
G01*
X141977026Y-16136362D01*
X141843600Y-16186579D01*
X141773109Y-16225721D01*
X141703425Y-16297734D01*
X141655862Y-16398281D01*
X141637799Y-16535909D01*
X141637799Y-16624570D01*
X141637799Y-17838579D01*
X141163235Y-17838579D01*
X139886333Y-16593062D01*
X139886333Y-17322127D01*
X139883402Y-17383799D01*
X139916375Y-17581269D01*
X139970095Y-17666586D01*
X140051987Y-17732315D01*
X140162083Y-17782159D01*
X140213374Y-17804629D01*
X140071574Y-17768856D01*
X139959317Y-17714250D01*
X139873251Y-17637366D01*
X139815642Y-17531910D01*
X139794009Y-17389416D01*
X139796696Y-17260212D01*
X139796696Y-16510997D01*
X139664805Y-16382891D01*
X139664805Y-17155798D01*
X139680023Y-17412165D01*
X139716414Y-17564954D01*
X139762258Y-17647214D01*
X139848600Y-17713149D01*
X139995073Y-17769580D01*
X140221434Y-17816108D01*
X140473249Y-17948000D01*
X138969690Y-17948000D01*
X138915224Y-17908921D01*
X140281518Y-17908921D01*
X140153779Y-17838579D01*
X138883716Y-17834671D01*
X139091567Y-17784004D01*
X139231761Y-17729174D01*
X139319690Y-17670418D01*
X139373182Y-17600106D01*
X139412325Y-17489355D01*
X139427889Y-17323471D01*
X139427889Y-16229385D01*
X139050778Y-16072214D01*
X140480576Y-16072214D01*
X140076842Y-16207159D01*
X141381588Y-17483083D01*
X141381588Y-17335316D01*
X140245370Y-16226210D01*
X140639090Y-16092975D01*
X140702104Y-16124482D01*
X140361141Y-16239765D01*
X141381588Y-17243847D01*
X141381588Y-16619196D01*
X141381588Y-16546900D01*
X141369841Y-16386129D01*
X141341377Y-16287340D01*
X141304651Y-16231583D01*
X141238476Y-16185681D01*
X141110268Y-16133069D01*
X140893591Y-16072214D01*
X142200534Y-16072214D01*
G37*
G36*
X142279180Y-16171866D02*
G01*
X142219585Y-16221447D01*
X142086734Y-16244150D01*
X141995260Y-16274171D01*
X141935531Y-16310962D01*
X141883997Y-16388078D01*
X141861769Y-16531879D01*
X141861769Y-17948000D01*
X141261909Y-17948000D01*
X141217457Y-17908921D01*
X141772376Y-17908921D01*
X141772376Y-16545557D01*
X141786904Y-16415658D01*
X141823431Y-16329503D01*
X141873737Y-16275058D01*
X141954316Y-16232882D01*
X142083564Y-16197910D01*
X142279180Y-16171866D01*
G37*
G36*
X144666410Y-16237933D02*
G01*
X145109711Y-16827291D01*
X145204965Y-16800791D01*
X144801232Y-16263579D01*
X145097743Y-16093219D01*
X145183960Y-16111538D01*
X144904058Y-16273471D01*
X145281169Y-16775756D01*
X145310478Y-16763910D01*
X145401092Y-16725442D01*
X145513933Y-16673052D01*
X145609790Y-16830301D01*
X145742788Y-16966510D01*
X145613584Y-16963212D01*
X145377089Y-16974625D01*
X145243311Y-17002047D01*
X145734972Y-17672738D01*
X146160932Y-17838579D01*
X144737240Y-17838579D01*
X145126319Y-17673959D01*
X144829320Y-17281094D01*
X144562392Y-17431579D01*
X144374051Y-17568446D01*
X144295649Y-17558188D01*
X144489600Y-17418998D01*
X144782669Y-17252274D01*
X144801232Y-17240428D01*
X144755558Y-17186817D01*
X144556732Y-17280270D01*
X144378573Y-17385729D01*
X144220422Y-17504088D01*
X144164491Y-17458781D01*
X143801546Y-17199395D01*
X143782251Y-17187794D01*
X143659914Y-17343252D01*
X143596259Y-17465433D01*
X143577575Y-17560875D01*
X143593095Y-17642047D01*
X143635705Y-17705222D01*
X143718628Y-17772369D01*
X143917561Y-17903303D01*
X143987659Y-17948000D01*
X142492404Y-17948000D01*
X142424016Y-17908921D01*
X143815712Y-17908921D01*
X143779564Y-17886328D01*
X143618965Y-17779870D01*
X143542160Y-17713771D01*
X143500402Y-17648204D01*
X143485496Y-17568080D01*
X143504509Y-17474625D01*
X143573001Y-17339508D01*
X143711176Y-17149814D01*
X143602488Y-17092783D01*
X143517003Y-17216126D01*
X143426877Y-17356321D01*
X143369712Y-17464464D01*
X143353605Y-17541946D01*
X143367372Y-17613892D01*
X143404651Y-17668097D01*
X143474353Y-17721029D01*
X143622027Y-17805850D01*
X143683332Y-17838579D01*
X142267212Y-17838579D01*
X142530214Y-17757030D01*
X142743106Y-17663897D01*
X142911769Y-17558799D01*
X143047291Y-17439879D01*
X143197452Y-17268087D01*
X143362642Y-17029646D01*
X143372411Y-17012794D01*
X143272748Y-16980467D01*
X143135337Y-16955365D01*
X142949627Y-16939277D01*
X142961057Y-16929385D01*
X143718259Y-16929385D01*
X143912470Y-17036571D01*
X144073632Y-17139678D01*
X144198929Y-17227483D01*
X144220911Y-17241893D01*
X144240939Y-17230658D01*
X144279529Y-17206967D01*
X144305907Y-17191213D01*
X144101494Y-17052085D01*
X143861385Y-16924622D01*
X143872093Y-16910456D01*
X143974958Y-16910456D01*
X143999871Y-16925599D01*
X144111246Y-16988369D01*
X144341567Y-17142487D01*
X144362816Y-17158729D01*
X144482750Y-17089835D01*
X144631727Y-17017312D01*
X144266584Y-16525163D01*
X143974958Y-16910456D01*
X143872093Y-16910456D01*
X144211874Y-16460927D01*
X144143486Y-16367016D01*
X143718259Y-16929385D01*
X142961057Y-16929385D01*
X143089339Y-16818361D01*
X143191916Y-16694057D01*
X143247359Y-16720191D01*
X143370213Y-16777832D01*
X143511630Y-16836328D01*
X143555105Y-16783205D01*
X143526528Y-16771237D01*
X143297184Y-16674151D01*
X143266654Y-16662183D01*
X143319166Y-16626035D01*
X143596626Y-16735334D01*
X143962502Y-16232438D01*
X143663793Y-16072214D01*
X144958769Y-16072214D01*
X144666410Y-16237933D01*
G37*
G36*
X145757198Y-16745226D02*
G01*
X145851423Y-16879673D01*
X146065677Y-17093272D01*
X145981902Y-17086555D01*
X145760129Y-17073854D01*
X145542753Y-17064817D01*
X145498057Y-17070923D01*
X145950883Y-17676401D01*
X146574435Y-17948000D01*
X144967806Y-17948000D01*
X144903081Y-17908921D01*
X146349976Y-17908921D01*
X145872237Y-17696185D01*
X145382041Y-17042836D01*
X145487123Y-17030145D01*
X145605524Y-17025739D01*
X145918887Y-17040027D01*
X145893730Y-17016824D01*
X145742174Y-16854491D01*
X145653884Y-16713474D01*
X145757198Y-16745226D01*
G37*
G36*
X146627436Y-16072214D02*
G01*
X147972725Y-16072214D01*
X147576075Y-16264800D01*
X147576075Y-17719632D01*
X147590485Y-17719632D01*
X147689404Y-17721342D01*
X147705279Y-17722930D01*
X147705279Y-16275180D01*
X148009362Y-16121674D01*
X148056501Y-16158432D01*
X147789299Y-16294720D01*
X147789299Y-17724151D01*
X148016445Y-17729158D01*
X148298371Y-17716935D01*
X148510290Y-17684012D01*
X148668329Y-17633781D01*
X148790205Y-17562316D01*
X148892565Y-17455833D01*
X148970213Y-17303198D01*
X149172687Y-17562468D01*
X149355213Y-17733350D01*
X149518538Y-17838579D01*
X146626214Y-17838579D01*
X147016759Y-17672494D01*
X147016759Y-16251122D01*
X146627436Y-16072214D01*
G37*
G36*
X149777191Y-17825512D02*
G01*
X149649452Y-17948000D01*
X146789369Y-17948000D01*
X146703884Y-17908921D01*
X149609641Y-17908921D01*
X149685112Y-17826611D01*
X149500102Y-17699322D01*
X149340475Y-17561734D01*
X149205907Y-17412986D01*
X149189055Y-17389905D01*
X149295545Y-17409933D01*
X149315817Y-17434845D01*
X149517497Y-17631264D01*
X149752034Y-17809880D01*
X149777191Y-17825512D01*
G37*
G36*
X154218748Y-16114835D02*
G01*
X153684833Y-16639346D01*
X153626783Y-16492885D01*
X153535196Y-16382874D01*
X153414944Y-16301558D01*
X153257215Y-16240125D01*
X153068573Y-16202640D01*
X152839997Y-16189451D01*
X152593797Y-16202416D01*
X152384170Y-16239555D01*
X152203291Y-16300408D01*
X152046452Y-16387410D01*
X151929809Y-16488167D01*
X151841119Y-16611283D01*
X151783628Y-16761149D01*
X151762886Y-16942940D01*
X151788649Y-17149648D01*
X151859069Y-17313999D01*
X151966298Y-17443750D01*
X152106197Y-17545286D01*
X152278725Y-17623260D01*
X152487945Y-17680201D01*
X152741582Y-17716256D01*
X153050290Y-17729158D01*
X153482355Y-17729158D01*
X153482355Y-17025739D01*
X152801651Y-17025739D01*
X152592725Y-17022526D01*
X152478517Y-17015114D01*
X152383157Y-16998467D01*
X152285565Y-16967731D01*
X152285565Y-16925721D01*
X152395945Y-16958741D01*
X152492195Y-16975791D01*
X152604779Y-16983378D01*
X152809711Y-16986660D01*
X153482355Y-16986660D01*
X153482355Y-16924133D01*
X152730576Y-16924133D01*
X152607478Y-16924133D01*
X152408911Y-16912020D01*
X152287130Y-16881283D01*
X152217593Y-16834758D01*
X152192753Y-16767452D01*
X152210690Y-16710483D01*
X152263095Y-16663038D01*
X152342069Y-16629900D01*
X152432844Y-16619318D01*
X152501861Y-16626256D01*
X152562537Y-16647528D01*
X152604390Y-16678348D01*
X152618224Y-16714207D01*
X152606055Y-16754420D01*
X152574798Y-16778112D01*
X152524679Y-16790411D01*
X152458978Y-16797494D01*
X152432355Y-16807996D01*
X152446715Y-16817600D01*
X152514665Y-16822528D01*
X152607478Y-16822528D01*
X154430506Y-16822528D01*
X154041672Y-17007420D01*
X154041672Y-17675180D01*
X154403884Y-17838579D01*
X152987519Y-17838579D01*
X152711525Y-17838579D01*
X152379553Y-17826861D01*
X152134868Y-17795836D01*
X151913440Y-17739197D01*
X151673249Y-17644284D01*
X151476795Y-17537513D01*
X151324486Y-17418373D01*
X151213953Y-17285131D01*
X151145380Y-17135326D01*
X151121504Y-16965899D01*
X151144747Y-16789198D01*
X151210934Y-16635475D01*
X151316461Y-16501258D01*
X151460129Y-16383692D01*
X151643207Y-16280676D01*
X151884145Y-16185274D01*
X152141817Y-16118421D01*
X152420299Y-16078143D01*
X152725203Y-16064399D01*
X153012991Y-16075990D01*
X153366829Y-16114591D01*
X153705294Y-16156595D01*
X153850918Y-16166004D01*
X154021689Y-16154075D01*
X154218748Y-16114835D01*
G37*
G36*
X154375063Y-16215951D02*
G01*
X153900988Y-16683066D01*
X153820876Y-16664748D01*
X154298371Y-16195923D01*
X154375063Y-16215951D01*
G37*
G36*
X153497987Y-16425145D02*
G01*
X153436193Y-16401210D01*
X153220731Y-16331602D01*
X153035404Y-16294559D01*
X152872725Y-16283240D01*
X152676190Y-16295567D01*
X152500554Y-16331902D01*
X152340032Y-16393760D01*
X152244198Y-16452271D01*
X152165838Y-16523222D01*
X152105558Y-16608694D01*
X152053782Y-16752364D01*
X152033507Y-16960159D01*
X152048181Y-17146549D01*
X152086758Y-17284722D01*
X152142195Y-17384531D01*
X152231912Y-17476575D01*
X152363983Y-17564872D01*
X152544463Y-17650267D01*
X152544463Y-17674081D01*
X152343244Y-17599206D01*
X152187548Y-17509199D01*
X152073074Y-17402239D01*
X152000382Y-17284548D01*
X151951353Y-17131031D01*
X151933123Y-16933659D01*
X151951115Y-16767484D01*
X152000941Y-16630441D01*
X152077634Y-16517899D01*
X152178099Y-16425878D01*
X152314923Y-16345503D01*
X152472233Y-16289750D01*
X152653975Y-16255933D01*
X152867108Y-16244161D01*
X153052073Y-16254445D01*
X153215862Y-16284452D01*
X153363518Y-16334639D01*
X153497987Y-16407682D01*
X153497987Y-16425145D01*
G37*
G36*
X154538706Y-16898610D02*
G01*
X154254896Y-17040637D01*
X154254896Y-17679699D01*
X154717980Y-17948122D01*
X153615956Y-17940184D01*
X152632146Y-17948000D01*
X152489264Y-17945313D01*
X152317791Y-17921378D01*
X152119725Y-17862026D01*
X152202523Y-17862026D01*
X152330138Y-17886521D01*
X152495754Y-17902868D01*
X152708350Y-17908921D01*
X152844882Y-17901105D01*
X154530157Y-17901105D01*
X154162816Y-17697651D01*
X154162816Y-17023785D01*
X154485705Y-16860630D01*
X154538706Y-16898610D01*
G37*
G36*
X157903151Y-16072214D02*
G01*
X157848685Y-16104577D01*
X157678119Y-16223037D01*
X157528675Y-16356416D01*
X157400743Y-16506234D01*
X157351895Y-16451524D01*
X157238434Y-16348022D01*
X157132304Y-16282122D01*
X157032425Y-16244039D01*
X156912988Y-16221132D01*
X156718295Y-16204111D01*
X156419131Y-16197267D01*
X155935042Y-16203861D01*
X155935042Y-16822528D01*
X156094288Y-16822528D01*
X156094288Y-16267975D01*
X156498266Y-16259793D01*
X156823219Y-16270610D01*
X157012642Y-16296429D01*
X157113158Y-16327012D01*
X157218248Y-16378150D01*
X157329424Y-16455676D01*
X157241741Y-16422214D01*
X157032575Y-16344092D01*
X156924470Y-16315602D01*
X156803768Y-16304207D01*
X156539055Y-16298872D01*
X156228378Y-16309374D01*
X156178064Y-16311695D01*
X156178064Y-16822528D01*
X156669236Y-16822528D01*
X157033402Y-16570103D01*
X157033402Y-17178146D01*
X156669236Y-16947581D01*
X155935042Y-16947581D01*
X155935042Y-17705711D01*
X156094288Y-17705711D01*
X156094288Y-17002291D01*
X156697812Y-17002291D01*
X156786717Y-17041370D01*
X156178064Y-17041370D01*
X156178064Y-17705711D01*
X156686898Y-17693680D01*
X156959397Y-17666143D01*
X157102364Y-17631671D01*
X157223281Y-17580587D01*
X157324784Y-17510683D01*
X157469620Y-17385508D01*
X157512118Y-17346429D01*
X157600332Y-17496998D01*
X157692125Y-17597389D01*
X157821952Y-17689216D01*
X158052628Y-17815131D01*
X154947812Y-17815131D01*
X155378168Y-17649779D01*
X155378168Y-17041859D01*
X155166824Y-17066504D01*
X154968573Y-17114399D01*
X154921678Y-17079106D01*
X155114359Y-17031571D01*
X155378168Y-17002780D01*
X155378168Y-16947581D01*
X155320527Y-16947581D01*
X155143345Y-16958354D01*
X154970406Y-16991178D01*
X154797603Y-17048575D01*
X154867771Y-16963683D01*
X154959059Y-16901851D01*
X155071400Y-16858641D01*
X155208684Y-16831994D01*
X155378168Y-16822528D01*
X155378168Y-16246604D01*
X154948789Y-16072214D01*
X157903151Y-16072214D01*
G37*
G36*
X158026982Y-16167347D02*
G01*
X158004512Y-16181757D01*
X157791346Y-16334586D01*
X157646132Y-16459404D01*
X157555349Y-16560700D01*
X157497464Y-16524919D01*
X157633387Y-16386476D01*
X157793943Y-16255742D01*
X157979843Y-16132176D01*
X158026982Y-16167347D01*
G37*
G36*
X157221958Y-16623715D02*
G01*
X157221958Y-17237863D01*
X157137938Y-17215882D01*
X157137938Y-16601733D01*
X157221958Y-16623715D01*
G37*
G36*
X158355000Y-17825390D02*
G01*
X158207722Y-17948000D01*
X155215258Y-17948000D01*
X155160792Y-17908921D01*
X158163025Y-17908921D01*
X158250953Y-17826855D01*
X158010256Y-17698577D01*
X157825876Y-17566033D01*
X157692369Y-17428251D01*
X157799348Y-17448401D01*
X157916514Y-17561167D01*
X158083202Y-17678427D01*
X158307129Y-17801210D01*
X158355000Y-17825390D01*
G37*
G36*
X161552383Y-16072214D02*
G01*
X161328876Y-16136362D01*
X161195449Y-16186579D01*
X161124958Y-16225721D01*
X161055274Y-16297734D01*
X161007711Y-16398281D01*
X160989648Y-16535909D01*
X160989648Y-16624570D01*
X160989648Y-17838579D01*
X160515084Y-17838579D01*
X159238182Y-16593062D01*
X159238182Y-17322127D01*
X159235251Y-17383799D01*
X159268224Y-17581269D01*
X159321945Y-17666586D01*
X159403837Y-17732315D01*
X159513933Y-17782159D01*
X159565224Y-17804629D01*
X159423423Y-17768856D01*
X159311166Y-17714250D01*
X159225100Y-17637366D01*
X159167491Y-17531910D01*
X159145859Y-17389416D01*
X159148545Y-17260212D01*
X159148545Y-16510997D01*
X159016654Y-16382891D01*
X159016654Y-17155798D01*
X159031873Y-17412165D01*
X159068263Y-17564954D01*
X159114107Y-17647214D01*
X159200449Y-17713149D01*
X159346923Y-17769580D01*
X159573284Y-17816108D01*
X159825098Y-17948000D01*
X158321539Y-17948000D01*
X158267073Y-17908921D01*
X159633367Y-17908921D01*
X159505628Y-17838579D01*
X158235565Y-17834671D01*
X158443417Y-17784004D01*
X158583611Y-17729174D01*
X158671539Y-17670418D01*
X158725031Y-17600106D01*
X158764175Y-17489355D01*
X158779739Y-17323471D01*
X158779739Y-16229385D01*
X158402628Y-16072214D01*
X159832425Y-16072214D01*
X159428692Y-16207159D01*
X160733437Y-17483083D01*
X160733437Y-17335316D01*
X159597219Y-16226210D01*
X159990939Y-16092975D01*
X160053953Y-16124482D01*
X159712990Y-16239765D01*
X160733437Y-17243847D01*
X160733437Y-16619196D01*
X160733437Y-16546900D01*
X160721690Y-16386129D01*
X160693226Y-16287340D01*
X160656501Y-16231583D01*
X160590326Y-16185681D01*
X160462117Y-16133069D01*
X160245440Y-16072214D01*
X161552383Y-16072214D01*
G37*
G36*
X161631030Y-16171866D02*
G01*
X161571434Y-16221447D01*
X161438583Y-16244150D01*
X161347110Y-16274171D01*
X161287380Y-16310962D01*
X161235847Y-16388078D01*
X161213618Y-16531879D01*
X161213618Y-17948000D01*
X160613758Y-17948000D01*
X160569306Y-17908921D01*
X161124226Y-17908921D01*
X161124226Y-16545557D01*
X161138753Y-16415658D01*
X161175280Y-16329503D01*
X161225586Y-16275058D01*
X161306166Y-16232882D01*
X161435413Y-16197910D01*
X161631030Y-16171866D01*
G37*
G36*
X164741951Y-16072214D02*
G01*
X164687484Y-16104577D01*
X164516918Y-16223037D01*
X164367475Y-16356416D01*
X164239543Y-16506234D01*
X164190695Y-16451524D01*
X164077234Y-16348022D01*
X163971104Y-16282122D01*
X163871225Y-16244039D01*
X163751788Y-16221132D01*
X163557094Y-16204111D01*
X163257931Y-16197267D01*
X162773842Y-16203861D01*
X162773842Y-16822528D01*
X162933088Y-16822528D01*
X162933088Y-16267975D01*
X163337066Y-16259793D01*
X163662019Y-16270610D01*
X163851441Y-16296429D01*
X163951958Y-16327012D01*
X164057048Y-16378150D01*
X164168224Y-16455676D01*
X164080541Y-16422214D01*
X163871375Y-16344092D01*
X163763270Y-16315602D01*
X163642568Y-16304207D01*
X163377854Y-16298872D01*
X163067177Y-16309374D01*
X163016863Y-16311695D01*
X163016863Y-16822528D01*
X163508036Y-16822528D01*
X163872202Y-16570103D01*
X163872202Y-17178146D01*
X163508036Y-16947581D01*
X162773842Y-16947581D01*
X162773842Y-17705711D01*
X162933088Y-17705711D01*
X162933088Y-17002291D01*
X163536612Y-17002291D01*
X163625517Y-17041370D01*
X163016863Y-17041370D01*
X163016863Y-17705711D01*
X163525697Y-17693680D01*
X163798196Y-17666143D01*
X163941164Y-17631671D01*
X164062081Y-17580587D01*
X164163584Y-17510683D01*
X164308420Y-17385508D01*
X164350918Y-17346429D01*
X164439132Y-17496998D01*
X164530925Y-17597389D01*
X164660752Y-17689216D01*
X164891427Y-17815131D01*
X161786612Y-17815131D01*
X162216968Y-17649779D01*
X162216968Y-17041859D01*
X162005624Y-17066504D01*
X161807373Y-17114399D01*
X161760478Y-17079106D01*
X161953159Y-17031571D01*
X162216968Y-17002780D01*
X162216968Y-16947581D01*
X162159327Y-16947581D01*
X161982145Y-16958354D01*
X161809205Y-16991178D01*
X161636403Y-17048575D01*
X161706571Y-16963683D01*
X161797859Y-16901851D01*
X161910200Y-16858641D01*
X162047484Y-16831994D01*
X162216968Y-16822528D01*
X162216968Y-16246604D01*
X161787589Y-16072214D01*
X164741951Y-16072214D01*
G37*
G36*
X164865782Y-16167347D02*
G01*
X164843311Y-16181757D01*
X164630145Y-16334586D01*
X164484932Y-16459404D01*
X164394149Y-16560700D01*
X164336263Y-16524919D01*
X164472186Y-16386476D01*
X164632743Y-16255742D01*
X164818643Y-16132176D01*
X164865782Y-16167347D01*
G37*
G36*
X164060757Y-16623715D02*
G01*
X164060757Y-17237863D01*
X163976738Y-17215882D01*
X163976738Y-16601733D01*
X164060757Y-16623715D01*
G37*
G36*
X165193800Y-17825390D02*
G01*
X165046521Y-17948000D01*
X162054058Y-17948000D01*
X161999592Y-17908921D01*
X165001825Y-17908921D01*
X165089752Y-17826855D01*
X164849056Y-17698577D01*
X164664676Y-17566033D01*
X164531169Y-17428251D01*
X164638147Y-17448401D01*
X164755313Y-17561167D01*
X164922002Y-17678427D01*
X165145928Y-17801210D01*
X165193800Y-17825390D01*
G37*
G36*
X168163837Y-16294365D02*
G01*
X168251383Y-16368758D01*
X168304625Y-16452312D01*
X168323039Y-16547389D01*
X168302444Y-16645202D01*
X168241988Y-16733647D01*
X168140612Y-16815043D01*
X167993327Y-16890860D01*
X167791642Y-16961585D01*
X167524121Y-17026715D01*
X167662109Y-17206080D01*
X167861798Y-17388154D01*
X168130087Y-17574308D01*
X168323359Y-17680149D01*
X168556598Y-17782391D01*
X168834240Y-17881077D01*
X168414785Y-17948271D01*
X168018928Y-18033989D01*
X167644533Y-18138387D01*
X167615224Y-18148157D01*
X167547812Y-18120923D01*
X167911419Y-18013916D01*
X168279752Y-17929746D01*
X168654477Y-17867277D01*
X168372164Y-17757429D01*
X168108522Y-17621845D01*
X167862815Y-17457673D01*
X167635440Y-17261320D01*
X167427889Y-17028547D01*
X167408838Y-17001558D01*
X167691210Y-16936938D01*
X167903137Y-16866242D01*
X168057239Y-16790150D01*
X168162951Y-16708250D01*
X168225884Y-16619033D01*
X168247324Y-16520034D01*
X168226876Y-16434158D01*
X168160857Y-16337681D01*
X168039229Y-16227553D01*
X168163837Y-16294365D01*
G37*
G36*
X167055112Y-16057542D02*
G01*
X167308968Y-16082474D01*
X167530112Y-16122042D01*
X167723179Y-16175529D01*
X167895084Y-16246483D01*
X168010679Y-16322844D01*
X168078526Y-16405973D01*
X168101511Y-16498540D01*
X168074472Y-16600347D01*
X167993614Y-16693894D01*
X167853605Y-16782106D01*
X167676028Y-16854367D01*
X167456012Y-16913672D01*
X167185845Y-16959304D01*
X167322868Y-17127368D01*
X167491816Y-17295144D01*
X167694358Y-17463055D01*
X167923424Y-17623051D01*
X168142710Y-17749115D01*
X168353081Y-17846028D01*
X168298371Y-17854943D01*
X167900057Y-17937036D01*
X167502383Y-18049238D01*
X167451337Y-18066091D01*
X167435705Y-18016265D01*
X167296063Y-17664721D01*
X167131831Y-17367773D01*
X166947219Y-17118795D01*
X166939404Y-17108903D01*
X166738860Y-17145178D01*
X166439194Y-17177658D01*
X166423807Y-17178512D01*
X166423807Y-17687392D01*
X166914979Y-17948000D01*
X165480053Y-17948000D01*
X165425586Y-17908921D01*
X166723493Y-17908921D01*
X166337101Y-17700215D01*
X166337101Y-17141387D01*
X166401337Y-17136747D01*
X166696423Y-17112168D01*
X166913514Y-17076785D01*
X166897882Y-17059444D01*
X166870527Y-17019632D01*
X166859780Y-17006688D01*
X166657398Y-17028492D01*
X166225970Y-17059444D01*
X166202523Y-17061520D01*
X166202523Y-17669441D01*
X166524679Y-17838579D01*
X165278552Y-17838579D01*
X165645893Y-17669318D01*
X165645893Y-17213806D01*
X165632949Y-17214660D01*
X165347673Y-17254228D01*
X165318852Y-17259723D01*
X165288078Y-17225041D01*
X165485182Y-17191946D01*
X165630018Y-17173994D01*
X165645893Y-17172040D01*
X165645893Y-17107560D01*
X165484617Y-17115296D01*
X165254372Y-17142975D01*
X165212362Y-17150669D01*
X165269271Y-17054071D01*
X165307373Y-16992399D01*
X165317387Y-16977256D01*
X165514247Y-16978844D01*
X165643207Y-16977501D01*
X165643207Y-16310229D01*
X165388706Y-16247581D01*
X165351337Y-16240620D01*
X165486886Y-16206914D01*
X166202523Y-16206914D01*
X166202523Y-16937567D01*
X166337101Y-16931461D01*
X166337101Y-16258816D01*
X166501557Y-16242349D01*
X166705663Y-16236346D01*
X166967339Y-16250003D01*
X167171839Y-16287750D01*
X167332121Y-16347597D01*
X167455733Y-16431496D01*
X167228726Y-16348012D01*
X167071783Y-16306199D01*
X166911087Y-16283636D01*
X166708350Y-16275424D01*
X166548922Y-16279872D01*
X166423807Y-16291911D01*
X166423807Y-16929995D01*
X166444568Y-16928163D01*
X166797642Y-16885246D01*
X167055938Y-16833262D01*
X167239578Y-16774657D01*
X167384201Y-16697375D01*
X167469239Y-16608171D01*
X167498475Y-16502937D01*
X167472419Y-16408731D01*
X167396173Y-16327529D01*
X167265956Y-16255885D01*
X167101330Y-16202571D01*
X166907953Y-16169730D01*
X166678308Y-16158188D01*
X166408313Y-16171275D01*
X166202523Y-16206914D01*
X165486886Y-16206914D01*
X165691389Y-16156062D01*
X166038188Y-16096443D01*
X166394395Y-16060751D01*
X166763060Y-16048767D01*
X167055112Y-16057542D01*
G37*
G36*
X171052453Y-16237933D02*
G01*
X171495754Y-16827291D01*
X171591009Y-16800791D01*
X171187275Y-16263579D01*
X171483786Y-16093219D01*
X171570004Y-16111538D01*
X171290101Y-16273471D01*
X171667212Y-16775756D01*
X171696521Y-16763910D01*
X171787136Y-16725442D01*
X171899976Y-16673052D01*
X171995833Y-16830301D01*
X172128831Y-16966510D01*
X171999627Y-16963212D01*
X171763133Y-16974625D01*
X171629355Y-17002047D01*
X172121016Y-17672738D01*
X172546975Y-17838579D01*
X171123284Y-17838579D01*
X171512362Y-17673959D01*
X171215363Y-17281094D01*
X170948435Y-17431579D01*
X170760094Y-17568446D01*
X170681692Y-17558188D01*
X170875643Y-17418998D01*
X171168713Y-17252274D01*
X171187275Y-17240428D01*
X171141602Y-17186817D01*
X170942775Y-17280270D01*
X170764617Y-17385729D01*
X170606466Y-17504088D01*
X170550534Y-17458781D01*
X170187589Y-17199395D01*
X170168294Y-17187794D01*
X170045957Y-17343252D01*
X169982302Y-17465433D01*
X169963618Y-17560875D01*
X169979138Y-17642047D01*
X170021748Y-17705222D01*
X170104672Y-17772369D01*
X170303605Y-17903303D01*
X170373702Y-17948000D01*
X168878448Y-17948000D01*
X168810060Y-17908921D01*
X170201755Y-17908921D01*
X170165607Y-17886328D01*
X170005008Y-17779870D01*
X169928203Y-17713771D01*
X169886445Y-17648204D01*
X169871539Y-17568080D01*
X169890552Y-17474625D01*
X169959044Y-17339508D01*
X170097219Y-17149814D01*
X169988531Y-17092783D01*
X169903046Y-17216126D01*
X169812921Y-17356321D01*
X169755755Y-17464464D01*
X169739648Y-17541946D01*
X169753415Y-17613892D01*
X169790695Y-17668097D01*
X169860396Y-17721029D01*
X170008071Y-17805850D01*
X170069376Y-17838579D01*
X168653256Y-17838579D01*
X168916258Y-17757030D01*
X169129150Y-17663897D01*
X169297812Y-17558799D01*
X169433334Y-17439879D01*
X169583495Y-17268087D01*
X169748685Y-17029646D01*
X169758454Y-17012794D01*
X169658791Y-16980467D01*
X169521380Y-16955365D01*
X169335670Y-16939277D01*
X169347100Y-16929385D01*
X170104302Y-16929385D01*
X170298513Y-17036571D01*
X170459676Y-17139678D01*
X170584972Y-17227483D01*
X170606954Y-17241893D01*
X170626982Y-17230658D01*
X170665572Y-17206967D01*
X170691951Y-17191213D01*
X170487538Y-17052085D01*
X170247429Y-16924622D01*
X170258136Y-16910456D01*
X170361002Y-16910456D01*
X170385914Y-16925599D01*
X170497289Y-16988369D01*
X170727610Y-17142487D01*
X170748859Y-17158729D01*
X170868794Y-17089835D01*
X171017771Y-17017312D01*
X170652628Y-16525163D01*
X170361002Y-16910456D01*
X170258136Y-16910456D01*
X170597917Y-16460927D01*
X170529529Y-16367016D01*
X170104302Y-16929385D01*
X169347100Y-16929385D01*
X169475383Y-16818361D01*
X169577959Y-16694057D01*
X169633402Y-16720191D01*
X169756256Y-16777832D01*
X169897673Y-16836328D01*
X169941148Y-16783205D01*
X169912572Y-16771237D01*
X169683228Y-16674151D01*
X169652697Y-16662183D01*
X169705210Y-16626035D01*
X169982669Y-16735334D01*
X170348545Y-16232438D01*
X170049836Y-16072214D01*
X171344812Y-16072214D01*
X171052453Y-16237933D01*
G37*
G36*
X172143242Y-16745226D02*
G01*
X172237466Y-16879673D01*
X172451720Y-17093272D01*
X172367945Y-17086555D01*
X172146173Y-17073854D01*
X171928796Y-17064817D01*
X171884100Y-17070923D01*
X172336926Y-17676401D01*
X172960478Y-17948000D01*
X171353849Y-17948000D01*
X171289124Y-17908921D01*
X172736019Y-17908921D01*
X172258280Y-17696185D01*
X171768085Y-17042836D01*
X171873167Y-17030145D01*
X171991567Y-17025739D01*
X172304930Y-17040027D01*
X172279773Y-17016824D01*
X172128217Y-16854491D01*
X172039927Y-16713474D01*
X172143242Y-16745226D01*
G37*
G36*
X176093137Y-16072214D02*
G01*
X176054302Y-16109461D01*
X175868434Y-16273837D01*
X175780270Y-16367468D01*
X175691113Y-16492312D01*
X175682076Y-16503914D01*
X175643974Y-16490358D01*
X175635182Y-16470575D01*
X175568585Y-16366994D01*
X175493505Y-16296328D01*
X175412432Y-16250512D01*
X175309040Y-16218674D01*
X175165993Y-16197441D01*
X174970841Y-16189451D01*
X174725377Y-16197267D01*
X174699976Y-16197267D01*
X174699976Y-17683118D01*
X175034344Y-17838579D01*
X173744254Y-17838579D01*
X174140415Y-17672005D01*
X174140415Y-16310229D01*
X173954058Y-16306688D01*
X173771522Y-16314259D01*
X173644911Y-16333919D01*
X173559362Y-16362741D01*
X173497882Y-16404414D01*
X173449921Y-16468898D01*
X173420632Y-16564608D01*
X173333681Y-16564608D01*
X173371161Y-16454737D01*
X173429179Y-16380469D01*
X173502209Y-16332333D01*
X173602509Y-16298885D01*
X173747962Y-16276259D01*
X173954302Y-16267609D01*
X174118189Y-16266265D01*
X174140415Y-16266265D01*
X174140415Y-16205205D01*
X173883228Y-16197267D01*
X173654223Y-16206908D01*
X173492349Y-16232163D01*
X173380332Y-16269563D01*
X173299524Y-16323197D01*
X173240730Y-16403093D01*
X173210339Y-16518568D01*
X173164177Y-16518568D01*
X173020040Y-16322964D01*
X172799766Y-16091754D01*
X172776563Y-16072214D01*
X176093137Y-16072214D01*
G37*
G36*
X176262886Y-16181147D02*
G01*
X176147649Y-16266993D01*
X176015139Y-16395826D01*
X175863549Y-16579873D01*
X175848406Y-16598436D01*
X175776110Y-16567417D01*
X175786124Y-16552640D01*
X175936384Y-16364931D01*
X176066381Y-16239100D01*
X176178133Y-16159898D01*
X176197184Y-16148540D01*
X176262886Y-16181147D01*
G37*
G36*
X175542858Y-16386555D02*
G01*
X175381524Y-16341993D01*
X175211978Y-16315582D01*
X175030925Y-16306688D01*
X174907582Y-16313771D01*
X174918573Y-17689713D01*
X175362118Y-17948000D01*
X173945754Y-17948000D01*
X173866863Y-17908921D01*
X175177715Y-17908921D01*
X174820876Y-17703512D01*
X174820876Y-16267364D01*
X174976214Y-16267609D01*
X175223521Y-16274071D01*
X175355524Y-16288858D01*
X175454507Y-16321719D01*
X175542858Y-16386555D01*
G37*
G36*
X178857831Y-16177523D02*
G01*
X179024886Y-16249480D01*
X179172817Y-16339056D01*
X179302000Y-16448593D01*
X179426090Y-16605171D01*
X179503089Y-16780596D01*
X179529878Y-16978233D01*
X179509867Y-17157092D01*
X179452618Y-17315350D01*
X179361242Y-17455714D01*
X179237344Y-17580523D01*
X179080960Y-17691667D01*
X178888519Y-17790304D01*
X178677654Y-17865511D01*
X178445806Y-17919280D01*
X178188930Y-17952243D01*
X177901755Y-17963631D01*
X177674518Y-17954033D01*
X177454493Y-17925270D01*
X177238755Y-17876591D01*
X177024923Y-17806217D01*
X177024923Y-17789486D01*
X177205634Y-17847568D01*
X177406299Y-17889569D01*
X177630442Y-17915537D01*
X177882460Y-17924552D01*
X178149916Y-17913869D01*
X178391610Y-17882805D01*
X178612139Y-17831891D01*
X178815040Y-17760373D01*
X179002558Y-17666265D01*
X179156686Y-17560020D01*
X179277751Y-17442549D01*
X179366297Y-17312316D01*
X179421355Y-17167381D01*
X179440485Y-17005466D01*
X179416665Y-16807467D01*
X179348724Y-16633862D01*
X179240450Y-16481199D01*
X179083917Y-16341088D01*
X178894235Y-16230356D01*
X178669899Y-16145121D01*
X178669899Y-16121674D01*
X178857831Y-16177523D01*
G37*
G36*
X178035484Y-16261365D02*
G01*
X178184394Y-16288104D01*
X178310880Y-16331704D01*
X178418573Y-16393882D01*
X178340171Y-16368969D01*
X178161448Y-16323592D01*
X178004010Y-16298777D01*
X177863409Y-16291056D01*
X177693904Y-16302530D01*
X177550886Y-16335795D01*
X177427471Y-16392241D01*
X177321324Y-16477135D01*
X177234987Y-16598908D01*
X177175323Y-16768421D01*
X177152662Y-16998505D01*
X177176417Y-17218455D01*
X177240355Y-17388558D01*
X177335601Y-17518318D01*
X177456580Y-17615777D01*
X177601581Y-17687148D01*
X177566654Y-17706810D01*
X177396725Y-17632998D01*
X177265151Y-17547065D01*
X177169027Y-17447424D01*
X177108481Y-17339373D01*
X177067521Y-17198328D01*
X177052279Y-17017068D01*
X177077497Y-16770307D01*
X177144038Y-16587819D01*
X177240685Y-16456039D01*
X177360166Y-16363535D01*
X177500075Y-16301539D01*
X177663392Y-16264733D01*
X177858036Y-16251977D01*
X178035484Y-16261365D01*
G37*
G36*
X178068233Y-16067202D02*
G01*
X178301632Y-16097893D01*
X178511296Y-16147919D01*
X178701084Y-16217919D01*
X178873353Y-16309863D01*
X179041353Y-16440406D01*
X179165906Y-16593677D01*
X179244897Y-16773855D01*
X179272935Y-16986049D01*
X179245390Y-17186128D01*
X179167712Y-17356026D01*
X179044945Y-17500665D01*
X178878727Y-17624011D01*
X178710125Y-17709737D01*
X178523101Y-17775474D01*
X178315136Y-17822755D01*
X178082339Y-17851908D01*
X177819690Y-17862026D01*
X177563199Y-17851414D01*
X177324420Y-17820144D01*
X177099566Y-17768141D01*
X176885705Y-17694109D01*
X176675032Y-17589087D01*
X176509876Y-17466436D01*
X176388240Y-17323560D01*
X176311513Y-17156746D01*
X176288365Y-16990079D01*
X176890346Y-16990079D01*
X176917042Y-17224964D01*
X176987957Y-17400655D01*
X177092140Y-17529533D01*
X177223119Y-17621850D01*
X177379727Y-17685149D01*
X177566370Y-17723508D01*
X177792334Y-17736974D01*
X177989884Y-17724556D01*
X178158033Y-17688636D01*
X178303932Y-17628408D01*
X178430785Y-17539503D01*
X178518589Y-17441238D01*
X178587716Y-17315824D01*
X178633717Y-17157566D01*
X178650604Y-16960037D01*
X178632827Y-16731601D01*
X178586171Y-16563006D01*
X178519282Y-16441917D01*
X178438601Y-16357612D01*
X178313330Y-16279368D01*
X178169028Y-16225479D01*
X178002149Y-16192944D01*
X177806012Y-16181635D01*
X177606347Y-16192462D01*
X177436750Y-16223484D01*
X177290453Y-16274527D01*
X177163603Y-16348061D01*
X177055753Y-16448909D01*
X176969863Y-16583807D01*
X176911903Y-16761021D01*
X176890346Y-16990079D01*
X176288365Y-16990079D01*
X176284379Y-16961381D01*
X176303011Y-16792542D01*
X176356045Y-16644759D01*
X176440208Y-16515215D01*
X176553681Y-16401473D01*
X176696173Y-16301558D01*
X176871950Y-16213563D01*
X177067438Y-16145920D01*
X177285343Y-16097162D01*
X177529780Y-16067047D01*
X177806012Y-16056583D01*
X178068233Y-16067202D01*
G37*
G36*
X182689447Y-16294365D02*
G01*
X182776993Y-16368758D01*
X182830236Y-16452312D01*
X182848650Y-16547389D01*
X182828055Y-16645202D01*
X182767598Y-16733647D01*
X182666222Y-16815043D01*
X182518938Y-16890860D01*
X182317253Y-16961585D01*
X182049732Y-17026715D01*
X182187719Y-17206080D01*
X182387408Y-17388154D01*
X182655698Y-17574308D01*
X182848969Y-17680149D01*
X183082209Y-17782391D01*
X183359850Y-17881077D01*
X182940396Y-17948271D01*
X182544539Y-18033989D01*
X182170143Y-18138387D01*
X182140834Y-18148157D01*
X182073423Y-18120923D01*
X182437030Y-18013916D01*
X182805362Y-17929746D01*
X183180087Y-17867277D01*
X182897774Y-17757429D01*
X182634133Y-17621845D01*
X182388425Y-17457673D01*
X182161050Y-17261320D01*
X181953500Y-17028547D01*
X181934449Y-17001558D01*
X182216821Y-16936938D01*
X182428748Y-16866242D01*
X182582850Y-16790150D01*
X182688562Y-16708250D01*
X182751494Y-16619033D01*
X182772935Y-16520034D01*
X182752486Y-16434158D01*
X182686467Y-16337681D01*
X182564840Y-16227553D01*
X182689447Y-16294365D01*
G37*
G36*
X181580722Y-16057542D02*
G01*
X181834579Y-16082474D01*
X182055723Y-16122042D01*
X182248789Y-16175529D01*
X182420695Y-16246483D01*
X182536289Y-16322844D01*
X182604137Y-16405973D01*
X182627122Y-16498540D01*
X182600083Y-16600347D01*
X182519224Y-16693894D01*
X182379215Y-16782106D01*
X182201638Y-16854367D01*
X181981622Y-16913672D01*
X181711455Y-16959304D01*
X181848478Y-17127368D01*
X182017426Y-17295144D01*
X182219969Y-17463055D01*
X182449034Y-17623051D01*
X182668320Y-17749115D01*
X182878692Y-17846028D01*
X182823981Y-17854943D01*
X182425667Y-17937036D01*
X182027994Y-18049238D01*
X181976947Y-18066091D01*
X181961316Y-18016265D01*
X181821673Y-17664721D01*
X181657441Y-17367773D01*
X181472830Y-17118795D01*
X181465014Y-17108903D01*
X181264471Y-17145178D01*
X180964805Y-17177658D01*
X180949418Y-17178512D01*
X180949418Y-17687392D01*
X181440590Y-17948000D01*
X180005663Y-17948000D01*
X179951197Y-17908921D01*
X181249103Y-17908921D01*
X180862711Y-17700215D01*
X180862711Y-17141387D01*
X180926947Y-17136747D01*
X181222034Y-17112168D01*
X181439124Y-17076785D01*
X181423493Y-17059444D01*
X181396138Y-17019632D01*
X181385391Y-17006688D01*
X181183008Y-17028492D01*
X180751581Y-17059444D01*
X180728133Y-17061520D01*
X180728133Y-17669441D01*
X181050290Y-17838579D01*
X179804163Y-17838579D01*
X180171504Y-17669318D01*
X180171504Y-17213806D01*
X180158559Y-17214660D01*
X179873284Y-17254228D01*
X179844463Y-17259723D01*
X179813688Y-17225041D01*
X180010792Y-17191946D01*
X180155628Y-17173994D01*
X180171504Y-17172040D01*
X180171504Y-17107560D01*
X180010227Y-17115296D01*
X179779983Y-17142975D01*
X179737973Y-17150669D01*
X179794882Y-17054071D01*
X179832983Y-16992399D01*
X179842997Y-16977256D01*
X180039857Y-16978844D01*
X180168817Y-16977501D01*
X180168817Y-16310229D01*
X179914316Y-16247581D01*
X179876947Y-16240620D01*
X180012496Y-16206914D01*
X180728133Y-16206914D01*
X180728133Y-16937567D01*
X180862711Y-16931461D01*
X180862711Y-16258816D01*
X181027167Y-16242349D01*
X181231274Y-16236346D01*
X181492950Y-16250003D01*
X181697450Y-16287750D01*
X181857731Y-16347597D01*
X181981344Y-16431496D01*
X181754336Y-16348012D01*
X181597394Y-16306199D01*
X181436698Y-16283636D01*
X181233960Y-16275424D01*
X181074533Y-16279872D01*
X180949418Y-16291911D01*
X180949418Y-16929995D01*
X180970178Y-16928163D01*
X181323253Y-16885246D01*
X181581549Y-16833262D01*
X181765189Y-16774657D01*
X181909811Y-16697375D01*
X181994849Y-16608171D01*
X182024086Y-16502937D01*
X181998029Y-16408731D01*
X181921783Y-16327529D01*
X181791567Y-16255885D01*
X181626941Y-16202571D01*
X181433563Y-16169730D01*
X181203919Y-16158188D01*
X180933923Y-16171275D01*
X180728133Y-16206914D01*
X180012496Y-16206914D01*
X180216999Y-16156062D01*
X180563799Y-16096443D01*
X180920006Y-16060751D01*
X181288671Y-16048767D01*
X181580722Y-16057542D01*
G37*
D11*
X197468609Y-57782782D02*
X197468609Y-58116115D01*
X197992419Y-58116115D02*
X196992419Y-58116115D01*
X196992419Y-58116115D02*
X196992419Y-57639925D01*
X197992419Y-56687544D02*
X197516228Y-57020877D01*
X197992419Y-57258972D02*
X196992419Y-57258972D01*
X196992419Y-57258972D02*
X196992419Y-56878020D01*
X196992419Y-56878020D02*
X197040038Y-56782782D01*
X197040038Y-56782782D02*
X197087657Y-56735163D01*
X197087657Y-56735163D02*
X197182895Y-56687544D01*
X197182895Y-56687544D02*
X197325752Y-56687544D01*
X197325752Y-56687544D02*
X197420990Y-56735163D01*
X197420990Y-56735163D02*
X197468609Y-56782782D01*
X197468609Y-56782782D02*
X197516228Y-56878020D01*
X197516228Y-56878020D02*
X197516228Y-57258972D01*
X197468609Y-56258972D02*
X197468609Y-55925639D01*
X197992419Y-55782782D02*
X197992419Y-56258972D01*
X197992419Y-56258972D02*
X196992419Y-56258972D01*
X196992419Y-56258972D02*
X196992419Y-55782782D01*
X198087657Y-54687544D02*
X198040038Y-54782782D01*
X198040038Y-54782782D02*
X197944800Y-54878020D01*
X197944800Y-54878020D02*
X197801942Y-55020877D01*
X197801942Y-55020877D02*
X197754323Y-55116115D01*
X197754323Y-55116115D02*
X197754323Y-55211353D01*
X197992419Y-55163734D02*
X197944800Y-55258972D01*
X197944800Y-55258972D02*
X197849561Y-55354210D01*
X197849561Y-55354210D02*
X197659085Y-55401829D01*
X197659085Y-55401829D02*
X197325752Y-55401829D01*
X197325752Y-55401829D02*
X197135276Y-55354210D01*
X197135276Y-55354210D02*
X197040038Y-55258972D01*
X197040038Y-55258972D02*
X196992419Y-55163734D01*
X196992419Y-55163734D02*
X196992419Y-54973258D01*
X196992419Y-54973258D02*
X197040038Y-54878020D01*
X197040038Y-54878020D02*
X197135276Y-54782782D01*
X197135276Y-54782782D02*
X197325752Y-54735163D01*
X197325752Y-54735163D02*
X197659085Y-54735163D01*
X197659085Y-54735163D02*
X197849561Y-54782782D01*
X197849561Y-54782782D02*
X197944800Y-54878020D01*
X197944800Y-54878020D02*
X197992419Y-54973258D01*
X197992419Y-54973258D02*
X197992419Y-55163734D01*
X196992419Y-54306591D02*
X197801942Y-54306591D01*
X197801942Y-54306591D02*
X197897180Y-54258972D01*
X197897180Y-54258972D02*
X197944800Y-54211353D01*
X197944800Y-54211353D02*
X197992419Y-54116115D01*
X197992419Y-54116115D02*
X197992419Y-53925639D01*
X197992419Y-53925639D02*
X197944800Y-53830401D01*
X197944800Y-53830401D02*
X197897180Y-53782782D01*
X197897180Y-53782782D02*
X197801942Y-53735163D01*
X197801942Y-53735163D02*
X196992419Y-53735163D01*
X197468609Y-53258972D02*
X197468609Y-52925639D01*
X197992419Y-52782782D02*
X197992419Y-53258972D01*
X197992419Y-53258972D02*
X196992419Y-53258972D01*
X196992419Y-53258972D02*
X196992419Y-52782782D01*
X197992419Y-52354210D02*
X196992419Y-52354210D01*
X196992419Y-52354210D02*
X197992419Y-51782782D01*
X197992419Y-51782782D02*
X196992419Y-51782782D01*
X197897180Y-50735163D02*
X197944800Y-50782782D01*
X197944800Y-50782782D02*
X197992419Y-50925639D01*
X197992419Y-50925639D02*
X197992419Y-51020877D01*
X197992419Y-51020877D02*
X197944800Y-51163734D01*
X197944800Y-51163734D02*
X197849561Y-51258972D01*
X197849561Y-51258972D02*
X197754323Y-51306591D01*
X197754323Y-51306591D02*
X197563847Y-51354210D01*
X197563847Y-51354210D02*
X197420990Y-51354210D01*
X197420990Y-51354210D02*
X197230514Y-51306591D01*
X197230514Y-51306591D02*
X197135276Y-51258972D01*
X197135276Y-51258972D02*
X197040038Y-51163734D01*
X197040038Y-51163734D02*
X196992419Y-51020877D01*
X196992419Y-51020877D02*
X196992419Y-50925639D01*
X196992419Y-50925639D02*
X197040038Y-50782782D01*
X197040038Y-50782782D02*
X197087657Y-50735163D01*
X197516228Y-50116115D02*
X197992419Y-50116115D01*
X196992419Y-50449448D02*
X197516228Y-50116115D01*
X197516228Y-50116115D02*
X196992419Y-49782782D01*
X197706704Y-48735162D02*
X197706704Y-48258972D01*
X197992419Y-48830400D02*
X196992419Y-48497067D01*
X196992419Y-48497067D02*
X197992419Y-48163734D01*
X197992419Y-47830400D02*
X196992419Y-47830400D01*
X196992419Y-47830400D02*
X196992419Y-47592305D01*
X196992419Y-47592305D02*
X197040038Y-47449448D01*
X197040038Y-47449448D02*
X197135276Y-47354210D01*
X197135276Y-47354210D02*
X197230514Y-47306591D01*
X197230514Y-47306591D02*
X197420990Y-47258972D01*
X197420990Y-47258972D02*
X197563847Y-47258972D01*
X197563847Y-47258972D02*
X197754323Y-47306591D01*
X197754323Y-47306591D02*
X197849561Y-47354210D01*
X197849561Y-47354210D02*
X197944800Y-47449448D01*
X197944800Y-47449448D02*
X197992419Y-47592305D01*
X197992419Y-47592305D02*
X197992419Y-47830400D01*
X196992419Y-46544686D02*
X197706704Y-46544686D01*
X197706704Y-46544686D02*
X197849561Y-46592305D01*
X197849561Y-46592305D02*
X197944800Y-46687543D01*
X197944800Y-46687543D02*
X197992419Y-46830400D01*
X197992419Y-46830400D02*
X197992419Y-46925638D01*
X191375312Y-38385180D02*
X191327693Y-38432800D01*
X191327693Y-38432800D02*
X191184836Y-38480419D01*
X191184836Y-38480419D02*
X191089598Y-38480419D01*
X191089598Y-38480419D02*
X190946741Y-38432800D01*
X190946741Y-38432800D02*
X190851503Y-38337561D01*
X190851503Y-38337561D02*
X190803884Y-38242323D01*
X190803884Y-38242323D02*
X190756265Y-38051847D01*
X190756265Y-38051847D02*
X190756265Y-37908990D01*
X190756265Y-37908990D02*
X190803884Y-37718514D01*
X190803884Y-37718514D02*
X190851503Y-37623276D01*
X190851503Y-37623276D02*
X190946741Y-37528038D01*
X190946741Y-37528038D02*
X191089598Y-37480419D01*
X191089598Y-37480419D02*
X191184836Y-37480419D01*
X191184836Y-37480419D02*
X191327693Y-37528038D01*
X191327693Y-37528038D02*
X191375312Y-37575657D01*
X191994360Y-37480419D02*
X192184836Y-37480419D01*
X192184836Y-37480419D02*
X192280074Y-37528038D01*
X192280074Y-37528038D02*
X192375312Y-37623276D01*
X192375312Y-37623276D02*
X192422931Y-37813752D01*
X192422931Y-37813752D02*
X192422931Y-38147085D01*
X192422931Y-38147085D02*
X192375312Y-38337561D01*
X192375312Y-38337561D02*
X192280074Y-38432800D01*
X192280074Y-38432800D02*
X192184836Y-38480419D01*
X192184836Y-38480419D02*
X191994360Y-38480419D01*
X191994360Y-38480419D02*
X191899122Y-38432800D01*
X191899122Y-38432800D02*
X191803884Y-38337561D01*
X191803884Y-38337561D02*
X191756265Y-38147085D01*
X191756265Y-38147085D02*
X191756265Y-37813752D01*
X191756265Y-37813752D02*
X191803884Y-37623276D01*
X191803884Y-37623276D02*
X191899122Y-37528038D01*
X191899122Y-37528038D02*
X191994360Y-37480419D01*
X192851503Y-38480419D02*
X192851503Y-37480419D01*
X192851503Y-37480419D02*
X193184836Y-38194704D01*
X193184836Y-38194704D02*
X193518169Y-37480419D01*
X193518169Y-37480419D02*
X193518169Y-38480419D01*
X193994360Y-38480419D02*
X193994360Y-37480419D01*
X193994360Y-37480419D02*
X194327693Y-38194704D01*
X194327693Y-38194704D02*
X194661026Y-37480419D01*
X194661026Y-37480419D02*
X194661026Y-38480419D01*
X195327693Y-37480419D02*
X195518169Y-37480419D01*
X195518169Y-37480419D02*
X195613407Y-37528038D01*
X195613407Y-37528038D02*
X195708645Y-37623276D01*
X195708645Y-37623276D02*
X195756264Y-37813752D01*
X195756264Y-37813752D02*
X195756264Y-38147085D01*
X195756264Y-38147085D02*
X195708645Y-38337561D01*
X195708645Y-38337561D02*
X195613407Y-38432800D01*
X195613407Y-38432800D02*
X195518169Y-38480419D01*
X195518169Y-38480419D02*
X195327693Y-38480419D01*
X195327693Y-38480419D02*
X195232455Y-38432800D01*
X195232455Y-38432800D02*
X195137217Y-38337561D01*
X195137217Y-38337561D02*
X195089598Y-38147085D01*
X195089598Y-38147085D02*
X195089598Y-37813752D01*
X195089598Y-37813752D02*
X195137217Y-37623276D01*
X195137217Y-37623276D02*
X195232455Y-37528038D01*
X195232455Y-37528038D02*
X195327693Y-37480419D01*
X196184836Y-38480419D02*
X196184836Y-37480419D01*
X196184836Y-37480419D02*
X196756264Y-38480419D01*
X196756264Y-38480419D02*
X196756264Y-37480419D01*
X191010265Y-33606800D02*
X191153122Y-33654419D01*
X191153122Y-33654419D02*
X191391217Y-33654419D01*
X191391217Y-33654419D02*
X191486455Y-33606800D01*
X191486455Y-33606800D02*
X191534074Y-33559180D01*
X191534074Y-33559180D02*
X191581693Y-33463942D01*
X191581693Y-33463942D02*
X191581693Y-33368704D01*
X191581693Y-33368704D02*
X191534074Y-33273466D01*
X191534074Y-33273466D02*
X191486455Y-33225847D01*
X191486455Y-33225847D02*
X191391217Y-33178228D01*
X191391217Y-33178228D02*
X191200741Y-33130609D01*
X191200741Y-33130609D02*
X191105503Y-33082990D01*
X191105503Y-33082990D02*
X191057884Y-33035371D01*
X191057884Y-33035371D02*
X191010265Y-32940133D01*
X191010265Y-32940133D02*
X191010265Y-32844895D01*
X191010265Y-32844895D02*
X191057884Y-32749657D01*
X191057884Y-32749657D02*
X191105503Y-32702038D01*
X191105503Y-32702038D02*
X191200741Y-32654419D01*
X191200741Y-32654419D02*
X191438836Y-32654419D01*
X191438836Y-32654419D02*
X191581693Y-32702038D01*
X192010265Y-33654419D02*
X192010265Y-32654419D01*
X192486455Y-33654419D02*
X192486455Y-32654419D01*
X192486455Y-32654419D02*
X193057883Y-33654419D01*
X193057883Y-33654419D02*
X193057883Y-32654419D01*
X193534074Y-33130609D02*
X193867407Y-33130609D01*
X194010264Y-33654419D02*
X193534074Y-33654419D01*
X193534074Y-33654419D02*
X193534074Y-32654419D01*
X193534074Y-32654419D02*
X194010264Y-32654419D01*
X194295979Y-33273466D02*
X194343598Y-33225847D01*
X194343598Y-33225847D02*
X194438836Y-33178228D01*
X194438836Y-33178228D02*
X194629312Y-33273466D01*
X194629312Y-33273466D02*
X194724550Y-33225847D01*
X194724550Y-33225847D02*
X194772169Y-33178228D01*
X191010265Y-28780800D02*
X191153122Y-28828419D01*
X191153122Y-28828419D02*
X191391217Y-28828419D01*
X191391217Y-28828419D02*
X191486455Y-28780800D01*
X191486455Y-28780800D02*
X191534074Y-28733180D01*
X191534074Y-28733180D02*
X191581693Y-28637942D01*
X191581693Y-28637942D02*
X191581693Y-28542704D01*
X191581693Y-28542704D02*
X191534074Y-28447466D01*
X191534074Y-28447466D02*
X191486455Y-28399847D01*
X191486455Y-28399847D02*
X191391217Y-28352228D01*
X191391217Y-28352228D02*
X191200741Y-28304609D01*
X191200741Y-28304609D02*
X191105503Y-28256990D01*
X191105503Y-28256990D02*
X191057884Y-28209371D01*
X191057884Y-28209371D02*
X191010265Y-28114133D01*
X191010265Y-28114133D02*
X191010265Y-28018895D01*
X191010265Y-28018895D02*
X191057884Y-27923657D01*
X191057884Y-27923657D02*
X191105503Y-27876038D01*
X191105503Y-27876038D02*
X191200741Y-27828419D01*
X191200741Y-27828419D02*
X191438836Y-27828419D01*
X191438836Y-27828419D02*
X191581693Y-27876038D01*
X192676931Y-28923657D02*
X192581693Y-28876038D01*
X192581693Y-28876038D02*
X192486455Y-28780800D01*
X192486455Y-28780800D02*
X192343598Y-28637942D01*
X192343598Y-28637942D02*
X192248360Y-28590323D01*
X192248360Y-28590323D02*
X192153122Y-28590323D01*
X192200741Y-28828419D02*
X192105503Y-28780800D01*
X192105503Y-28780800D02*
X192010265Y-28685561D01*
X192010265Y-28685561D02*
X191962646Y-28495085D01*
X191962646Y-28495085D02*
X191962646Y-28161752D01*
X191962646Y-28161752D02*
X192010265Y-27971276D01*
X192010265Y-27971276D02*
X192105503Y-27876038D01*
X192105503Y-27876038D02*
X192200741Y-27828419D01*
X192200741Y-27828419D02*
X192391217Y-27828419D01*
X192391217Y-27828419D02*
X192486455Y-27876038D01*
X192486455Y-27876038D02*
X192581693Y-27971276D01*
X192581693Y-27971276D02*
X192629312Y-28161752D01*
X192629312Y-28161752D02*
X192629312Y-28495085D01*
X192629312Y-28495085D02*
X192581693Y-28685561D01*
X192581693Y-28685561D02*
X192486455Y-28780800D01*
X192486455Y-28780800D02*
X192391217Y-28828419D01*
X192391217Y-28828419D02*
X192200741Y-28828419D01*
X193057884Y-27828419D02*
X193057884Y-28637942D01*
X193057884Y-28637942D02*
X193105503Y-28733180D01*
X193105503Y-28733180D02*
X193153122Y-28780800D01*
X193153122Y-28780800D02*
X193248360Y-28828419D01*
X193248360Y-28828419D02*
X193438836Y-28828419D01*
X193438836Y-28828419D02*
X193534074Y-28780800D01*
X193534074Y-28780800D02*
X193581693Y-28733180D01*
X193581693Y-28733180D02*
X193629312Y-28637942D01*
X193629312Y-28637942D02*
X193629312Y-27828419D01*
X194057884Y-28542704D02*
X194534074Y-28542704D01*
X193962646Y-28828419D02*
X194295979Y-27828419D01*
X194295979Y-27828419D02*
X194629312Y-28828419D01*
X195534074Y-28828419D02*
X195200741Y-28352228D01*
X194962646Y-28828419D02*
X194962646Y-27828419D01*
X194962646Y-27828419D02*
X195343598Y-27828419D01*
X195343598Y-27828419D02*
X195438836Y-27876038D01*
X195438836Y-27876038D02*
X195486455Y-27923657D01*
X195486455Y-27923657D02*
X195534074Y-28018895D01*
X195534074Y-28018895D02*
X195534074Y-28161752D01*
X195534074Y-28161752D02*
X195486455Y-28256990D01*
X195486455Y-28256990D02*
X195438836Y-28304609D01*
X195438836Y-28304609D02*
X195343598Y-28352228D01*
X195343598Y-28352228D02*
X194962646Y-28352228D01*
X195962646Y-28304609D02*
X196295979Y-28304609D01*
X196438836Y-28828419D02*
X195962646Y-28828419D01*
X195962646Y-28828419D02*
X195962646Y-27828419D01*
X195962646Y-27828419D02*
X196438836Y-27828419D01*
X196724551Y-28447466D02*
X196772170Y-28399847D01*
X196772170Y-28399847D02*
X196867408Y-28352228D01*
X196867408Y-28352228D02*
X197057884Y-28447466D01*
X197057884Y-28447466D02*
X197153122Y-28399847D01*
X197153122Y-28399847D02*
X197200741Y-28352228D01*
X190915027Y-23002419D02*
X191486455Y-23002419D01*
X191200741Y-24002419D02*
X191200741Y-23002419D01*
X192391217Y-24002419D02*
X192057884Y-23526228D01*
X191819789Y-24002419D02*
X191819789Y-23002419D01*
X191819789Y-23002419D02*
X192200741Y-23002419D01*
X192200741Y-23002419D02*
X192295979Y-23050038D01*
X192295979Y-23050038D02*
X192343598Y-23097657D01*
X192343598Y-23097657D02*
X192391217Y-23192895D01*
X192391217Y-23192895D02*
X192391217Y-23335752D01*
X192391217Y-23335752D02*
X192343598Y-23430990D01*
X192343598Y-23430990D02*
X192295979Y-23478609D01*
X192295979Y-23478609D02*
X192200741Y-23526228D01*
X192200741Y-23526228D02*
X191819789Y-23526228D01*
X192819789Y-24002419D02*
X192819789Y-23002419D01*
X193248360Y-23716704D02*
X193724550Y-23716704D01*
X193153122Y-24002419D02*
X193486455Y-23002419D01*
X193486455Y-23002419D02*
X193819788Y-24002419D01*
X194153122Y-24002419D02*
X194153122Y-23002419D01*
X194153122Y-23002419D02*
X194724550Y-24002419D01*
X194724550Y-24002419D02*
X194724550Y-23002419D01*
X195724550Y-23050038D02*
X195629312Y-23002419D01*
X195629312Y-23002419D02*
X195486455Y-23002419D01*
X195486455Y-23002419D02*
X195343598Y-23050038D01*
X195343598Y-23050038D02*
X195248360Y-23145276D01*
X195248360Y-23145276D02*
X195200741Y-23240514D01*
X195200741Y-23240514D02*
X195153122Y-23430990D01*
X195153122Y-23430990D02*
X195153122Y-23573847D01*
X195153122Y-23573847D02*
X195200741Y-23764323D01*
X195200741Y-23764323D02*
X195248360Y-23859561D01*
X195248360Y-23859561D02*
X195343598Y-23954800D01*
X195343598Y-23954800D02*
X195486455Y-24002419D01*
X195486455Y-24002419D02*
X195581693Y-24002419D01*
X195581693Y-24002419D02*
X195724550Y-23954800D01*
X195724550Y-23954800D02*
X195772169Y-23907180D01*
X195772169Y-23907180D02*
X195772169Y-23573847D01*
X195772169Y-23573847D02*
X195581693Y-23573847D01*
X196676931Y-24002419D02*
X196200741Y-24002419D01*
X196200741Y-24002419D02*
X196200741Y-23002419D01*
X197010265Y-23478609D02*
X197343598Y-23478609D01*
X197486455Y-24002419D02*
X197010265Y-24002419D01*
X197010265Y-24002419D02*
X197010265Y-23002419D01*
X197010265Y-23002419D02*
X197486455Y-23002419D01*
X197772170Y-23621466D02*
X197819789Y-23573847D01*
X197819789Y-23573847D02*
X197915027Y-23526228D01*
X197915027Y-23526228D02*
X198105503Y-23621466D01*
X198105503Y-23621466D02*
X198200741Y-23573847D01*
X198200741Y-23573847D02*
X198248360Y-23526228D01*
X113603693Y-46354419D02*
X113032265Y-46354419D01*
X113317979Y-46354419D02*
X113317979Y-45354419D01*
X113317979Y-45354419D02*
X113222741Y-45497276D01*
X113222741Y-45497276D02*
X113127503Y-45592514D01*
X113127503Y-45592514D02*
X113032265Y-45640133D01*
X113984646Y-45449657D02*
X114032265Y-45402038D01*
X114032265Y-45402038D02*
X114127503Y-45354419D01*
X114127503Y-45354419D02*
X114365598Y-45354419D01*
X114365598Y-45354419D02*
X114460836Y-45402038D01*
X114460836Y-45402038D02*
X114508455Y-45449657D01*
X114508455Y-45449657D02*
X114556074Y-45544895D01*
X114556074Y-45544895D02*
X114556074Y-45640133D01*
X114556074Y-45640133D02*
X114508455Y-45782990D01*
X114508455Y-45782990D02*
X113937027Y-46354419D01*
X113937027Y-46354419D02*
X114556074Y-46354419D01*
X114889408Y-45687752D02*
X115127503Y-46354419D01*
X115127503Y-46354419D02*
X115365598Y-45687752D01*
X115746551Y-45973466D02*
X116508456Y-45973466D01*
X113603693Y-41274419D02*
X113032265Y-41274419D01*
X113317979Y-41274419D02*
X113317979Y-40274419D01*
X113317979Y-40274419D02*
X113222741Y-40417276D01*
X113222741Y-40417276D02*
X113127503Y-40512514D01*
X113127503Y-40512514D02*
X113032265Y-40560133D01*
X113984646Y-40369657D02*
X114032265Y-40322038D01*
X114032265Y-40322038D02*
X114127503Y-40274419D01*
X114127503Y-40274419D02*
X114365598Y-40274419D01*
X114365598Y-40274419D02*
X114460836Y-40322038D01*
X114460836Y-40322038D02*
X114508455Y-40369657D01*
X114508455Y-40369657D02*
X114556074Y-40464895D01*
X114556074Y-40464895D02*
X114556074Y-40560133D01*
X114556074Y-40560133D02*
X114508455Y-40702990D01*
X114508455Y-40702990D02*
X113937027Y-41274419D01*
X113937027Y-41274419D02*
X114556074Y-41274419D01*
X114889408Y-40607752D02*
X115127503Y-41274419D01*
X115127503Y-41274419D02*
X115365598Y-40607752D01*
X115746551Y-40893466D02*
X116508456Y-40893466D01*
X116127503Y-41274419D02*
X116127503Y-40512514D01*
D12*
X167132095Y-47161819D02*
X167132095Y-47971342D01*
X167132095Y-47971342D02*
X167179714Y-48066580D01*
X167179714Y-48066580D02*
X167227333Y-48114200D01*
X167227333Y-48114200D02*
X167322571Y-48161819D01*
X167322571Y-48161819D02*
X167513047Y-48161819D01*
X167513047Y-48161819D02*
X167608285Y-48114200D01*
X167608285Y-48114200D02*
X167655904Y-48066580D01*
X167655904Y-48066580D02*
X167703523Y-47971342D01*
X167703523Y-47971342D02*
X167703523Y-47161819D01*
X168132095Y-47257057D02*
X168179714Y-47209438D01*
X168179714Y-47209438D02*
X168274952Y-47161819D01*
X168274952Y-47161819D02*
X168513047Y-47161819D01*
X168513047Y-47161819D02*
X168608285Y-47209438D01*
X168608285Y-47209438D02*
X168655904Y-47257057D01*
X168655904Y-47257057D02*
X168703523Y-47352295D01*
X168703523Y-47352295D02*
X168703523Y-47447533D01*
X168703523Y-47447533D02*
X168655904Y-47590390D01*
X168655904Y-47590390D02*
X168084476Y-48161819D01*
X168084476Y-48161819D02*
X168703523Y-48161819D01*
X190496762Y-42324820D02*
X190163429Y-41848629D01*
X189925334Y-42324820D02*
X189925334Y-41324820D01*
X189925334Y-41324820D02*
X190306286Y-41324820D01*
X190306286Y-41324820D02*
X190401524Y-41372439D01*
X190401524Y-41372439D02*
X190449143Y-41420058D01*
X190449143Y-41420058D02*
X190496762Y-41515296D01*
X190496762Y-41515296D02*
X190496762Y-41658153D01*
X190496762Y-41658153D02*
X190449143Y-41753391D01*
X190449143Y-41753391D02*
X190401524Y-41801010D01*
X190401524Y-41801010D02*
X190306286Y-41848629D01*
X190306286Y-41848629D02*
X189925334Y-41848629D01*
X190782477Y-41324820D02*
X191115810Y-42324820D01*
X191115810Y-42324820D02*
X191449143Y-41324820D01*
X191734858Y-41420058D02*
X191782477Y-41372439D01*
X191782477Y-41372439D02*
X191877715Y-41324820D01*
X191877715Y-41324820D02*
X192115810Y-41324820D01*
X192115810Y-41324820D02*
X192211048Y-41372439D01*
X192211048Y-41372439D02*
X192258667Y-41420058D01*
X192258667Y-41420058D02*
X192306286Y-41515296D01*
X192306286Y-41515296D02*
X192306286Y-41610534D01*
X192306286Y-41610534D02*
X192258667Y-41753391D01*
X192258667Y-41753391D02*
X191687239Y-42324820D01*
X191687239Y-42324820D02*
X192306286Y-42324820D01*
X114998666Y-15592819D02*
X114665333Y-15116628D01*
X114427238Y-15592819D02*
X114427238Y-14592819D01*
X114427238Y-14592819D02*
X114808190Y-14592819D01*
X114808190Y-14592819D02*
X114903428Y-14640438D01*
X114903428Y-14640438D02*
X114951047Y-14688057D01*
X114951047Y-14688057D02*
X114998666Y-14783295D01*
X114998666Y-14783295D02*
X114998666Y-14926152D01*
X114998666Y-14926152D02*
X114951047Y-15021390D01*
X114951047Y-15021390D02*
X114903428Y-15069009D01*
X114903428Y-15069009D02*
X114808190Y-15116628D01*
X114808190Y-15116628D02*
X114427238Y-15116628D01*
X115427238Y-15069009D02*
X115760571Y-15069009D01*
X115903428Y-15592819D02*
X115427238Y-15592819D01*
X115427238Y-15592819D02*
X115427238Y-14592819D01*
X115427238Y-14592819D02*
X115903428Y-14592819D01*
X116665333Y-15069009D02*
X116332000Y-15069009D01*
X116332000Y-15592819D02*
X116332000Y-14592819D01*
X116332000Y-14592819D02*
X116808190Y-14592819D01*
X117332000Y-14592819D02*
X117332000Y-14830914D01*
X117093905Y-14735676D02*
X117332000Y-14830914D01*
X117332000Y-14830914D02*
X117570095Y-14735676D01*
X117189143Y-15021390D02*
X117332000Y-14830914D01*
X117332000Y-14830914D02*
X117474857Y-15021390D01*
X118093905Y-14592819D02*
X118093905Y-14830914D01*
X117855810Y-14735676D02*
X118093905Y-14830914D01*
X118093905Y-14830914D02*
X118332000Y-14735676D01*
X117951048Y-15021390D02*
X118093905Y-14830914D01*
X118093905Y-14830914D02*
X118236762Y-15021390D01*
X114998666Y-63852819D02*
X114665333Y-63376628D01*
X114427238Y-63852819D02*
X114427238Y-62852819D01*
X114427238Y-62852819D02*
X114808190Y-62852819D01*
X114808190Y-62852819D02*
X114903428Y-62900438D01*
X114903428Y-62900438D02*
X114951047Y-62948057D01*
X114951047Y-62948057D02*
X114998666Y-63043295D01*
X114998666Y-63043295D02*
X114998666Y-63186152D01*
X114998666Y-63186152D02*
X114951047Y-63281390D01*
X114951047Y-63281390D02*
X114903428Y-63329009D01*
X114903428Y-63329009D02*
X114808190Y-63376628D01*
X114808190Y-63376628D02*
X114427238Y-63376628D01*
X115427238Y-63329009D02*
X115760571Y-63329009D01*
X115903428Y-63852819D02*
X115427238Y-63852819D01*
X115427238Y-63852819D02*
X115427238Y-62852819D01*
X115427238Y-62852819D02*
X115903428Y-62852819D01*
X116665333Y-63329009D02*
X116332000Y-63329009D01*
X116332000Y-63852819D02*
X116332000Y-62852819D01*
X116332000Y-62852819D02*
X116808190Y-62852819D01*
X117332000Y-62852819D02*
X117332000Y-63090914D01*
X117093905Y-62995676D02*
X117332000Y-63090914D01*
X117332000Y-63090914D02*
X117570095Y-62995676D01*
X117189143Y-63281390D02*
X117332000Y-63090914D01*
X117332000Y-63090914D02*
X117474857Y-63281390D01*
X118093905Y-62852819D02*
X118093905Y-63090914D01*
X117855810Y-62995676D02*
X118093905Y-63090914D01*
X118093905Y-63090914D02*
X118332000Y-62995676D01*
X117951048Y-63281390D02*
X118093905Y-63090914D01*
X118093905Y-63090914D02*
X118236762Y-63281390D01*
X193738666Y-64106819D02*
X193405333Y-63630628D01*
X193167238Y-64106819D02*
X193167238Y-63106819D01*
X193167238Y-63106819D02*
X193548190Y-63106819D01*
X193548190Y-63106819D02*
X193643428Y-63154438D01*
X193643428Y-63154438D02*
X193691047Y-63202057D01*
X193691047Y-63202057D02*
X193738666Y-63297295D01*
X193738666Y-63297295D02*
X193738666Y-63440152D01*
X193738666Y-63440152D02*
X193691047Y-63535390D01*
X193691047Y-63535390D02*
X193643428Y-63583009D01*
X193643428Y-63583009D02*
X193548190Y-63630628D01*
X193548190Y-63630628D02*
X193167238Y-63630628D01*
X194167238Y-63583009D02*
X194500571Y-63583009D01*
X194643428Y-64106819D02*
X194167238Y-64106819D01*
X194167238Y-64106819D02*
X194167238Y-63106819D01*
X194167238Y-63106819D02*
X194643428Y-63106819D01*
X195405333Y-63583009D02*
X195072000Y-63583009D01*
X195072000Y-64106819D02*
X195072000Y-63106819D01*
X195072000Y-63106819D02*
X195548190Y-63106819D01*
X196072000Y-63106819D02*
X196072000Y-63344914D01*
X195833905Y-63249676D02*
X196072000Y-63344914D01*
X196072000Y-63344914D02*
X196310095Y-63249676D01*
X195929143Y-63535390D02*
X196072000Y-63344914D01*
X196072000Y-63344914D02*
X196214857Y-63535390D01*
X196833905Y-63106819D02*
X196833905Y-63344914D01*
X196595810Y-63249676D02*
X196833905Y-63344914D01*
X196833905Y-63344914D02*
X197072000Y-63249676D01*
X196691048Y-63535390D02*
X196833905Y-63344914D01*
X196833905Y-63344914D02*
X196976762Y-63535390D01*
X193484666Y-15338819D02*
X193151333Y-14862628D01*
X192913238Y-15338819D02*
X192913238Y-14338819D01*
X192913238Y-14338819D02*
X193294190Y-14338819D01*
X193294190Y-14338819D02*
X193389428Y-14386438D01*
X193389428Y-14386438D02*
X193437047Y-14434057D01*
X193437047Y-14434057D02*
X193484666Y-14529295D01*
X193484666Y-14529295D02*
X193484666Y-14672152D01*
X193484666Y-14672152D02*
X193437047Y-14767390D01*
X193437047Y-14767390D02*
X193389428Y-14815009D01*
X193389428Y-14815009D02*
X193294190Y-14862628D01*
X193294190Y-14862628D02*
X192913238Y-14862628D01*
X193913238Y-14815009D02*
X194246571Y-14815009D01*
X194389428Y-15338819D02*
X193913238Y-15338819D01*
X193913238Y-15338819D02*
X193913238Y-14338819D01*
X193913238Y-14338819D02*
X194389428Y-14338819D01*
X195151333Y-14815009D02*
X194818000Y-14815009D01*
X194818000Y-15338819D02*
X194818000Y-14338819D01*
X194818000Y-14338819D02*
X195294190Y-14338819D01*
X195818000Y-14338819D02*
X195818000Y-14576914D01*
X195579905Y-14481676D02*
X195818000Y-14576914D01*
X195818000Y-14576914D02*
X196056095Y-14481676D01*
X195675143Y-14767390D02*
X195818000Y-14576914D01*
X195818000Y-14576914D02*
X195960857Y-14767390D01*
X196579905Y-14338819D02*
X196579905Y-14576914D01*
X196341810Y-14481676D02*
X196579905Y-14576914D01*
X196579905Y-14576914D02*
X196818000Y-14481676D01*
X196437048Y-14767390D02*
X196579905Y-14576914D01*
X196579905Y-14576914D02*
X196722762Y-14767390D01*
X142581333Y-27706819D02*
X142248000Y-27230628D01*
X142009905Y-27706819D02*
X142009905Y-26706819D01*
X142009905Y-26706819D02*
X142390857Y-26706819D01*
X142390857Y-26706819D02*
X142486095Y-26754438D01*
X142486095Y-26754438D02*
X142533714Y-26802057D01*
X142533714Y-26802057D02*
X142581333Y-26897295D01*
X142581333Y-26897295D02*
X142581333Y-27040152D01*
X142581333Y-27040152D02*
X142533714Y-27135390D01*
X142533714Y-27135390D02*
X142486095Y-27183009D01*
X142486095Y-27183009D02*
X142390857Y-27230628D01*
X142390857Y-27230628D02*
X142009905Y-27230628D01*
X142962286Y-26802057D02*
X143009905Y-26754438D01*
X143009905Y-26754438D02*
X143105143Y-26706819D01*
X143105143Y-26706819D02*
X143343238Y-26706819D01*
X143343238Y-26706819D02*
X143438476Y-26754438D01*
X143438476Y-26754438D02*
X143486095Y-26802057D01*
X143486095Y-26802057D02*
X143533714Y-26897295D01*
X143533714Y-26897295D02*
X143533714Y-26992533D01*
X143533714Y-26992533D02*
X143486095Y-27135390D01*
X143486095Y-27135390D02*
X142914667Y-27706819D01*
X142914667Y-27706819D02*
X143533714Y-27706819D01*
X143089333Y-33040819D02*
X142756000Y-32564628D01*
X142517905Y-33040819D02*
X142517905Y-32040819D01*
X142517905Y-32040819D02*
X142898857Y-32040819D01*
X142898857Y-32040819D02*
X142994095Y-32088438D01*
X142994095Y-32088438D02*
X143041714Y-32136057D01*
X143041714Y-32136057D02*
X143089333Y-32231295D01*
X143089333Y-32231295D02*
X143089333Y-32374152D01*
X143089333Y-32374152D02*
X143041714Y-32469390D01*
X143041714Y-32469390D02*
X142994095Y-32517009D01*
X142994095Y-32517009D02*
X142898857Y-32564628D01*
X142898857Y-32564628D02*
X142517905Y-32564628D01*
X143422667Y-32040819D02*
X144041714Y-32040819D01*
X144041714Y-32040819D02*
X143708381Y-32421771D01*
X143708381Y-32421771D02*
X143851238Y-32421771D01*
X143851238Y-32421771D02*
X143946476Y-32469390D01*
X143946476Y-32469390D02*
X143994095Y-32517009D01*
X143994095Y-32517009D02*
X144041714Y-32612247D01*
X144041714Y-32612247D02*
X144041714Y-32850342D01*
X144041714Y-32850342D02*
X143994095Y-32945580D01*
X143994095Y-32945580D02*
X143946476Y-32993200D01*
X143946476Y-32993200D02*
X143851238Y-33040819D01*
X143851238Y-33040819D02*
X143565524Y-33040819D01*
X143565524Y-33040819D02*
X143470286Y-32993200D01*
X143470286Y-32993200D02*
X143422667Y-32945580D01*
X166370095Y-20999819D02*
X166370095Y-21809342D01*
X166370095Y-21809342D02*
X166417714Y-21904580D01*
X166417714Y-21904580D02*
X166465333Y-21952200D01*
X166465333Y-21952200D02*
X166560571Y-21999819D01*
X166560571Y-21999819D02*
X166751047Y-21999819D01*
X166751047Y-21999819D02*
X166846285Y-21952200D01*
X166846285Y-21952200D02*
X166893904Y-21904580D01*
X166893904Y-21904580D02*
X166941523Y-21809342D01*
X166941523Y-21809342D02*
X166941523Y-20999819D01*
X167941523Y-21999819D02*
X167370095Y-21999819D01*
X167655809Y-21999819D02*
X167655809Y-20999819D01*
X167655809Y-20999819D02*
X167560571Y-21142676D01*
X167560571Y-21142676D02*
X167465333Y-21237914D01*
X167465333Y-21237914D02*
X167370095Y-21285533D01*
X143343333Y-50492819D02*
X143010000Y-50016628D01*
X142771905Y-50492819D02*
X142771905Y-49492819D01*
X142771905Y-49492819D02*
X143152857Y-49492819D01*
X143152857Y-49492819D02*
X143248095Y-49540438D01*
X143248095Y-49540438D02*
X143295714Y-49588057D01*
X143295714Y-49588057D02*
X143343333Y-49683295D01*
X143343333Y-49683295D02*
X143343333Y-49826152D01*
X143343333Y-49826152D02*
X143295714Y-49921390D01*
X143295714Y-49921390D02*
X143248095Y-49969009D01*
X143248095Y-49969009D02*
X143152857Y-50016628D01*
X143152857Y-50016628D02*
X142771905Y-50016628D01*
X143676667Y-49492819D02*
X144343333Y-49492819D01*
X144343333Y-49492819D02*
X143914762Y-50492819D01*
X143089333Y-44724819D02*
X142756000Y-44248628D01*
X142517905Y-44724819D02*
X142517905Y-43724819D01*
X142517905Y-43724819D02*
X142898857Y-43724819D01*
X142898857Y-43724819D02*
X142994095Y-43772438D01*
X142994095Y-43772438D02*
X143041714Y-43820057D01*
X143041714Y-43820057D02*
X143089333Y-43915295D01*
X143089333Y-43915295D02*
X143089333Y-44058152D01*
X143089333Y-44058152D02*
X143041714Y-44153390D01*
X143041714Y-44153390D02*
X142994095Y-44201009D01*
X142994095Y-44201009D02*
X142898857Y-44248628D01*
X142898857Y-44248628D02*
X142517905Y-44248628D01*
X143946476Y-43724819D02*
X143756000Y-43724819D01*
X143756000Y-43724819D02*
X143660762Y-43772438D01*
X143660762Y-43772438D02*
X143613143Y-43820057D01*
X143613143Y-43820057D02*
X143517905Y-43962914D01*
X143517905Y-43962914D02*
X143470286Y-44153390D01*
X143470286Y-44153390D02*
X143470286Y-44534342D01*
X143470286Y-44534342D02*
X143517905Y-44629580D01*
X143517905Y-44629580D02*
X143565524Y-44677200D01*
X143565524Y-44677200D02*
X143660762Y-44724819D01*
X143660762Y-44724819D02*
X143851238Y-44724819D01*
X143851238Y-44724819D02*
X143946476Y-44677200D01*
X143946476Y-44677200D02*
X143994095Y-44629580D01*
X143994095Y-44629580D02*
X144041714Y-44534342D01*
X144041714Y-44534342D02*
X144041714Y-44296247D01*
X144041714Y-44296247D02*
X143994095Y-44201009D01*
X143994095Y-44201009D02*
X143946476Y-44153390D01*
X143946476Y-44153390D02*
X143851238Y-44105771D01*
X143851238Y-44105771D02*
X143660762Y-44105771D01*
X143660762Y-44105771D02*
X143565524Y-44153390D01*
X143565524Y-44153390D02*
X143517905Y-44201009D01*
X143517905Y-44201009D02*
X143470286Y-44296247D01*
X143343333Y-56842819D02*
X143010000Y-56366628D01*
X142771905Y-56842819D02*
X142771905Y-55842819D01*
X142771905Y-55842819D02*
X143152857Y-55842819D01*
X143152857Y-55842819D02*
X143248095Y-55890438D01*
X143248095Y-55890438D02*
X143295714Y-55938057D01*
X143295714Y-55938057D02*
X143343333Y-56033295D01*
X143343333Y-56033295D02*
X143343333Y-56176152D01*
X143343333Y-56176152D02*
X143295714Y-56271390D01*
X143295714Y-56271390D02*
X143248095Y-56319009D01*
X143248095Y-56319009D02*
X143152857Y-56366628D01*
X143152857Y-56366628D02*
X142771905Y-56366628D01*
X144248095Y-55842819D02*
X143771905Y-55842819D01*
X143771905Y-55842819D02*
X143724286Y-56319009D01*
X143724286Y-56319009D02*
X143771905Y-56271390D01*
X143771905Y-56271390D02*
X143867143Y-56223771D01*
X143867143Y-56223771D02*
X144105238Y-56223771D01*
X144105238Y-56223771D02*
X144200476Y-56271390D01*
X144200476Y-56271390D02*
X144248095Y-56319009D01*
X144248095Y-56319009D02*
X144295714Y-56414247D01*
X144295714Y-56414247D02*
X144295714Y-56652342D01*
X144295714Y-56652342D02*
X144248095Y-56747580D01*
X144248095Y-56747580D02*
X144200476Y-56795200D01*
X144200476Y-56795200D02*
X144105238Y-56842819D01*
X144105238Y-56842819D02*
X143867143Y-56842819D01*
X143867143Y-56842819D02*
X143771905Y-56795200D01*
X143771905Y-56795200D02*
X143724286Y-56747580D01*
X142835333Y-38808819D02*
X142502000Y-38332628D01*
X142263905Y-38808819D02*
X142263905Y-37808819D01*
X142263905Y-37808819D02*
X142644857Y-37808819D01*
X142644857Y-37808819D02*
X142740095Y-37856438D01*
X142740095Y-37856438D02*
X142787714Y-37904057D01*
X142787714Y-37904057D02*
X142835333Y-37999295D01*
X142835333Y-37999295D02*
X142835333Y-38142152D01*
X142835333Y-38142152D02*
X142787714Y-38237390D01*
X142787714Y-38237390D02*
X142740095Y-38285009D01*
X142740095Y-38285009D02*
X142644857Y-38332628D01*
X142644857Y-38332628D02*
X142263905Y-38332628D01*
X143692476Y-38142152D02*
X143692476Y-38808819D01*
X143454381Y-37761200D02*
X143216286Y-38475485D01*
X143216286Y-38475485D02*
X143835333Y-38475485D01*
X142581333Y-22118819D02*
X142248000Y-21642628D01*
X142009905Y-22118819D02*
X142009905Y-21118819D01*
X142009905Y-21118819D02*
X142390857Y-21118819D01*
X142390857Y-21118819D02*
X142486095Y-21166438D01*
X142486095Y-21166438D02*
X142533714Y-21214057D01*
X142533714Y-21214057D02*
X142581333Y-21309295D01*
X142581333Y-21309295D02*
X142581333Y-21452152D01*
X142581333Y-21452152D02*
X142533714Y-21547390D01*
X142533714Y-21547390D02*
X142486095Y-21595009D01*
X142486095Y-21595009D02*
X142390857Y-21642628D01*
X142390857Y-21642628D02*
X142009905Y-21642628D01*
X143533714Y-22118819D02*
X142962286Y-22118819D01*
X143248000Y-22118819D02*
X143248000Y-21118819D01*
X143248000Y-21118819D02*
X143152762Y-21261676D01*
X143152762Y-21261676D02*
X143057524Y-21356914D01*
X143057524Y-21356914D02*
X142962286Y-21404533D01*
X178738819Y-31705333D02*
X179453104Y-31705333D01*
X179453104Y-31705333D02*
X179595961Y-31752952D01*
X179595961Y-31752952D02*
X179691200Y-31848190D01*
X179691200Y-31848190D02*
X179738819Y-31991047D01*
X179738819Y-31991047D02*
X179738819Y-32086285D01*
X178834057Y-31276761D02*
X178786438Y-31229142D01*
X178786438Y-31229142D02*
X178738819Y-31133904D01*
X178738819Y-31133904D02*
X178738819Y-30895809D01*
X178738819Y-30895809D02*
X178786438Y-30800571D01*
X178786438Y-30800571D02*
X178834057Y-30752952D01*
X178834057Y-30752952D02*
X178929295Y-30705333D01*
X178929295Y-30705333D02*
X179024533Y-30705333D01*
X179024533Y-30705333D02*
X179167390Y-30752952D01*
X179167390Y-30752952D02*
X179738819Y-31324380D01*
X179738819Y-31324380D02*
X179738819Y-30705333D01*
X115460319Y-44275333D02*
X116174604Y-44275333D01*
X116174604Y-44275333D02*
X116317461Y-44322952D01*
X116317461Y-44322952D02*
X116412700Y-44418190D01*
X116412700Y-44418190D02*
X116460319Y-44561047D01*
X116460319Y-44561047D02*
X116460319Y-44656285D01*
X116460319Y-43275333D02*
X116460319Y-43846761D01*
X116460319Y-43561047D02*
X115460319Y-43561047D01*
X115460319Y-43561047D02*
X115603176Y-43656285D01*
X115603176Y-43656285D02*
X115698414Y-43751523D01*
X115698414Y-43751523D02*
X115746033Y-43846761D01*
X170833580Y-42330666D02*
X170881200Y-42378285D01*
X170881200Y-42378285D02*
X170928819Y-42521142D01*
X170928819Y-42521142D02*
X170928819Y-42616380D01*
X170928819Y-42616380D02*
X170881200Y-42759237D01*
X170881200Y-42759237D02*
X170785961Y-42854475D01*
X170785961Y-42854475D02*
X170690723Y-42902094D01*
X170690723Y-42902094D02*
X170500247Y-42949713D01*
X170500247Y-42949713D02*
X170357390Y-42949713D01*
X170357390Y-42949713D02*
X170166914Y-42902094D01*
X170166914Y-42902094D02*
X170071676Y-42854475D01*
X170071676Y-42854475D02*
X169976438Y-42759237D01*
X169976438Y-42759237D02*
X169928819Y-42616380D01*
X169928819Y-42616380D02*
X169928819Y-42521142D01*
X169928819Y-42521142D02*
X169976438Y-42378285D01*
X169976438Y-42378285D02*
X170024057Y-42330666D01*
X169928819Y-41997332D02*
X169928819Y-41378285D01*
X169928819Y-41378285D02*
X170309771Y-41711618D01*
X170309771Y-41711618D02*
X170309771Y-41568761D01*
X170309771Y-41568761D02*
X170357390Y-41473523D01*
X170357390Y-41473523D02*
X170405009Y-41425904D01*
X170405009Y-41425904D02*
X170500247Y-41378285D01*
X170500247Y-41378285D02*
X170738342Y-41378285D01*
X170738342Y-41378285D02*
X170833580Y-41425904D01*
X170833580Y-41425904D02*
X170881200Y-41473523D01*
X170881200Y-41473523D02*
X170928819Y-41568761D01*
X170928819Y-41568761D02*
X170928819Y-41854475D01*
X170928819Y-41854475D02*
X170881200Y-41949713D01*
X170881200Y-41949713D02*
X170833580Y-41997332D01*
X163663333Y-42309580D02*
X163615714Y-42357200D01*
X163615714Y-42357200D02*
X163472857Y-42404819D01*
X163472857Y-42404819D02*
X163377619Y-42404819D01*
X163377619Y-42404819D02*
X163234762Y-42357200D01*
X163234762Y-42357200D02*
X163139524Y-42261961D01*
X163139524Y-42261961D02*
X163091905Y-42166723D01*
X163091905Y-42166723D02*
X163044286Y-41976247D01*
X163044286Y-41976247D02*
X163044286Y-41833390D01*
X163044286Y-41833390D02*
X163091905Y-41642914D01*
X163091905Y-41642914D02*
X163139524Y-41547676D01*
X163139524Y-41547676D02*
X163234762Y-41452438D01*
X163234762Y-41452438D02*
X163377619Y-41404819D01*
X163377619Y-41404819D02*
X163472857Y-41404819D01*
X163472857Y-41404819D02*
X163615714Y-41452438D01*
X163615714Y-41452438D02*
X163663333Y-41500057D01*
X164044286Y-41500057D02*
X164091905Y-41452438D01*
X164091905Y-41452438D02*
X164187143Y-41404819D01*
X164187143Y-41404819D02*
X164425238Y-41404819D01*
X164425238Y-41404819D02*
X164520476Y-41452438D01*
X164520476Y-41452438D02*
X164568095Y-41500057D01*
X164568095Y-41500057D02*
X164615714Y-41595295D01*
X164615714Y-41595295D02*
X164615714Y-41690533D01*
X164615714Y-41690533D02*
X164568095Y-41833390D01*
X164568095Y-41833390D02*
X163996667Y-42404819D01*
X163996667Y-42404819D02*
X164615714Y-42404819D01*
X164171333Y-37697580D02*
X164123714Y-37745200D01*
X164123714Y-37745200D02*
X163980857Y-37792819D01*
X163980857Y-37792819D02*
X163885619Y-37792819D01*
X163885619Y-37792819D02*
X163742762Y-37745200D01*
X163742762Y-37745200D02*
X163647524Y-37649961D01*
X163647524Y-37649961D02*
X163599905Y-37554723D01*
X163599905Y-37554723D02*
X163552286Y-37364247D01*
X163552286Y-37364247D02*
X163552286Y-37221390D01*
X163552286Y-37221390D02*
X163599905Y-37030914D01*
X163599905Y-37030914D02*
X163647524Y-36935676D01*
X163647524Y-36935676D02*
X163742762Y-36840438D01*
X163742762Y-36840438D02*
X163885619Y-36792819D01*
X163885619Y-36792819D02*
X163980857Y-36792819D01*
X163980857Y-36792819D02*
X164123714Y-36840438D01*
X164123714Y-36840438D02*
X164171333Y-36888057D01*
X165123714Y-37792819D02*
X164552286Y-37792819D01*
X164838000Y-37792819D02*
X164838000Y-36792819D01*
X164838000Y-36792819D02*
X164742762Y-36935676D01*
X164742762Y-36935676D02*
X164647524Y-37030914D01*
X164647524Y-37030914D02*
X164552286Y-37078533D01*
D13*
%TO.C,U2*%
X168894000Y-48707000D02*
G75*
G02*
X166894000Y-48707000I-1000000J0D01*
G01*
X162754000Y-48647000D02*
X173034000Y-48647000D01*
X173034000Y-62097000D01*
X162754000Y-62097000D01*
X162754000Y-48647000D01*
X170544000Y-62037000D02*
X170544000Y-48707000D01*
X170544000Y-48707000D02*
X168894000Y-48707000D01*
X166894000Y-48707000D02*
X165244000Y-48707000D01*
X165244000Y-62037000D02*
X170544000Y-62037000D01*
X165244000Y-48707000D02*
X165244000Y-62037000D01*
%TO.C,RV2*%
X182672000Y-43000000D02*
X182672000Y-61140000D01*
X182672000Y-43000000D02*
X195012000Y-43000000D01*
X182672000Y-61140000D02*
X195012000Y-61140000D01*
X195012000Y-43000000D02*
X195012000Y-61140000D01*
X195012000Y-48450000D02*
X200012000Y-48450000D01*
X195012000Y-55690000D02*
X200012000Y-55690000D01*
X200012000Y-48450000D02*
X200012000Y-55690000D01*
X200012000Y-48950000D02*
X210012000Y-48950000D01*
X200012000Y-55190000D02*
X210012000Y-55190000D01*
X210012000Y-48950000D02*
X210012000Y-55190000D01*
%TO.C,R2*%
X138128000Y-28252000D02*
X147368000Y-28252000D01*
X147368000Y-31692000D01*
X138128000Y-31692000D01*
X138128000Y-28252000D01*
X149328000Y-29972000D02*
X147368000Y-29972000D01*
X136168000Y-29972000D02*
X138128000Y-29972000D01*
%TO.C,R3*%
X138636000Y-33586000D02*
X147876000Y-33586000D01*
X147876000Y-37026000D01*
X138636000Y-37026000D01*
X138636000Y-33586000D01*
X149836000Y-35306000D02*
X147876000Y-35306000D01*
X136676000Y-35306000D02*
X138636000Y-35306000D01*
%TO.C,U1*%
X164482000Y-22545000D02*
X164482000Y-35875000D01*
X164482000Y-35875000D02*
X169782000Y-35875000D01*
X166132000Y-22545000D02*
X164482000Y-22545000D01*
X169782000Y-22545000D02*
X168132000Y-22545000D01*
X169782000Y-35875000D02*
X169782000Y-22545000D01*
X161992000Y-22485000D02*
X172272000Y-22485000D01*
X172272000Y-35935000D01*
X161992000Y-35935000D01*
X161992000Y-22485000D01*
X168132000Y-22545000D02*
G75*
G02*
X166132000Y-22545000I-1000000J0D01*
G01*
%TO.C,R7*%
X149836000Y-53086000D02*
X147876000Y-53086000D01*
X136676000Y-53086000D02*
X138636000Y-53086000D01*
X147876000Y-54806000D02*
X138636000Y-54806000D01*
X138636000Y-51366000D01*
X147876000Y-51366000D01*
X147876000Y-54806000D01*
%TO.C,R6*%
X136676000Y-46990000D02*
X138636000Y-46990000D01*
X149836000Y-46990000D02*
X147876000Y-46990000D01*
X138636000Y-45270000D02*
X147876000Y-45270000D01*
X147876000Y-48710000D01*
X138636000Y-48710000D01*
X138636000Y-45270000D01*
%TO.C,R5*%
X149836000Y-58928000D02*
X147876000Y-58928000D01*
X136676000Y-58928000D02*
X138636000Y-58928000D01*
X147876000Y-60648000D02*
X138636000Y-60648000D01*
X138636000Y-57208000D01*
X147876000Y-57208000D01*
X147876000Y-60648000D01*
%TO.C,R4*%
X147622000Y-43122000D02*
X138382000Y-43122000D01*
X138382000Y-39682000D01*
X147622000Y-39682000D01*
X147622000Y-43122000D01*
X136422000Y-41402000D02*
X138382000Y-41402000D01*
X149582000Y-41402000D02*
X147622000Y-41402000D01*
%TO.C,R1*%
X136168000Y-24384000D02*
X138128000Y-24384000D01*
X149328000Y-24384000D02*
X147368000Y-24384000D01*
X138128000Y-22664000D02*
X147368000Y-22664000D01*
X147368000Y-26104000D01*
X138128000Y-26104000D01*
X138128000Y-22664000D01*
%TO.C,J2*%
X180284000Y-41742000D02*
X180284000Y-21002000D01*
X183904000Y-41742000D02*
X183904000Y-40502000D01*
X184904000Y-41742000D02*
X184904000Y-40502000D01*
X186204000Y-41742000D02*
X186204000Y-40502000D01*
X188324000Y-41742000D02*
X180284000Y-41742000D01*
X188324000Y-38922000D02*
X188324000Y-41742000D01*
X183904000Y-36742000D02*
X183904000Y-35434000D01*
X184904000Y-36742000D02*
X184904000Y-35434000D01*
X186204000Y-36742000D02*
X186204000Y-34165000D01*
X186204000Y-33079000D02*
X186204000Y-29165000D01*
X183904000Y-31810000D02*
X183904000Y-30434000D01*
X184904000Y-31810000D02*
X184904000Y-30434000D01*
X186204000Y-28079000D02*
X186204000Y-24165000D01*
X183904000Y-26810000D02*
X183904000Y-25434000D01*
X184904000Y-26810000D02*
X184904000Y-25434000D01*
X186204000Y-23079000D02*
X186204000Y-21002000D01*
X183904000Y-21810000D02*
X183904000Y-21002000D01*
X184904000Y-21810000D02*
X184904000Y-21002000D01*
X180284000Y-21002000D02*
X188324000Y-21002000D01*
X188324000Y-21002000D02*
X188324000Y-38322000D01*
X188934000Y-39062000D02*
X188324000Y-38622000D01*
X188934000Y-38182000D01*
X188934000Y-39062000D01*
G36*
X188934000Y-39062000D02*
G01*
X188324000Y-38622000D01*
X188934000Y-38182000D01*
X188934000Y-39062000D01*
G37*
%TO.C,J1*%
X117005500Y-49312000D02*
X117005500Y-38572000D01*
X120625500Y-49312000D02*
X120625500Y-48072000D01*
X121625500Y-49312000D02*
X121625500Y-48072000D01*
X122925500Y-49312000D02*
X122925500Y-48072000D01*
X125045500Y-49312000D02*
X117005500Y-49312000D01*
X125045500Y-46492000D02*
X125045500Y-49312000D01*
X120625500Y-44312000D02*
X120625500Y-43004000D01*
X121625500Y-44312000D02*
X121625500Y-43004000D01*
X122925500Y-44312000D02*
X122925500Y-41735000D01*
X122925500Y-40649000D02*
X122925500Y-38572000D01*
X120625500Y-39380000D02*
X120625500Y-38572000D01*
X121625500Y-39380000D02*
X121625500Y-38572000D01*
X117005500Y-38572000D02*
X125045500Y-38572000D01*
X125045500Y-38572000D02*
X125045500Y-45892000D01*
X125655500Y-46632000D02*
X125045500Y-46192000D01*
X125655500Y-45752000D01*
X125655500Y-46632000D01*
G36*
X125655500Y-46632000D02*
G01*
X125045500Y-46192000D01*
X125655500Y-45752000D01*
X125655500Y-46632000D01*
G37*
%TO.C,C3*%
X171604000Y-46034000D02*
X171604000Y-38294000D01*
X174344000Y-46034000D02*
X171604000Y-46034000D01*
X171604000Y-38294000D02*
X174344000Y-38294000D01*
X174344000Y-38294000D02*
X174344000Y-46034000D01*
%TO.C,C2*%
X159960000Y-43080000D02*
X167700000Y-43080000D01*
X159960000Y-45820000D02*
X159960000Y-43080000D01*
X167700000Y-43080000D02*
X167700000Y-45820000D01*
X167700000Y-45820000D02*
X159960000Y-45820000D01*
%TO.C,C1*%
X167700000Y-40994000D02*
X159960000Y-40994000D01*
X167700000Y-38254000D02*
X167700000Y-40994000D01*
X159960000Y-40994000D02*
X159960000Y-38254000D01*
X159960000Y-38254000D02*
X167700000Y-38254000D01*
%TD*%
M02*
