%TF.GenerationSoftware,KiCad,Pcbnew,9.0.5*%
%TF.CreationDate,2026-02-21T14:17:58+05:30*%
%TF.ProjectId,gignal generatoe(sine _ sqaure _ triangle),6769676e-616c-4206-9765-6e657261746f,rev?*%
%TF.SameCoordinates,Original*%
%TF.FileFunction,Copper,L1,Top*%
%TF.FilePolarity,Positive*%
%FSLAX46Y46*%
G04 Gerber Fmt 4.6, Leading zero omitted, Abs format (unit mm)*
G04 Created by KiCad (PCBNEW 9.0.5) date 2026-02-21 14:17:58*
%MOMM*%
%LPD*%
G01*
G04 APERTURE LIST*
G04 Aperture macros list*
%AMRoundRect*
0 Rectangle with rounded corners*
0 $1 Rounding radius*
0 $2 $3 $4 $5 $6 $7 $8 $9 X,Y pos of 4 corners*
0 Add a 4 corners polygon primitive as box body*
4,1,4,$2,$3,$4,$5,$6,$7,$8,$9,$2,$3,0*
0 Add four circle primitives for the rounded corners*
1,1,$1+$1,$2,$3*
1,1,$1+$1,$4,$5*
1,1,$1+$1,$6,$7*
1,1,$1+$1,$8,$9*
0 Add four rect primitives between the rounded corners*
20,1,$1+$1,$2,$3,$4,$5,0*
20,1,$1+$1,$4,$5,$6,$7,0*
20,1,$1+$1,$6,$7,$8,$9,0*
20,1,$1+$1,$8,$9,$2,$3,0*%
G04 Aperture macros list end*
%TA.AperFunction,ComponentPad*%
%ADD10C,1.600000*%
%TD*%
%TA.AperFunction,ComponentPad*%
%ADD11RoundRect,0.250000X-0.550000X-0.550000X0.550000X-0.550000X0.550000X0.550000X-0.550000X0.550000X0*%
%TD*%
%TA.AperFunction,ComponentPad*%
%ADD12C,3.000000*%
%TD*%
%TA.AperFunction,ComponentPad*%
%ADD13R,3.000000X3.000000*%
%TD*%
%TA.AperFunction,ComponentPad*%
%ADD14RoundRect,0.250001X1.149999X-1.149999X1.149999X1.149999X-1.149999X1.149999X-1.149999X-1.149999X0*%
%TD*%
%TA.AperFunction,ComponentPad*%
%ADD15C,2.800000*%
%TD*%
%TA.AperFunction,ComponentPad*%
%ADD16C,2.000000*%
%TD*%
%TA.AperFunction,ViaPad*%
%ADD17C,0.500000*%
%TD*%
%TA.AperFunction,Conductor*%
%ADD18C,0.500000*%
%TD*%
G04 APERTURE END LIST*
D10*
%TO.P,U2,8*%
%TO.N,N/C*%
X171704000Y-51562000D03*
%TO.P,U2,7*%
X171704000Y-54102000D03*
%TO.P,U2,6*%
X171704000Y-56642000D03*
%TO.P,U2,5*%
X171704000Y-59182000D03*
%TO.P,U2,4*%
X164084000Y-59182000D03*
%TO.P,U2,3,+*%
%TO.N,Net-(J2-Pin_1)*%
X164084000Y-56642000D03*
%TO.P,U2,2,-*%
%TO.N,Net-(U2A--)*%
X164084000Y-54102000D03*
D11*
%TO.P,U2,1*%
%TO.N,TRIANGLE*%
X164084000Y-51562000D03*
%TD*%
D12*
%TO.P,RV2,6,6*%
%TO.N,unconnected-(RV2-Pad6)*%
X186092000Y-47070000D03*
%TO.P,RV2,5,5*%
%TO.N,Net-(J2-Pin_1)*%
X186092000Y-52070000D03*
%TO.P,RV2,4,4*%
%TO.N,Net-(U1A-+)*%
X186092000Y-57070000D03*
%TO.P,RV2,3,3*%
%TO.N,unconnected-(RV2-Pad3)*%
X191092000Y-47070000D03*
%TO.P,RV2,2,2*%
%TO.N,Net-(U1A-+)*%
X191092000Y-52070000D03*
D13*
%TO.P,RV2,1,1*%
%TO.N,Net-(C1-Pad1)*%
X191092000Y-57070000D03*
%TD*%
D10*
%TO.P,R2,2*%
%TO.N,SINE*%
X150368000Y-29972000D03*
%TO.P,R2,1*%
%TO.N,Net-(U1A--)*%
X135128000Y-29972000D03*
%TD*%
%TO.P,R3,2*%
%TO.N,Net-(J2-Pin_1)*%
X150876000Y-35306000D03*
%TO.P,R3,1*%
%TO.N,12v-*%
X135636000Y-35306000D03*
%TD*%
D11*
%TO.P,U1,1*%
%TO.N,SINE*%
X163322000Y-25400000D03*
D10*
%TO.P,U1,2,-*%
%TO.N,Net-(U1A--)*%
X163322000Y-27940000D03*
%TO.P,U1,3,+*%
%TO.N,Net-(U1A-+)*%
X163322000Y-30480000D03*
%TO.P,U1,4,V-*%
%TO.N,12v-*%
X163322000Y-33020000D03*
%TO.P,U1,5,+*%
%TO.N,Net-(U1B-+)*%
X170942000Y-33020000D03*
%TO.P,U1,6,-*%
%TO.N,SINE*%
X170942000Y-30480000D03*
%TO.P,U1,7*%
%TO.N,SQUARE*%
X170942000Y-27940000D03*
%TO.P,U1,8,V+*%
%TO.N,12v+*%
X170942000Y-25400000D03*
%TD*%
%TO.P,R7,1*%
%TO.N,SINE*%
X150876000Y-53086000D03*
%TO.P,R7,2*%
%TO.N,Net-(U2A--)*%
X135636000Y-53086000D03*
%TD*%
%TO.P,R6,1*%
%TO.N,Net-(U1B-+)*%
X135636000Y-46990000D03*
%TO.P,R6,2*%
%TO.N,Net-(J2-Pin_1)*%
X150876000Y-46990000D03*
%TD*%
%TO.P,R5,1*%
%TO.N,SQUARE*%
X150876000Y-58928000D03*
%TO.P,R5,2*%
%TO.N,Net-(U1B-+)*%
X135636000Y-58928000D03*
%TD*%
%TO.P,R4,2*%
%TO.N,Net-(U1A--)*%
X135382000Y-41402000D03*
%TO.P,R4,1*%
%TO.N,Net-(J2-Pin_1)*%
X150622000Y-41402000D03*
%TD*%
%TO.P,R1,1*%
%TO.N,Net-(J2-Pin_1)*%
X135128000Y-24384000D03*
%TO.P,R1,2*%
%TO.N,12v+*%
X150368000Y-24384000D03*
%TD*%
D14*
%TO.P,J2,1,Pin_1*%
%TO.N,Net-(J2-Pin_1)*%
X184404000Y-38622000D03*
D15*
%TO.P,J2,2,Pin_2*%
%TO.N,SINE*%
X184404000Y-33622000D03*
%TO.P,J2,3,Pin_3*%
%TO.N,SQUARE*%
X184404000Y-28622000D03*
%TO.P,J2,4,Pin_4*%
%TO.N,TRIANGLE*%
X184404000Y-23622000D03*
%TD*%
D14*
%TO.P,J1,1,Pin_1*%
%TO.N,12v-*%
X121125500Y-46192000D03*
D15*
%TO.P,J1,2,Pin_2*%
%TO.N,12v+*%
X121125500Y-41192000D03*
%TD*%
D16*
%TO.P,C3,1*%
%TO.N,Net-(U2A--)*%
X172974000Y-44664000D03*
%TO.P,C3,2*%
%TO.N,TRIANGLE*%
X172974000Y-39664000D03*
%TD*%
%TO.P,C2,1*%
%TO.N,Net-(J2-Pin_1)*%
X161330000Y-44450000D03*
%TO.P,C2,2*%
%TO.N,Net-(U1A-+)*%
X166330000Y-44450000D03*
%TD*%
%TO.P,C1,1*%
%TO.N,Net-(C1-Pad1)*%
X166330000Y-39624000D03*
%TO.P,C1,2*%
%TO.N,SINE*%
X161330000Y-39624000D03*
%TD*%
D17*
%TO.N,TRIANGLE*%
X176530000Y-51562000D03*
%TD*%
D18*
%TO.N,TRIANGLE*%
X165335000Y-52813000D02*
X164084000Y-51562000D01*
X175279000Y-52813000D02*
X165335000Y-52813000D01*
X176530000Y-51562000D02*
X175279000Y-52813000D01*
X187198000Y-23622000D02*
X184404000Y-23622000D01*
X187452000Y-23876000D02*
X187198000Y-23622000D01*
X187452000Y-34290000D02*
X187452000Y-23876000D01*
X185674000Y-36068000D02*
X187452000Y-34290000D01*
X176570000Y-36068000D02*
X185674000Y-36068000D01*
X172974000Y-39664000D02*
X176570000Y-36068000D01*
%TO.N,SINE*%
X181262000Y-30480000D02*
X184404000Y-33622000D01*
X170942000Y-30480000D02*
X181262000Y-30480000D01*
%TO.N,SQUARE*%
X183722000Y-27940000D02*
X184404000Y-28622000D01*
X170942000Y-27940000D02*
X183722000Y-27940000D01*
%TO.N,12v+*%
X174244000Y-20066000D02*
X150368000Y-20066000D01*
X174244000Y-25146000D02*
X174244000Y-20066000D01*
X173990000Y-25400000D02*
X174244000Y-25146000D01*
X170942000Y-25400000D02*
X173990000Y-25400000D01*
%TO.N,Net-(U1A-+)*%
X163576000Y-44450000D02*
X166330000Y-44450000D01*
X163576000Y-37338000D02*
X163576000Y-44450000D01*
X161798000Y-37338000D02*
X163576000Y-37338000D01*
X161544000Y-37084000D02*
X161798000Y-37338000D01*
X160528000Y-31750000D02*
X160528000Y-36068000D01*
X160528000Y-36068000D02*
X161544000Y-37084000D01*
X163322000Y-30480000D02*
X161798000Y-30480000D01*
X161798000Y-30480000D02*
X160528000Y-31750000D01*
%TO.N,SINE*%
X160528000Y-25400000D02*
X163322000Y-25400000D01*
X160528000Y-29972000D02*
X160528000Y-25400000D01*
X150368000Y-29972000D02*
X160528000Y-29972000D01*
X165862000Y-25400000D02*
X170942000Y-30480000D01*
X163322000Y-25400000D02*
X165862000Y-25400000D01*
%TO.N,Net-(U1B-+)*%
X139954000Y-58928000D02*
X135636000Y-58928000D01*
X140462000Y-58420000D02*
X139954000Y-58928000D01*
X140462000Y-46990000D02*
X140462000Y-58420000D01*
X135636000Y-46990000D02*
X140462000Y-46990000D01*
%TO.N,Net-(U1A--)*%
X137922000Y-41402000D02*
X135382000Y-41402000D01*
X139446000Y-39878000D02*
X137922000Y-41402000D01*
X139446000Y-29972000D02*
X139446000Y-39878000D01*
X135128000Y-29972000D02*
X139446000Y-29972000D01*
%TO.N,Net-(J2-Pin_1)*%
X161036000Y-55880000D02*
X161036000Y-47244000D01*
X160782000Y-46990000D02*
X161290000Y-46990000D01*
X161798000Y-56642000D02*
X161036000Y-55880000D01*
X164084000Y-56642000D02*
X161798000Y-56642000D01*
X161036000Y-47244000D02*
X161290000Y-46990000D01*
X184404000Y-38622000D02*
X179310000Y-38622000D01*
X178308000Y-46990000D02*
X180594000Y-46990000D01*
X179310000Y-38622000D02*
X178308000Y-39624000D01*
X178308000Y-39624000D02*
X178308000Y-46990000D01*
X181864000Y-52070000D02*
X186092000Y-52070000D01*
X180594000Y-50800000D02*
X181864000Y-52070000D01*
X180594000Y-46990000D02*
X180594000Y-50800000D01*
X161290000Y-46990000D02*
X178308000Y-46990000D01*
X161330000Y-46442000D02*
X160782000Y-46990000D01*
X161330000Y-44450000D02*
X161330000Y-46442000D01*
X150876000Y-46990000D02*
X160782000Y-46990000D01*
X150622000Y-46736000D02*
X150876000Y-46990000D01*
X150622000Y-41402000D02*
X150622000Y-46736000D01*
X150876000Y-41148000D02*
X150622000Y-41402000D01*
X150876000Y-35306000D02*
X150876000Y-41148000D01*
X136652000Y-28448000D02*
X145034000Y-28448000D01*
X145034000Y-28448000D02*
X145034000Y-35306000D01*
X145034000Y-35306000D02*
X150876000Y-35306000D01*
X135128000Y-26924000D02*
X136652000Y-28448000D01*
X135128000Y-24384000D02*
X135128000Y-26924000D01*
%TO.N,12v-*%
X133604000Y-37338000D02*
X135636000Y-35306000D01*
X133604000Y-46228000D02*
X133604000Y-37338000D01*
X133568000Y-46192000D02*
X133604000Y-46228000D01*
X121125500Y-46192000D02*
X133568000Y-46192000D01*
%TO.N,12v+*%
X150368000Y-20066000D02*
X150368000Y-24384000D01*
X131318000Y-40894000D02*
X131318000Y-22606000D01*
X133858000Y-20066000D02*
X150368000Y-20066000D01*
X131020000Y-41192000D02*
X131318000Y-40894000D01*
X131318000Y-22606000D02*
X133858000Y-20066000D01*
X121125500Y-41192000D02*
X131020000Y-41192000D01*
%TD*%
%TA.AperFunction,Conductor*%
%TO.N,12v-*%
G36*
X165566809Y-26170185D02*
G01*
X165587451Y-26186819D01*
X169615526Y-30214894D01*
X169649011Y-30276217D01*
X169650318Y-30321972D01*
X169641500Y-30377647D01*
X169641500Y-30582351D01*
X169673522Y-30784534D01*
X169736781Y-30979223D01*
X169829715Y-31161613D01*
X169950028Y-31327213D01*
X170094786Y-31471971D01*
X170249749Y-31584556D01*
X170260390Y-31592287D01*
X170351840Y-31638883D01*
X170353080Y-31639515D01*
X170403876Y-31687490D01*
X170420671Y-31755311D01*
X170398134Y-31821446D01*
X170353080Y-31860485D01*
X170260386Y-31907715D01*
X170094786Y-32028028D01*
X169950028Y-32172786D01*
X169829715Y-32338386D01*
X169736781Y-32520776D01*
X169673522Y-32715465D01*
X169641500Y-32917648D01*
X169641500Y-33122351D01*
X169673522Y-33324534D01*
X169736781Y-33519223D01*
X169800691Y-33644653D01*
X169829585Y-33701359D01*
X169829715Y-33701613D01*
X169950028Y-33867213D01*
X170094786Y-34011971D01*
X170234636Y-34113576D01*
X170260390Y-34132287D01*
X170376607Y-34191503D01*
X170442776Y-34225218D01*
X170442778Y-34225218D01*
X170442781Y-34225220D01*
X170547137Y-34259127D01*
X170637465Y-34288477D01*
X170738557Y-34304488D01*
X170839648Y-34320500D01*
X170839649Y-34320500D01*
X171044351Y-34320500D01*
X171044352Y-34320500D01*
X171246534Y-34288477D01*
X171441219Y-34225220D01*
X171623610Y-34132287D01*
X171784424Y-34015450D01*
X171789213Y-34011971D01*
X171789215Y-34011968D01*
X171789219Y-34011966D01*
X171933966Y-33867219D01*
X171933968Y-33867215D01*
X171933971Y-33867213D01*
X172021618Y-33746575D01*
X172054287Y-33701610D01*
X172147220Y-33519219D01*
X172210477Y-33324534D01*
X172242500Y-33122352D01*
X172242500Y-32917648D01*
X172220639Y-32779623D01*
X172210477Y-32715465D01*
X172161221Y-32563873D01*
X172147220Y-32520781D01*
X172147218Y-32520778D01*
X172147218Y-32520776D01*
X172113503Y-32454607D01*
X172054287Y-32338390D01*
X172022092Y-32294077D01*
X171933971Y-32172786D01*
X171789213Y-32028028D01*
X171623614Y-31907715D01*
X171617006Y-31904348D01*
X171530917Y-31860483D01*
X171480123Y-31812511D01*
X171463328Y-31744690D01*
X171485865Y-31678555D01*
X171530917Y-31639516D01*
X171623610Y-31592287D01*
X171644770Y-31576913D01*
X171789213Y-31471971D01*
X171789215Y-31471968D01*
X171789219Y-31471966D01*
X171933966Y-31327219D01*
X171936650Y-31323524D01*
X171967100Y-31281615D01*
X172022429Y-31238949D01*
X172067418Y-31230500D01*
X180899770Y-31230500D01*
X180966809Y-31250185D01*
X180987451Y-31266819D01*
X182579965Y-32859333D01*
X182613450Y-32920656D01*
X182608466Y-32990348D01*
X182606847Y-32994462D01*
X182600502Y-33009779D01*
X182600499Y-33009790D01*
X182536017Y-33250438D01*
X182503501Y-33497424D01*
X182503500Y-33497441D01*
X182503500Y-33746558D01*
X182503501Y-33746575D01*
X182536017Y-33993561D01*
X182600498Y-34234207D01*
X182695830Y-34464361D01*
X182695837Y-34464376D01*
X182820400Y-34680126D01*
X182972060Y-34877774D01*
X182972066Y-34877781D01*
X183148218Y-35053933D01*
X183148225Y-35053939D01*
X183201898Y-35095124D01*
X183243101Y-35151552D01*
X183247256Y-35221298D01*
X183213044Y-35282218D01*
X183151326Y-35314971D01*
X183126412Y-35317500D01*
X176496080Y-35317500D01*
X176351092Y-35346340D01*
X176351082Y-35346343D01*
X176214509Y-35402913D01*
X176180703Y-35425502D01*
X176091582Y-35485049D01*
X176091581Y-35485050D01*
X173413911Y-38162719D01*
X173352588Y-38196204D01*
X173306832Y-38197511D01*
X173092097Y-38163500D01*
X173092092Y-38163500D01*
X172855908Y-38163500D01*
X172855903Y-38163500D01*
X172622631Y-38200446D01*
X172398003Y-38273433D01*
X172187566Y-38380657D01*
X172078550Y-38459862D01*
X171996490Y-38519483D01*
X171996488Y-38519485D01*
X171996487Y-38519485D01*
X171829485Y-38686487D01*
X171829485Y-38686488D01*
X171829483Y-38686490D01*
X171784835Y-38747943D01*
X171690657Y-38877566D01*
X171583433Y-39088003D01*
X171510446Y-39312631D01*
X171473500Y-39545902D01*
X171473500Y-39782097D01*
X171510446Y-40015368D01*
X171583433Y-40239996D01*
X171670276Y-40410433D01*
X171690657Y-40450433D01*
X171829483Y-40641510D01*
X171996490Y-40808517D01*
X172187567Y-40947343D01*
X172242736Y-40975453D01*
X172398003Y-41054566D01*
X172398005Y-41054566D01*
X172398008Y-41054568D01*
X172499525Y-41087553D01*
X172622631Y-41127553D01*
X172855903Y-41164500D01*
X172855908Y-41164500D01*
X173092097Y-41164500D01*
X173325368Y-41127553D01*
X173334764Y-41124500D01*
X173549992Y-41054568D01*
X173760433Y-40947343D01*
X173951510Y-40808517D01*
X174118517Y-40641510D01*
X174257343Y-40450433D01*
X174364568Y-40239992D01*
X174437553Y-40015368D01*
X174443888Y-39975368D01*
X174474500Y-39782097D01*
X174474500Y-39545902D01*
X174440488Y-39331165D01*
X174449442Y-39261872D01*
X174475277Y-39224089D01*
X176844549Y-36854819D01*
X176905872Y-36821334D01*
X176932230Y-36818500D01*
X182553128Y-36818500D01*
X182620167Y-36838185D01*
X182665922Y-36890989D01*
X182675866Y-36960147D01*
X182658666Y-37007597D01*
X182569187Y-37152663D01*
X182569186Y-37152664D01*
X182514001Y-37319203D01*
X182514000Y-37319204D01*
X182503500Y-37421984D01*
X182503500Y-37747500D01*
X182483815Y-37814539D01*
X182431011Y-37860294D01*
X182379500Y-37871500D01*
X179236080Y-37871500D01*
X179091092Y-37900340D01*
X179091086Y-37900342D01*
X178954508Y-37956914D01*
X178954496Y-37956921D01*
X178905269Y-37989813D01*
X178831588Y-38039044D01*
X178831580Y-38039050D01*
X177725049Y-39145581D01*
X177685380Y-39204950D01*
X177685381Y-39204951D01*
X177642914Y-39268508D01*
X177586343Y-39405082D01*
X177586340Y-39405092D01*
X177557500Y-39550079D01*
X177557500Y-46115500D01*
X177537815Y-46182539D01*
X177485011Y-46228294D01*
X177433500Y-46239500D01*
X173703540Y-46239500D01*
X173636501Y-46219815D01*
X173590746Y-46167011D01*
X173580802Y-46097853D01*
X173609827Y-46034297D01*
X173647245Y-46005015D01*
X173760433Y-45947343D01*
X173951510Y-45808517D01*
X174118517Y-45641510D01*
X174257343Y-45450433D01*
X174364568Y-45239992D01*
X174437553Y-45015368D01*
X174451216Y-44929105D01*
X174474500Y-44782097D01*
X174474500Y-44545902D01*
X174437553Y-44312631D01*
X174368020Y-44098632D01*
X174364568Y-44088008D01*
X174364566Y-44088005D01*
X174364566Y-44088003D01*
X174257342Y-43877566D01*
X174254757Y-43874008D01*
X174118517Y-43686490D01*
X173951510Y-43519483D01*
X173760433Y-43380657D01*
X173549996Y-43273433D01*
X173325368Y-43200446D01*
X173092097Y-43163500D01*
X173092092Y-43163500D01*
X172855908Y-43163500D01*
X172855903Y-43163500D01*
X172622631Y-43200446D01*
X172398003Y-43273433D01*
X172187566Y-43380657D01*
X172078550Y-43459862D01*
X171996490Y-43519483D01*
X171996488Y-43519485D01*
X171996487Y-43519485D01*
X171829485Y-43686487D01*
X171829485Y-43686488D01*
X171829483Y-43686490D01*
X171822079Y-43696681D01*
X171690657Y-43877566D01*
X171583433Y-44088003D01*
X171510446Y-44312631D01*
X171473500Y-44545902D01*
X171473500Y-44782097D01*
X171510446Y-45015368D01*
X171583433Y-45239996D01*
X171599719Y-45271958D01*
X171690657Y-45450433D01*
X171829483Y-45641510D01*
X171996490Y-45808517D01*
X172187567Y-45947343D01*
X172300755Y-46005015D01*
X172351551Y-46052990D01*
X172368346Y-46120811D01*
X172345809Y-46186945D01*
X172291094Y-46230397D01*
X172244460Y-46239500D01*
X162204500Y-46239500D01*
X162137461Y-46219815D01*
X162091706Y-46167011D01*
X162080500Y-46115500D01*
X162080500Y-45822631D01*
X162100185Y-45755592D01*
X162131614Y-45722313D01*
X162307510Y-45594517D01*
X162474517Y-45427510D01*
X162613343Y-45236433D01*
X162720568Y-45025992D01*
X162752049Y-44929103D01*
X162791485Y-44871430D01*
X162855844Y-44844231D01*
X162924690Y-44856146D01*
X162973081Y-44898533D01*
X162993045Y-44928411D01*
X162993051Y-44928419D01*
X163097580Y-45032948D01*
X163097584Y-45032951D01*
X163220498Y-45115080D01*
X163220511Y-45115087D01*
X163356952Y-45171602D01*
X163357087Y-45171658D01*
X163357091Y-45171658D01*
X163357092Y-45171659D01*
X163502079Y-45200500D01*
X163502082Y-45200500D01*
X163649918Y-45200500D01*
X164957369Y-45200500D01*
X165024408Y-45220185D01*
X165057685Y-45251613D01*
X165185483Y-45427510D01*
X165352490Y-45594517D01*
X165543567Y-45733343D01*
X165642783Y-45783896D01*
X165754003Y-45840566D01*
X165754005Y-45840566D01*
X165754008Y-45840568D01*
X165868328Y-45877713D01*
X165978631Y-45913553D01*
X166211903Y-45950500D01*
X166211908Y-45950500D01*
X166448097Y-45950500D01*
X166681368Y-45913553D01*
X166905992Y-45840568D01*
X167116433Y-45733343D01*
X167307510Y-45594517D01*
X167474517Y-45427510D01*
X167613343Y-45236433D01*
X167720568Y-45025992D01*
X167793553Y-44801368D01*
X167814532Y-44668913D01*
X167830500Y-44568097D01*
X167830500Y-44331902D01*
X167793553Y-44098631D01*
X167720566Y-43874003D01*
X167664002Y-43762991D01*
X167613343Y-43663567D01*
X167474517Y-43472490D01*
X167307510Y-43305483D01*
X167116433Y-43166657D01*
X167110237Y-43163500D01*
X166905996Y-43059433D01*
X166681368Y-42986446D01*
X166448097Y-42949500D01*
X166448092Y-42949500D01*
X166211908Y-42949500D01*
X166211903Y-42949500D01*
X165978631Y-42986446D01*
X165754003Y-43059433D01*
X165543566Y-43166657D01*
X165497059Y-43200447D01*
X165352490Y-43305483D01*
X165352488Y-43305485D01*
X165352487Y-43305485D01*
X165185485Y-43472487D01*
X165185485Y-43472488D01*
X165185483Y-43472490D01*
X165111773Y-43573943D01*
X165057687Y-43648386D01*
X165002357Y-43691051D01*
X164957369Y-43699500D01*
X164450500Y-43699500D01*
X164383461Y-43679815D01*
X164337706Y-43627011D01*
X164326500Y-43575500D01*
X164326500Y-39505902D01*
X164829500Y-39505902D01*
X164829500Y-39742097D01*
X164866446Y-39975368D01*
X164939433Y-40199996D01*
X165033446Y-40384505D01*
X165046657Y-40410433D01*
X165185483Y-40601510D01*
X165352490Y-40768517D01*
X165543567Y-40907343D01*
X165642991Y-40958002D01*
X165754003Y-41014566D01*
X165754005Y-41014566D01*
X165754008Y-41014568D01*
X165874412Y-41053689D01*
X165978631Y-41087553D01*
X166211903Y-41124500D01*
X166211908Y-41124500D01*
X166448097Y-41124500D01*
X166681368Y-41087553D01*
X166743266Y-41067441D01*
X166905992Y-41014568D01*
X167116433Y-40907343D01*
X167307510Y-40768517D01*
X167474517Y-40601510D01*
X167613343Y-40410433D01*
X167720568Y-40199992D01*
X167793553Y-39975368D01*
X167801563Y-39924795D01*
X167830500Y-39742097D01*
X167830500Y-39505902D01*
X167793553Y-39272631D01*
X167720566Y-39048003D01*
X167630215Y-38870681D01*
X167613343Y-38837567D01*
X167474517Y-38646490D01*
X167307510Y-38479483D01*
X167116433Y-38340657D01*
X167081748Y-38322984D01*
X166905996Y-38233433D01*
X166681368Y-38160446D01*
X166448097Y-38123500D01*
X166448092Y-38123500D01*
X166211908Y-38123500D01*
X166211903Y-38123500D01*
X165978631Y-38160446D01*
X165754003Y-38233433D01*
X165543566Y-38340657D01*
X165434550Y-38419862D01*
X165352490Y-38479483D01*
X165352488Y-38479485D01*
X165352487Y-38479485D01*
X165185485Y-38646487D01*
X165185485Y-38646488D01*
X165185483Y-38646490D01*
X165156423Y-38686488D01*
X165046657Y-38837566D01*
X164939433Y-39048003D01*
X164866446Y-39272631D01*
X164829500Y-39505902D01*
X164326500Y-39505902D01*
X164326500Y-37264079D01*
X164297659Y-37119092D01*
X164297658Y-37119091D01*
X164297658Y-37119087D01*
X164297656Y-37119082D01*
X164241087Y-36982511D01*
X164241080Y-36982498D01*
X164158951Y-36859584D01*
X164158948Y-36859580D01*
X164054419Y-36755051D01*
X164054415Y-36755048D01*
X163931501Y-36672919D01*
X163931488Y-36672912D01*
X163794917Y-36616343D01*
X163794907Y-36616340D01*
X163649920Y-36587500D01*
X163649918Y-36587500D01*
X162160230Y-36587500D01*
X162093191Y-36567815D01*
X162072549Y-36551181D01*
X161314819Y-35793451D01*
X161281334Y-35732128D01*
X161278500Y-35705770D01*
X161278500Y-32112229D01*
X161298185Y-32045190D01*
X161314819Y-32024548D01*
X162072548Y-31266819D01*
X162099475Y-31252115D01*
X162125294Y-31235523D01*
X162131494Y-31234631D01*
X162133871Y-31233334D01*
X162160229Y-31230500D01*
X162196582Y-31230500D01*
X162263621Y-31250185D01*
X162296900Y-31281615D01*
X162330028Y-31327212D01*
X162330032Y-31327217D01*
X162474786Y-31471971D01*
X162640385Y-31592284D01*
X162640387Y-31592285D01*
X162640390Y-31592287D01*
X162733080Y-31639515D01*
X162733630Y-31639795D01*
X162784426Y-31687770D01*
X162801221Y-31755591D01*
X162778684Y-31821725D01*
X162733630Y-31860765D01*
X162640644Y-31908143D01*
X162596077Y-31940523D01*
X162596077Y-31940524D01*
X163275554Y-32620000D01*
X163269339Y-32620000D01*
X163167606Y-32647259D01*
X163076394Y-32699920D01*
X163001920Y-32774394D01*
X162949259Y-32865606D01*
X162922000Y-32967339D01*
X162922000Y-32973553D01*
X162242524Y-32294077D01*
X162242523Y-32294077D01*
X162210143Y-32338644D01*
X162117244Y-32520968D01*
X162054009Y-32715582D01*
X162022000Y-32917682D01*
X162022000Y-33122317D01*
X162054009Y-33324417D01*
X162117244Y-33519031D01*
X162210141Y-33701350D01*
X162210147Y-33701359D01*
X162242523Y-33745921D01*
X162242524Y-33745922D01*
X162922000Y-33066446D01*
X162922000Y-33072661D01*
X162949259Y-33174394D01*
X163001920Y-33265606D01*
X163076394Y-33340080D01*
X163167606Y-33392741D01*
X163269339Y-33420000D01*
X163275553Y-33420000D01*
X162596076Y-34099474D01*
X162640650Y-34131859D01*
X162822968Y-34224755D01*
X163017582Y-34287990D01*
X163219683Y-34320000D01*
X163424317Y-34320000D01*
X163626417Y-34287990D01*
X163821031Y-34224755D01*
X164003349Y-34131859D01*
X164047921Y-34099474D01*
X163368447Y-33420000D01*
X163374661Y-33420000D01*
X163476394Y-33392741D01*
X163567606Y-33340080D01*
X163642080Y-33265606D01*
X163694741Y-33174394D01*
X163722000Y-33072661D01*
X163722000Y-33066448D01*
X164401474Y-33745922D01*
X164401474Y-33745921D01*
X164433859Y-33701349D01*
X164526755Y-33519031D01*
X164589990Y-33324417D01*
X164622000Y-33122317D01*
X164622000Y-32917682D01*
X164589990Y-32715582D01*
X164526755Y-32520968D01*
X164433859Y-32338650D01*
X164401474Y-32294077D01*
X164401474Y-32294076D01*
X163722000Y-32973551D01*
X163722000Y-32967339D01*
X163694741Y-32865606D01*
X163642080Y-32774394D01*
X163567606Y-32699920D01*
X163476394Y-32647259D01*
X163374661Y-32620000D01*
X163368446Y-32620000D01*
X164047922Y-31940524D01*
X164047921Y-31940523D01*
X164003359Y-31908147D01*
X164003350Y-31908141D01*
X163910369Y-31860765D01*
X163859573Y-31812790D01*
X163842778Y-31744969D01*
X163865315Y-31678835D01*
X163910370Y-31639795D01*
X163910920Y-31639515D01*
X164003610Y-31592287D01*
X164053144Y-31556298D01*
X164169213Y-31471971D01*
X164169215Y-31471968D01*
X164169219Y-31471966D01*
X164313966Y-31327219D01*
X164313968Y-31327215D01*
X164313971Y-31327213D01*
X164378097Y-31238949D01*
X164434287Y-31161610D01*
X164527220Y-30979219D01*
X164590477Y-30784534D01*
X164622500Y-30582352D01*
X164622500Y-30377648D01*
X164590477Y-30175466D01*
X164527220Y-29980781D01*
X164527218Y-29980778D01*
X164527218Y-29980776D01*
X164484555Y-29897046D01*
X164434287Y-29798390D01*
X164426556Y-29787749D01*
X164313971Y-29632786D01*
X164169213Y-29488028D01*
X164003614Y-29367715D01*
X163966605Y-29348858D01*
X163910917Y-29320483D01*
X163860123Y-29272511D01*
X163843328Y-29204690D01*
X163865865Y-29138555D01*
X163910917Y-29099516D01*
X164003610Y-29052287D01*
X164103067Y-28980028D01*
X164169213Y-28931971D01*
X164169215Y-28931968D01*
X164169219Y-28931966D01*
X164313966Y-28787219D01*
X164313968Y-28787215D01*
X164313971Y-28787213D01*
X164398040Y-28671500D01*
X164434287Y-28621610D01*
X164527220Y-28439219D01*
X164590477Y-28244534D01*
X164622500Y-28042352D01*
X164622500Y-27837648D01*
X164590477Y-27635466D01*
X164527220Y-27440781D01*
X164527218Y-27440778D01*
X164527218Y-27440776D01*
X164470127Y-27328730D01*
X164434287Y-27258390D01*
X164426556Y-27247749D01*
X164313971Y-27092786D01*
X164169219Y-26948034D01*
X164122141Y-26913830D01*
X164075547Y-26879978D01*
X164032882Y-26824649D01*
X164026903Y-26755036D01*
X164059508Y-26693240D01*
X164109426Y-26661955D01*
X164191334Y-26634814D01*
X164340656Y-26542712D01*
X164464712Y-26418656D01*
X164556814Y-26269334D01*
X164568028Y-26235494D01*
X164607801Y-26178050D01*
X164672317Y-26151228D01*
X164685733Y-26150500D01*
X165499770Y-26150500D01*
X165566809Y-26170185D01*
G37*
%TD.AperFunction*%
%TA.AperFunction,Conductor*%
G36*
X199340539Y-15252185D02*
G01*
X199386294Y-15304989D01*
X199397500Y-15356500D01*
X199397500Y-68971500D01*
X199377815Y-69038539D01*
X199325011Y-69084294D01*
X199273500Y-69095500D01*
X113400500Y-69095500D01*
X113333461Y-69075815D01*
X113287706Y-69023011D01*
X113276500Y-68971500D01*
X113276500Y-66441713D01*
X114981500Y-66441713D01*
X114981500Y-66654286D01*
X115014753Y-66864239D01*
X115080444Y-67066414D01*
X115176951Y-67255820D01*
X115301890Y-67427786D01*
X115452213Y-67578109D01*
X115624179Y-67703048D01*
X115624181Y-67703049D01*
X115624184Y-67703051D01*
X115813588Y-67799557D01*
X116015757Y-67865246D01*
X116225713Y-67898500D01*
X116225714Y-67898500D01*
X116438286Y-67898500D01*
X116438287Y-67898500D01*
X116648243Y-67865246D01*
X116850412Y-67799557D01*
X117039816Y-67703051D01*
X117069085Y-67681786D01*
X117211786Y-67578109D01*
X117211788Y-67578106D01*
X117211792Y-67578104D01*
X117362104Y-67427792D01*
X117362106Y-67427788D01*
X117362109Y-67427786D01*
X117487048Y-67255820D01*
X117487047Y-67255820D01*
X117487051Y-67255816D01*
X117583557Y-67066412D01*
X117649246Y-66864243D01*
X117675939Y-66695713D01*
X193721500Y-66695713D01*
X193721500Y-66908286D01*
X193746544Y-67066412D01*
X193754754Y-67118243D01*
X193799454Y-67255816D01*
X193820444Y-67320414D01*
X193916951Y-67509820D01*
X194041890Y-67681786D01*
X194192213Y-67832109D01*
X194364179Y-67957048D01*
X194364181Y-67957049D01*
X194364184Y-67957051D01*
X194553588Y-68053557D01*
X194755757Y-68119246D01*
X194965713Y-68152500D01*
X194965714Y-68152500D01*
X195178286Y-68152500D01*
X195178287Y-68152500D01*
X195388243Y-68119246D01*
X195590412Y-68053557D01*
X195779816Y-67957051D01*
X195906176Y-67865246D01*
X195951786Y-67832109D01*
X195951788Y-67832106D01*
X195951792Y-67832104D01*
X196102104Y-67681792D01*
X196102106Y-67681788D01*
X196102109Y-67681786D01*
X196227048Y-67509820D01*
X196227047Y-67509820D01*
X196227051Y-67509816D01*
X196323557Y-67320412D01*
X196389246Y-67118243D01*
X196422500Y-66908287D01*
X196422500Y-66695713D01*
X196389246Y-66485757D01*
X196323557Y-66283588D01*
X196227051Y-66094184D01*
X196227049Y-66094181D01*
X196227048Y-66094179D01*
X196102109Y-65922213D01*
X195951786Y-65771890D01*
X195779820Y-65646951D01*
X195590414Y-65550444D01*
X195590413Y-65550443D01*
X195590412Y-65550443D01*
X195388243Y-65484754D01*
X195388241Y-65484753D01*
X195388240Y-65484753D01*
X195226957Y-65459208D01*
X195178287Y-65451500D01*
X194965713Y-65451500D01*
X194917042Y-65459208D01*
X194755760Y-65484753D01*
X194553585Y-65550444D01*
X194364179Y-65646951D01*
X194192213Y-65771890D01*
X194041890Y-65922213D01*
X193916951Y-66094179D01*
X193820444Y-66283585D01*
X193754753Y-66485760D01*
X193721500Y-66695713D01*
X117675939Y-66695713D01*
X117682500Y-66654287D01*
X117682500Y-66441713D01*
X117649246Y-66231757D01*
X117583557Y-66029588D01*
X117487051Y-65840184D01*
X117487049Y-65840181D01*
X117487048Y-65840179D01*
X117362109Y-65668213D01*
X117211786Y-65517890D01*
X117039820Y-65392951D01*
X116850414Y-65296444D01*
X116850413Y-65296443D01*
X116850412Y-65296443D01*
X116648243Y-65230754D01*
X116648241Y-65230753D01*
X116648240Y-65230753D01*
X116486957Y-65205208D01*
X116438287Y-65197500D01*
X116225713Y-65197500D01*
X116177042Y-65205208D01*
X116015760Y-65230753D01*
X115813585Y-65296444D01*
X115624179Y-65392951D01*
X115452213Y-65517890D01*
X115301890Y-65668213D01*
X115176951Y-65840179D01*
X115080444Y-66029585D01*
X115014753Y-66231760D01*
X114981500Y-66441713D01*
X113276500Y-66441713D01*
X113276500Y-52983648D01*
X134335500Y-52983648D01*
X134335500Y-53188351D01*
X134367522Y-53390534D01*
X134430781Y-53585223D01*
X134491886Y-53705147D01*
X134502419Y-53725819D01*
X134523715Y-53767613D01*
X134644028Y-53933213D01*
X134788786Y-54077971D01*
X134943749Y-54190556D01*
X134954390Y-54198287D01*
X135070607Y-54257503D01*
X135136776Y-54291218D01*
X135136778Y-54291218D01*
X135136781Y-54291220D01*
X135241137Y-54325127D01*
X135331465Y-54354477D01*
X135432557Y-54370488D01*
X135533648Y-54386500D01*
X135533649Y-54386500D01*
X135738351Y-54386500D01*
X135738352Y-54386500D01*
X135940534Y-54354477D01*
X136135219Y-54291220D01*
X136317610Y-54198287D01*
X136410590Y-54130732D01*
X136483213Y-54077971D01*
X136483215Y-54077968D01*
X136483219Y-54077966D01*
X136627966Y-53933219D01*
X136627968Y-53933215D01*
X136627971Y-53933213D01*
X136680732Y-53860590D01*
X136748287Y-53767610D01*
X136841220Y-53585219D01*
X136904477Y-53390534D01*
X136936500Y-53188352D01*
X136936500Y-52983648D01*
X136911207Y-52823954D01*
X136904477Y-52781465D01*
X136841218Y-52586776D01*
X136777189Y-52461114D01*
X136748287Y-52404390D01*
X136740556Y-52393749D01*
X136627971Y-52238786D01*
X136483213Y-52094028D01*
X136317613Y-51973715D01*
X136317612Y-51973714D01*
X136317610Y-51973713D01*
X136249258Y-51938886D01*
X136135223Y-51880781D01*
X135940534Y-51817522D01*
X135765995Y-51789878D01*
X135738352Y-51785500D01*
X135533648Y-51785500D01*
X135509329Y-51789351D01*
X135331465Y-51817522D01*
X135136776Y-51880781D01*
X134954386Y-51973715D01*
X134788786Y-52094028D01*
X134644028Y-52238786D01*
X134523715Y-52404386D01*
X134430781Y-52586776D01*
X134367522Y-52781465D01*
X134335500Y-52983648D01*
X113276500Y-52983648D01*
X113276500Y-44992014D01*
X119225500Y-44992014D01*
X119225500Y-45942000D01*
X120525499Y-45942000D01*
X120500479Y-46002402D01*
X120475500Y-46127981D01*
X120475500Y-46256019D01*
X120500479Y-46381598D01*
X120525499Y-46442000D01*
X119225500Y-46442000D01*
X119225500Y-47391985D01*
X119235993Y-47494689D01*
X119235994Y-47494696D01*
X119291141Y-47661118D01*
X119291143Y-47661123D01*
X119383184Y-47810344D01*
X119507155Y-47934315D01*
X119656376Y-48026356D01*
X119656381Y-48026358D01*
X119822803Y-48081505D01*
X119822810Y-48081506D01*
X119925514Y-48091999D01*
X119925527Y-48092000D01*
X120875500Y-48092000D01*
X120875500Y-46792001D01*
X120935902Y-46817021D01*
X121061481Y-46842000D01*
X121189519Y-46842000D01*
X121315098Y-46817021D01*
X121375500Y-46792001D01*
X121375500Y-48092000D01*
X122325473Y-48092000D01*
X122325485Y-48091999D01*
X122428189Y-48081506D01*
X122428196Y-48081505D01*
X122594618Y-48026358D01*
X122594623Y-48026356D01*
X122743844Y-47934315D01*
X122867815Y-47810344D01*
X122959856Y-47661123D01*
X122959858Y-47661118D01*
X123015005Y-47494696D01*
X123015006Y-47494689D01*
X123025499Y-47391985D01*
X123025500Y-47391972D01*
X123025500Y-46887648D01*
X134335500Y-46887648D01*
X134335500Y-47092351D01*
X134367522Y-47294534D01*
X134430781Y-47489223D01*
X134523715Y-47671613D01*
X134644028Y-47837213D01*
X134788786Y-47981971D01*
X134925786Y-48081505D01*
X134954390Y-48102287D01*
X135070607Y-48161503D01*
X135136776Y-48195218D01*
X135136778Y-48195218D01*
X135136781Y-48195220D01*
X135241137Y-48229127D01*
X135331465Y-48258477D01*
X135432557Y-48274488D01*
X135533648Y-48290500D01*
X135533649Y-48290500D01*
X135738351Y-48290500D01*
X135738352Y-48290500D01*
X135940534Y-48258477D01*
X136135219Y-48195220D01*
X136317610Y-48102287D01*
X136422121Y-48026356D01*
X136483213Y-47981971D01*
X136483215Y-47981968D01*
X136483219Y-47981966D01*
X136627966Y-47837219D01*
X136647492Y-47810344D01*
X136661100Y-47791615D01*
X136716429Y-47748949D01*
X136761418Y-47740500D01*
X139587500Y-47740500D01*
X139654539Y-47760185D01*
X139700294Y-47812989D01*
X139711500Y-47864500D01*
X139711500Y-58053500D01*
X139691815Y-58120539D01*
X139639011Y-58166294D01*
X139587500Y-58177500D01*
X136761418Y-58177500D01*
X136694379Y-58157815D01*
X136661100Y-58126385D01*
X136627971Y-58080787D01*
X136627967Y-58080782D01*
X136483213Y-57936028D01*
X136317613Y-57815715D01*
X136317612Y-57815714D01*
X136317610Y-57815713D01*
X136260653Y-57786691D01*
X136135223Y-57722781D01*
X135940534Y-57659522D01*
X135765995Y-57631878D01*
X135738352Y-57627500D01*
X135533648Y-57627500D01*
X135509329Y-57631351D01*
X135331465Y-57659522D01*
X135136776Y-57722781D01*
X134954386Y-57815715D01*
X134788786Y-57936028D01*
X134644028Y-58080786D01*
X134523715Y-58246386D01*
X134430781Y-58428776D01*
X134367522Y-58623465D01*
X134335500Y-58825648D01*
X134335500Y-59030351D01*
X134367522Y-59232534D01*
X134430781Y-59427223D01*
X134523715Y-59609613D01*
X134644028Y-59775213D01*
X134788786Y-59919971D01*
X134939148Y-60029213D01*
X134954390Y-60040287D01*
X135070607Y-60099503D01*
X135136776Y-60133218D01*
X135136778Y-60133218D01*
X135136781Y-60133220D01*
X135241137Y-60167127D01*
X135331465Y-60196477D01*
X135432557Y-60212488D01*
X135533648Y-60228500D01*
X135533649Y-60228500D01*
X135738351Y-60228500D01*
X135738352Y-60228500D01*
X135940534Y-60196477D01*
X136135219Y-60133220D01*
X136317610Y-60040287D01*
X136410590Y-59972732D01*
X136483213Y-59919971D01*
X136483215Y-59919968D01*
X136483219Y-59919966D01*
X136627966Y-59775219D01*
X136630650Y-59771524D01*
X136661100Y-59729615D01*
X136716429Y-59686949D01*
X136761418Y-59678500D01*
X140027920Y-59678500D01*
X140125462Y-59659096D01*
X140172913Y-59649658D01*
X140309495Y-59593084D01*
X140358729Y-59560186D01*
X140432416Y-59510952D01*
X141044951Y-58898416D01*
X141093573Y-58825648D01*
X149575500Y-58825648D01*
X149575500Y-59030351D01*
X149607522Y-59232534D01*
X149670781Y-59427223D01*
X149763715Y-59609613D01*
X149884028Y-59775213D01*
X150028786Y-59919971D01*
X150179148Y-60029213D01*
X150194390Y-60040287D01*
X150310607Y-60099503D01*
X150376776Y-60133218D01*
X150376778Y-60133218D01*
X150376781Y-60133220D01*
X150481137Y-60167127D01*
X150571465Y-60196477D01*
X150672557Y-60212488D01*
X150773648Y-60228500D01*
X150773649Y-60228500D01*
X150978351Y-60228500D01*
X150978352Y-60228500D01*
X151180534Y-60196477D01*
X151375219Y-60133220D01*
X151557610Y-60040287D01*
X151650590Y-59972732D01*
X151723213Y-59919971D01*
X151723215Y-59919968D01*
X151723219Y-59919966D01*
X151867966Y-59775219D01*
X151867968Y-59775215D01*
X151867971Y-59775213D01*
X151932097Y-59686949D01*
X151988287Y-59609610D01*
X152081220Y-59427219D01*
X152144477Y-59232534D01*
X152176500Y-59030352D01*
X152176500Y-58825648D01*
X152153033Y-58677483D01*
X152144477Y-58623465D01*
X152081218Y-58428776D01*
X152033327Y-58334786D01*
X151988287Y-58246390D01*
X151980556Y-58235749D01*
X151867971Y-58080786D01*
X151723213Y-57936028D01*
X151557613Y-57815715D01*
X151557612Y-57815714D01*
X151557610Y-57815713D01*
X151500653Y-57786691D01*
X151375223Y-57722781D01*
X151180534Y-57659522D01*
X151005995Y-57631878D01*
X150978352Y-57627500D01*
X150773648Y-57627500D01*
X150749329Y-57631351D01*
X150571465Y-57659522D01*
X150376776Y-57722781D01*
X150194386Y-57815715D01*
X150028786Y-57936028D01*
X149884028Y-58080786D01*
X149763715Y-58246386D01*
X149670781Y-58428776D01*
X149607522Y-58623465D01*
X149575500Y-58825648D01*
X141093573Y-58825648D01*
X141127084Y-58775495D01*
X141183658Y-58638913D01*
X141196867Y-58572506D01*
X141211213Y-58500390D01*
X141212500Y-58493920D01*
X141212500Y-52983648D01*
X149575500Y-52983648D01*
X149575500Y-53188351D01*
X149607522Y-53390534D01*
X149670781Y-53585223D01*
X149731886Y-53705147D01*
X149742419Y-53725819D01*
X149763715Y-53767613D01*
X149884028Y-53933213D01*
X150028786Y-54077971D01*
X150183749Y-54190556D01*
X150194390Y-54198287D01*
X150310607Y-54257503D01*
X150376776Y-54291218D01*
X150376778Y-54291218D01*
X150376781Y-54291220D01*
X150481137Y-54325127D01*
X150571465Y-54354477D01*
X150672557Y-54370488D01*
X150773648Y-54386500D01*
X150773649Y-54386500D01*
X150978351Y-54386500D01*
X150978352Y-54386500D01*
X151180534Y-54354477D01*
X151375219Y-54291220D01*
X151557610Y-54198287D01*
X151650590Y-54130732D01*
X151723213Y-54077971D01*
X151723215Y-54077968D01*
X151723219Y-54077966D01*
X151867966Y-53933219D01*
X151867968Y-53933215D01*
X151867971Y-53933213D01*
X151920732Y-53860590D01*
X151988287Y-53767610D01*
X152081220Y-53585219D01*
X152144477Y-53390534D01*
X152176500Y-53188352D01*
X152176500Y-52983648D01*
X152151207Y-52823954D01*
X152144477Y-52781465D01*
X152081218Y-52586776D01*
X152017189Y-52461114D01*
X151988287Y-52404390D01*
X151980556Y-52393749D01*
X151867971Y-52238786D01*
X151723213Y-52094028D01*
X151557613Y-51973715D01*
X151557612Y-51973714D01*
X151557610Y-51973713D01*
X151489258Y-51938886D01*
X151375223Y-51880781D01*
X151180534Y-51817522D01*
X151005995Y-51789878D01*
X150978352Y-51785500D01*
X150773648Y-51785500D01*
X150749329Y-51789351D01*
X150571465Y-51817522D01*
X150376776Y-51880781D01*
X150194386Y-51973715D01*
X150028786Y-52094028D01*
X149884028Y-52238786D01*
X149763715Y-52404386D01*
X149670781Y-52586776D01*
X149607522Y-52781465D01*
X149575500Y-52983648D01*
X141212500Y-52983648D01*
X141212500Y-46916079D01*
X141183659Y-46771092D01*
X141183658Y-46771091D01*
X141183658Y-46771087D01*
X141183656Y-46771082D01*
X141127087Y-46634511D01*
X141127080Y-46634498D01*
X141044951Y-46511584D01*
X141044948Y-46511580D01*
X140940419Y-46407051D01*
X140940415Y-46407048D01*
X140817501Y-46324919D01*
X140817488Y-46324912D01*
X140680917Y-46268343D01*
X140680907Y-46268340D01*
X140535920Y-46239500D01*
X140535918Y-46239500D01*
X136761418Y-46239500D01*
X136694379Y-46219815D01*
X136661100Y-46188385D01*
X136627971Y-46142787D01*
X136627967Y-46142782D01*
X136483213Y-45998028D01*
X136317613Y-45877715D01*
X136317612Y-45877714D01*
X136317610Y-45877713D01*
X136209506Y-45822631D01*
X136135223Y-45784781D01*
X135940534Y-45721522D01*
X135765995Y-45693878D01*
X135738352Y-45689500D01*
X135533648Y-45689500D01*
X135509329Y-45693351D01*
X135331465Y-45721522D01*
X135136776Y-45784781D01*
X134954386Y-45877715D01*
X134788786Y-45998028D01*
X134644028Y-46142786D01*
X134523715Y-46308386D01*
X134430781Y-46490776D01*
X134367522Y-46685465D01*
X134335500Y-46887648D01*
X123025500Y-46887648D01*
X123025500Y-46442000D01*
X121725501Y-46442000D01*
X121750521Y-46381598D01*
X121775500Y-46256019D01*
X121775500Y-46127981D01*
X121750521Y-46002402D01*
X121725501Y-45942000D01*
X123025500Y-45942000D01*
X123025500Y-44992027D01*
X123025499Y-44992014D01*
X123015006Y-44889310D01*
X123015005Y-44889303D01*
X122959858Y-44722881D01*
X122959856Y-44722876D01*
X122867815Y-44573655D01*
X122743844Y-44449684D01*
X122594623Y-44357643D01*
X122594618Y-44357641D01*
X122428196Y-44302494D01*
X122428189Y-44302493D01*
X122325485Y-44292000D01*
X121375500Y-44292000D01*
X121375500Y-45591998D01*
X121315098Y-45566979D01*
X121189519Y-45542000D01*
X121061481Y-45542000D01*
X120935902Y-45566979D01*
X120875500Y-45591998D01*
X120875500Y-44292000D01*
X119925514Y-44292000D01*
X119822810Y-44302493D01*
X119822803Y-44302494D01*
X119656381Y-44357641D01*
X119656376Y-44357643D01*
X119507155Y-44449684D01*
X119383184Y-44573655D01*
X119291143Y-44722876D01*
X119291141Y-44722881D01*
X119235994Y-44889303D01*
X119235993Y-44889310D01*
X119225500Y-44992014D01*
X113276500Y-44992014D01*
X113276500Y-41067441D01*
X119225000Y-41067441D01*
X119225000Y-41316558D01*
X119225001Y-41316575D01*
X119257517Y-41563561D01*
X119321998Y-41804207D01*
X119417330Y-42034361D01*
X119417337Y-42034376D01*
X119541900Y-42250126D01*
X119693560Y-42447774D01*
X119693566Y-42447781D01*
X119869718Y-42623933D01*
X119869725Y-42623939D01*
X120067373Y-42775599D01*
X120283123Y-42900162D01*
X120283138Y-42900169D01*
X120382325Y-42941253D01*
X120513293Y-42995502D01*
X120753935Y-43059982D01*
X121000935Y-43092500D01*
X121000942Y-43092500D01*
X121250058Y-43092500D01*
X121250065Y-43092500D01*
X121497065Y-43059982D01*
X121737707Y-42995502D01*
X121967873Y-42900164D01*
X122183627Y-42775599D01*
X122381276Y-42623938D01*
X122557438Y-42447776D01*
X122709099Y-42250127D01*
X122833664Y-42034373D01*
X122840011Y-42019050D01*
X122883851Y-41964646D01*
X122950144Y-41942579D01*
X122954573Y-41942500D01*
X131093920Y-41942500D01*
X131191462Y-41923096D01*
X131238913Y-41913658D01*
X131375495Y-41857084D01*
X131441346Y-41813084D01*
X131441346Y-41813083D01*
X131441348Y-41813083D01*
X131469881Y-41794018D01*
X131498416Y-41774952D01*
X131900952Y-41372415D01*
X131961000Y-41282546D01*
X131983084Y-41249495D01*
X132037517Y-41118082D01*
X132039659Y-41112912D01*
X132067001Y-40975453D01*
X132068500Y-40967918D01*
X132068500Y-35203682D01*
X134336000Y-35203682D01*
X134336000Y-35408317D01*
X134368009Y-35610417D01*
X134431244Y-35805031D01*
X134524141Y-35987350D01*
X134524147Y-35987359D01*
X134556523Y-36031921D01*
X134556524Y-36031922D01*
X135236000Y-35352446D01*
X135236000Y-35358661D01*
X135263259Y-35460394D01*
X135315920Y-35551606D01*
X135390394Y-35626080D01*
X135481606Y-35678741D01*
X135583339Y-35706000D01*
X135589553Y-35706000D01*
X134910076Y-36385474D01*
X134954650Y-36417859D01*
X135136968Y-36510755D01*
X135331582Y-36573990D01*
X135533683Y-36606000D01*
X135738317Y-36606000D01*
X135940417Y-36573990D01*
X136135031Y-36510755D01*
X136317349Y-36417859D01*
X136361921Y-36385474D01*
X135682447Y-35706000D01*
X135688661Y-35706000D01*
X135790394Y-35678741D01*
X135881606Y-35626080D01*
X135956080Y-35551606D01*
X136008741Y-35460394D01*
X136036000Y-35358661D01*
X136036000Y-35352447D01*
X136715474Y-36031921D01*
X136747859Y-35987349D01*
X136840755Y-35805031D01*
X136903990Y-35610417D01*
X136936000Y-35408317D01*
X136936000Y-35203682D01*
X136903990Y-35001582D01*
X136840755Y-34806968D01*
X136747859Y-34624650D01*
X136715474Y-34580077D01*
X136715474Y-34580076D01*
X136036000Y-35259551D01*
X136036000Y-35253339D01*
X136008741Y-35151606D01*
X135956080Y-35060394D01*
X135881606Y-34985920D01*
X135790394Y-34933259D01*
X135688661Y-34906000D01*
X135682446Y-34906000D01*
X136361922Y-34226524D01*
X136361921Y-34226523D01*
X136317359Y-34194147D01*
X136317350Y-34194141D01*
X136135031Y-34101244D01*
X135940417Y-34038009D01*
X135738317Y-34006000D01*
X135533683Y-34006000D01*
X135331582Y-34038009D01*
X135136968Y-34101244D01*
X134954644Y-34194143D01*
X134910077Y-34226523D01*
X134910077Y-34226524D01*
X135589554Y-34906000D01*
X135583339Y-34906000D01*
X135481606Y-34933259D01*
X135390394Y-34985920D01*
X135315920Y-35060394D01*
X135263259Y-35151606D01*
X135236000Y-35253339D01*
X135236000Y-35259553D01*
X134556524Y-34580077D01*
X134556523Y-34580077D01*
X134524143Y-34624644D01*
X134431244Y-34806968D01*
X134368009Y-35001582D01*
X134336000Y-35203682D01*
X132068500Y-35203682D01*
X132068500Y-22968229D01*
X132088185Y-22901190D01*
X132104819Y-22880548D01*
X134132548Y-20852819D01*
X134193871Y-20819334D01*
X134220229Y-20816500D01*
X149493500Y-20816500D01*
X149560539Y-20836185D01*
X149606294Y-20888989D01*
X149617500Y-20940500D01*
X149617500Y-23258582D01*
X149597815Y-23325621D01*
X149566385Y-23358900D01*
X149520787Y-23392028D01*
X149520782Y-23392032D01*
X149376028Y-23536786D01*
X149255715Y-23702386D01*
X149162781Y-23884776D01*
X149099522Y-24079465D01*
X149067500Y-24281648D01*
X149067500Y-24486351D01*
X149099522Y-24688534D01*
X149162781Y-24883223D01*
X149226691Y-25008653D01*
X149249766Y-25053939D01*
X149255715Y-25065613D01*
X149376028Y-25231213D01*
X149520786Y-25375971D01*
X149642535Y-25464425D01*
X149686390Y-25496287D01*
X149802607Y-25555503D01*
X149868776Y-25589218D01*
X149868778Y-25589218D01*
X149868781Y-25589220D01*
X149973137Y-25623127D01*
X150063465Y-25652477D01*
X150164557Y-25668488D01*
X150265648Y-25684500D01*
X150265649Y-25684500D01*
X150470351Y-25684500D01*
X150470352Y-25684500D01*
X150672534Y-25652477D01*
X150867219Y-25589220D01*
X151049610Y-25496287D01*
X151169619Y-25409096D01*
X151215213Y-25375971D01*
X151215215Y-25375968D01*
X151215219Y-25375966D01*
X151359966Y-25231219D01*
X151359968Y-25231215D01*
X151359971Y-25231213D01*
X151412732Y-25158590D01*
X151480287Y-25065610D01*
X151573220Y-24883219D01*
X151636477Y-24688534D01*
X151668500Y-24486352D01*
X151668500Y-24281648D01*
X151636477Y-24079466D01*
X151573220Y-23884781D01*
X151573218Y-23884778D01*
X151573218Y-23884776D01*
X151502795Y-23746565D01*
X151480287Y-23702390D01*
X151472556Y-23691749D01*
X151359971Y-23536786D01*
X151215217Y-23392032D01*
X151215212Y-23392028D01*
X151169615Y-23358900D01*
X151126949Y-23303571D01*
X151118500Y-23258582D01*
X151118500Y-20940500D01*
X151138185Y-20873461D01*
X151190989Y-20827706D01*
X151242500Y-20816500D01*
X173369500Y-20816500D01*
X173436539Y-20836185D01*
X173482294Y-20888989D01*
X173493500Y-20940500D01*
X173493500Y-24525500D01*
X173473815Y-24592539D01*
X173421011Y-24638294D01*
X173369500Y-24649500D01*
X172067418Y-24649500D01*
X172000379Y-24629815D01*
X171967100Y-24598385D01*
X171933971Y-24552787D01*
X171933967Y-24552782D01*
X171789213Y-24408028D01*
X171623613Y-24287715D01*
X171623612Y-24287714D01*
X171623610Y-24287713D01*
X171563898Y-24257288D01*
X171441223Y-24194781D01*
X171246534Y-24131522D01*
X171071995Y-24103878D01*
X171044352Y-24099500D01*
X170839648Y-24099500D01*
X170815329Y-24103351D01*
X170637465Y-24131522D01*
X170442776Y-24194781D01*
X170260386Y-24287715D01*
X170094786Y-24408028D01*
X169950028Y-24552786D01*
X169829715Y-24718386D01*
X169736781Y-24900776D01*
X169673522Y-25095465D01*
X169641500Y-25297648D01*
X169641500Y-25502351D01*
X169673522Y-25704534D01*
X169736781Y-25899223D01*
X169829715Y-26081613D01*
X169950028Y-26247213D01*
X170094786Y-26391971D01*
X170249749Y-26504556D01*
X170260390Y-26512287D01*
X170351840Y-26558883D01*
X170353080Y-26559515D01*
X170403876Y-26607490D01*
X170420671Y-26675311D01*
X170398134Y-26741446D01*
X170353080Y-26780485D01*
X170260386Y-26827715D01*
X170094786Y-26948028D01*
X169950028Y-27092786D01*
X169829715Y-27258386D01*
X169736781Y-27440776D01*
X169673522Y-27635465D01*
X169641220Y-27839415D01*
X169611291Y-27902550D01*
X169551979Y-27939481D01*
X169482117Y-27938483D01*
X169431066Y-27907698D01*
X166340421Y-24817052D01*
X166340414Y-24817046D01*
X166266729Y-24767812D01*
X166266729Y-24767813D01*
X166217491Y-24734913D01*
X166080917Y-24678343D01*
X166080907Y-24678340D01*
X165935920Y-24649500D01*
X165935918Y-24649500D01*
X164685733Y-24649500D01*
X164618694Y-24629815D01*
X164572939Y-24577011D01*
X164568028Y-24564506D01*
X164563495Y-24550829D01*
X164556814Y-24530666D01*
X164464712Y-24381344D01*
X164340656Y-24257288D01*
X164191334Y-24165186D01*
X164024797Y-24110001D01*
X164024795Y-24110000D01*
X163922010Y-24099500D01*
X162721998Y-24099500D01*
X162721981Y-24099501D01*
X162619203Y-24110000D01*
X162619200Y-24110001D01*
X162452668Y-24165185D01*
X162452663Y-24165187D01*
X162303342Y-24257289D01*
X162179289Y-24381342D01*
X162087187Y-24530663D01*
X162087184Y-24530671D01*
X162075972Y-24564506D01*
X162036199Y-24621950D01*
X161971683Y-24648772D01*
X161958267Y-24649500D01*
X160454080Y-24649500D01*
X160309092Y-24678340D01*
X160309082Y-24678343D01*
X160172511Y-24734912D01*
X160172498Y-24734919D01*
X160049584Y-24817048D01*
X160049580Y-24817051D01*
X159945051Y-24921580D01*
X159945048Y-24921584D01*
X159862919Y-25044498D01*
X159862912Y-25044511D01*
X159806343Y-25181082D01*
X159806340Y-25181092D01*
X159777500Y-25326079D01*
X159777500Y-29097500D01*
X159757815Y-29164539D01*
X159705011Y-29210294D01*
X159653500Y-29221500D01*
X151493418Y-29221500D01*
X151426379Y-29201815D01*
X151393100Y-29170385D01*
X151359971Y-29124787D01*
X151359967Y-29124782D01*
X151215213Y-28980028D01*
X151049613Y-28859715D01*
X151049612Y-28859714D01*
X151049610Y-28859713D01*
X150992653Y-28830691D01*
X150867223Y-28766781D01*
X150672534Y-28703522D01*
X150497995Y-28675878D01*
X150470352Y-28671500D01*
X150265648Y-28671500D01*
X150241329Y-28675351D01*
X150063465Y-28703522D01*
X149868776Y-28766781D01*
X149686386Y-28859715D01*
X149520786Y-28980028D01*
X149376028Y-29124786D01*
X149255715Y-29290386D01*
X149162781Y-29472776D01*
X149099522Y-29667465D01*
X149067500Y-29869648D01*
X149067500Y-30074351D01*
X149099522Y-30276534D01*
X149162781Y-30471223D01*
X149255715Y-30653613D01*
X149376028Y-30819213D01*
X149520786Y-30963971D01*
X149675749Y-31076556D01*
X149686390Y-31084287D01*
X149802607Y-31143503D01*
X149868776Y-31177218D01*
X149868778Y-31177218D01*
X149868781Y-31177220D01*
X149973137Y-31211127D01*
X150063465Y-31240477D01*
X150124759Y-31250185D01*
X150265648Y-31272500D01*
X150265649Y-31272500D01*
X150470351Y-31272500D01*
X150470352Y-31272500D01*
X150672534Y-31240477D01*
X150867219Y-31177220D01*
X151049610Y-31084287D01*
X151142590Y-31016732D01*
X151215213Y-30963971D01*
X151215215Y-30963968D01*
X151215219Y-30963966D01*
X151359966Y-30819219D01*
X151377570Y-30794989D01*
X151393100Y-30773615D01*
X151448429Y-30730949D01*
X151493418Y-30722500D01*
X160194770Y-30722500D01*
X160261809Y-30742185D01*
X160307564Y-30794989D01*
X160317508Y-30864147D01*
X160288483Y-30927703D01*
X160282451Y-30934181D01*
X159945048Y-31271583D01*
X159926400Y-31299493D01*
X159907875Y-31327219D01*
X159862919Y-31394499D01*
X159862912Y-31394511D01*
X159806343Y-31531082D01*
X159806340Y-31531092D01*
X159777500Y-31676079D01*
X159777500Y-31676082D01*
X159777500Y-36141918D01*
X159777500Y-36141920D01*
X159777499Y-36141920D01*
X159806340Y-36286907D01*
X159806343Y-36286917D01*
X159862914Y-36423492D01*
X159895812Y-36472727D01*
X159895813Y-36472730D01*
X159945046Y-36546414D01*
X159945052Y-36546421D01*
X160961048Y-37562416D01*
X161310451Y-37911819D01*
X161343936Y-37973142D01*
X161338952Y-38042834D01*
X161297080Y-38098767D01*
X161231616Y-38123184D01*
X161222770Y-38123500D01*
X161211903Y-38123500D01*
X160978631Y-38160446D01*
X160754003Y-38233433D01*
X160543566Y-38340657D01*
X160434550Y-38419862D01*
X160352490Y-38479483D01*
X160352488Y-38479485D01*
X160352487Y-38479485D01*
X160185485Y-38646487D01*
X160185485Y-38646488D01*
X160185483Y-38646490D01*
X160156423Y-38686488D01*
X160046657Y-38837566D01*
X159939433Y-39048003D01*
X159866446Y-39272631D01*
X159829500Y-39505902D01*
X159829500Y-39742097D01*
X159866446Y-39975368D01*
X159939433Y-40199996D01*
X160033446Y-40384505D01*
X160046657Y-40410433D01*
X160185483Y-40601510D01*
X160352490Y-40768517D01*
X160543567Y-40907343D01*
X160642991Y-40958002D01*
X160754003Y-41014566D01*
X160754005Y-41014566D01*
X160754008Y-41014568D01*
X160874412Y-41053689D01*
X160978631Y-41087553D01*
X161211903Y-41124500D01*
X161211908Y-41124500D01*
X161448097Y-41124500D01*
X161681368Y-41087553D01*
X161743266Y-41067441D01*
X161905992Y-41014568D01*
X162116433Y-40907343D01*
X162307510Y-40768517D01*
X162474517Y-40601510D01*
X162601182Y-40427170D01*
X162656512Y-40384505D01*
X162726125Y-40378526D01*
X162787920Y-40411132D01*
X162822278Y-40471971D01*
X162825500Y-40500056D01*
X162825500Y-43573943D01*
X162805815Y-43640982D01*
X162753011Y-43686737D01*
X162683853Y-43696681D01*
X162620297Y-43667656D01*
X162601182Y-43646829D01*
X162549358Y-43575500D01*
X162474517Y-43472490D01*
X162307510Y-43305483D01*
X162116433Y-43166657D01*
X162110237Y-43163500D01*
X161905996Y-43059433D01*
X161681368Y-42986446D01*
X161448097Y-42949500D01*
X161448092Y-42949500D01*
X161211908Y-42949500D01*
X161211903Y-42949500D01*
X160978631Y-42986446D01*
X160754003Y-43059433D01*
X160543566Y-43166657D01*
X160497059Y-43200447D01*
X160352490Y-43305483D01*
X160352488Y-43305485D01*
X160352487Y-43305485D01*
X160185485Y-43472487D01*
X160185485Y-43472488D01*
X160185483Y-43472490D01*
X160151339Y-43519485D01*
X160046657Y-43663566D01*
X159939433Y-43874003D01*
X159866446Y-44098631D01*
X159829500Y-44331902D01*
X159829500Y-44568097D01*
X159866446Y-44801368D01*
X159939433Y-45025996D01*
X160013653Y-45171659D01*
X160046657Y-45236433D01*
X160185483Y-45427510D01*
X160352490Y-45594517D01*
X160528386Y-45722313D01*
X160571051Y-45777643D01*
X160579500Y-45822631D01*
X160579500Y-46079770D01*
X160570855Y-46109210D01*
X160564332Y-46139197D01*
X160560577Y-46144212D01*
X160559815Y-46146809D01*
X160543181Y-46167451D01*
X160507451Y-46203181D01*
X160446128Y-46236666D01*
X160419770Y-46239500D01*
X152001418Y-46239500D01*
X151934379Y-46219815D01*
X151901100Y-46188385D01*
X151867971Y-46142787D01*
X151867967Y-46142782D01*
X151723213Y-45998028D01*
X151557613Y-45877715D01*
X151557612Y-45877714D01*
X151557610Y-45877713D01*
X151440205Y-45817892D01*
X151389409Y-45769917D01*
X151372500Y-45707407D01*
X151372500Y-42527416D01*
X151392185Y-42460377D01*
X151423613Y-42427099D01*
X151469219Y-42393966D01*
X151613966Y-42249219D01*
X151613968Y-42249215D01*
X151613971Y-42249213D01*
X151684236Y-42152500D01*
X151734287Y-42083610D01*
X151827220Y-41901219D01*
X151890477Y-41706534D01*
X151922500Y-41504352D01*
X151922500Y-41299648D01*
X151901094Y-41164500D01*
X151890477Y-41097465D01*
X151850833Y-40975455D01*
X151827220Y-40902781D01*
X151827218Y-40902778D01*
X151827218Y-40902776D01*
X151758807Y-40768514D01*
X151734287Y-40720390D01*
X151717614Y-40697442D01*
X151650181Y-40604625D01*
X151626702Y-40538818D01*
X151626500Y-40531741D01*
X151626500Y-36431416D01*
X151646185Y-36364377D01*
X151677613Y-36331099D01*
X151723219Y-36297966D01*
X151867966Y-36153219D01*
X151867968Y-36153215D01*
X151867971Y-36153213D01*
X151938236Y-36056500D01*
X151988287Y-35987610D01*
X152081220Y-35805219D01*
X152144477Y-35610534D01*
X152176500Y-35408352D01*
X152176500Y-35203648D01*
X152159311Y-35095124D01*
X152144477Y-35001465D01*
X152104287Y-34877774D01*
X152081220Y-34806781D01*
X152081218Y-34806778D01*
X152081218Y-34806776D01*
X152016686Y-34680127D01*
X151988287Y-34624390D01*
X151956092Y-34580077D01*
X151867971Y-34458786D01*
X151723213Y-34314028D01*
X151557613Y-34193715D01*
X151557612Y-34193714D01*
X151557610Y-34193713D01*
X151480682Y-34154516D01*
X151375223Y-34100781D01*
X151180534Y-34037522D01*
X151005995Y-34009878D01*
X150978352Y-34005500D01*
X150773648Y-34005500D01*
X150749329Y-34009351D01*
X150571465Y-34037522D01*
X150376776Y-34100781D01*
X150194386Y-34193715D01*
X150028786Y-34314028D01*
X149884032Y-34458782D01*
X149884028Y-34458787D01*
X149850900Y-34504385D01*
X149795571Y-34547051D01*
X149750582Y-34555500D01*
X145908500Y-34555500D01*
X145841461Y-34535815D01*
X145795706Y-34483011D01*
X145784500Y-34431500D01*
X145784500Y-28374079D01*
X145755659Y-28229092D01*
X145755658Y-28229091D01*
X145755658Y-28229087D01*
X145755656Y-28229082D01*
X145699087Y-28092511D01*
X145699080Y-28092498D01*
X145616951Y-27969584D01*
X145616948Y-27969580D01*
X145512419Y-27865051D01*
X145512415Y-27865048D01*
X145389501Y-27782919D01*
X145389488Y-27782912D01*
X145252917Y-27726343D01*
X145252907Y-27726340D01*
X145107920Y-27697500D01*
X145107918Y-27697500D01*
X137014229Y-27697500D01*
X136947190Y-27677815D01*
X136926548Y-27661181D01*
X135914819Y-26649451D01*
X135881334Y-26588128D01*
X135878500Y-26561770D01*
X135878500Y-25509416D01*
X135898185Y-25442377D01*
X135929613Y-25409099D01*
X135975219Y-25375966D01*
X136119966Y-25231219D01*
X136119968Y-25231215D01*
X136119971Y-25231213D01*
X136172732Y-25158590D01*
X136240287Y-25065610D01*
X136333220Y-24883219D01*
X136396477Y-24688534D01*
X136428500Y-24486352D01*
X136428500Y-24281648D01*
X136396477Y-24079466D01*
X136333220Y-23884781D01*
X136333218Y-23884778D01*
X136333218Y-23884776D01*
X136262795Y-23746565D01*
X136240287Y-23702390D01*
X136232556Y-23691749D01*
X136119971Y-23536786D01*
X135975213Y-23392028D01*
X135809613Y-23271715D01*
X135809612Y-23271714D01*
X135809610Y-23271713D01*
X135752653Y-23242691D01*
X135627223Y-23178781D01*
X135432534Y-23115522D01*
X135257995Y-23087878D01*
X135230352Y-23083500D01*
X135025648Y-23083500D01*
X135001329Y-23087351D01*
X134823465Y-23115522D01*
X134628776Y-23178781D01*
X134446386Y-23271715D01*
X134280786Y-23392028D01*
X134136028Y-23536786D01*
X134015715Y-23702386D01*
X133922781Y-23884776D01*
X133859522Y-24079465D01*
X133827500Y-24281648D01*
X133827500Y-24486351D01*
X133859522Y-24688534D01*
X133922781Y-24883223D01*
X133986691Y-25008653D01*
X134009766Y-25053939D01*
X134015715Y-25065613D01*
X134136028Y-25231213D01*
X134136034Y-25231219D01*
X134280781Y-25375966D01*
X134326384Y-25409098D01*
X134369050Y-25464425D01*
X134377500Y-25509416D01*
X134377500Y-26997918D01*
X134377500Y-26997920D01*
X134377499Y-26997920D01*
X134406340Y-27142907D01*
X134406343Y-27142917D01*
X134462914Y-27279492D01*
X134495812Y-27328727D01*
X134495813Y-27328730D01*
X134545046Y-27402414D01*
X134545052Y-27402421D01*
X135680015Y-28537383D01*
X135713500Y-28598706D01*
X135708516Y-28668398D01*
X135666644Y-28724331D01*
X135601180Y-28748748D01*
X135554017Y-28742995D01*
X135517795Y-28731226D01*
X135432534Y-28703522D01*
X135257995Y-28675878D01*
X135230352Y-28671500D01*
X135025648Y-28671500D01*
X135001329Y-28675351D01*
X134823465Y-28703522D01*
X134628776Y-28766781D01*
X134446386Y-28859715D01*
X134280786Y-28980028D01*
X134136028Y-29124786D01*
X134015715Y-29290386D01*
X133922781Y-29472776D01*
X133859522Y-29667465D01*
X133827500Y-29869648D01*
X133827500Y-30074351D01*
X133859522Y-30276534D01*
X133922781Y-30471223D01*
X134015715Y-30653613D01*
X134136028Y-30819213D01*
X134280786Y-30963971D01*
X134435749Y-31076556D01*
X134446390Y-31084287D01*
X134562607Y-31143503D01*
X134628776Y-31177218D01*
X134628778Y-31177218D01*
X134628781Y-31177220D01*
X134733137Y-31211127D01*
X134823465Y-31240477D01*
X134884759Y-31250185D01*
X135025648Y-31272500D01*
X135025649Y-31272500D01*
X135230351Y-31272500D01*
X135230352Y-31272500D01*
X135432534Y-31240477D01*
X135627219Y-31177220D01*
X135809610Y-31084287D01*
X135902590Y-31016732D01*
X135975213Y-30963971D01*
X135975215Y-30963968D01*
X135975219Y-30963966D01*
X136119966Y-30819219D01*
X136137570Y-30794989D01*
X136153100Y-30773615D01*
X136208429Y-30730949D01*
X136253418Y-30722500D01*
X138571500Y-30722500D01*
X138638539Y-30742185D01*
X138684294Y-30794989D01*
X138695500Y-30846500D01*
X138695500Y-39515770D01*
X138675815Y-39582809D01*
X138659181Y-39603451D01*
X137647451Y-40615181D01*
X137586128Y-40648666D01*
X137559770Y-40651500D01*
X136507418Y-40651500D01*
X136440379Y-40631815D01*
X136407100Y-40600385D01*
X136373971Y-40554787D01*
X136373967Y-40554782D01*
X136229213Y-40410028D01*
X136063613Y-40289715D01*
X136063612Y-40289714D01*
X136063610Y-40289713D01*
X136006653Y-40260691D01*
X135881223Y-40196781D01*
X135686534Y-40133522D01*
X135511995Y-40105878D01*
X135484352Y-40101500D01*
X135279648Y-40101500D01*
X135255329Y-40105351D01*
X135077465Y-40133522D01*
X134882776Y-40196781D01*
X134700386Y-40289715D01*
X134534786Y-40410028D01*
X134390028Y-40554786D01*
X134269715Y-40720386D01*
X134176781Y-40902776D01*
X134113522Y-41097465D01*
X134081500Y-41299648D01*
X134081500Y-41504351D01*
X134113522Y-41706534D01*
X134176781Y-41901223D01*
X134219443Y-41984950D01*
X134244625Y-42034373D01*
X134269715Y-42083613D01*
X134390028Y-42249213D01*
X134534786Y-42393971D01*
X134656535Y-42482425D01*
X134700390Y-42514287D01*
X134816607Y-42573503D01*
X134882776Y-42607218D01*
X134882778Y-42607218D01*
X134882781Y-42607220D01*
X134934234Y-42623938D01*
X135077465Y-42670477D01*
X135178557Y-42686488D01*
X135279648Y-42702500D01*
X135279649Y-42702500D01*
X135484351Y-42702500D01*
X135484352Y-42702500D01*
X135686534Y-42670477D01*
X135881219Y-42607220D01*
X136063610Y-42514287D01*
X136183619Y-42427096D01*
X136229213Y-42393971D01*
X136229215Y-42393968D01*
X136229219Y-42393966D01*
X136373966Y-42249219D01*
X136376650Y-42245524D01*
X136407100Y-42203615D01*
X136462429Y-42160949D01*
X136507418Y-42152500D01*
X137995920Y-42152500D01*
X138093462Y-42133096D01*
X138140913Y-42123658D01*
X138277495Y-42067084D01*
X138326729Y-42034186D01*
X138400416Y-41984952D01*
X140028951Y-40356416D01*
X140111084Y-40233495D01*
X140167658Y-40096913D01*
X140173045Y-40069829D01*
X140196500Y-39951918D01*
X140196500Y-29898082D01*
X140196500Y-29898079D01*
X140167659Y-29753092D01*
X140167658Y-29753091D01*
X140167658Y-29753087D01*
X140149734Y-29709815D01*
X140111087Y-29616511D01*
X140111080Y-29616498D01*
X140028951Y-29493584D01*
X140028948Y-29493580D01*
X139945549Y-29410181D01*
X139912064Y-29348858D01*
X139917048Y-29279166D01*
X139958920Y-29223233D01*
X140024384Y-29198816D01*
X140033230Y-29198500D01*
X144159500Y-29198500D01*
X144226539Y-29218185D01*
X144272294Y-29270989D01*
X144283500Y-29322500D01*
X144283500Y-35232082D01*
X144283500Y-35379918D01*
X144283500Y-35379920D01*
X144283499Y-35379920D01*
X144312340Y-35524907D01*
X144312343Y-35524917D01*
X144368912Y-35661488D01*
X144368919Y-35661501D01*
X144451048Y-35784415D01*
X144451051Y-35784419D01*
X144555580Y-35888948D01*
X144555584Y-35888951D01*
X144678498Y-35971080D01*
X144678511Y-35971087D01*
X144815082Y-36027656D01*
X144815087Y-36027658D01*
X144815091Y-36027658D01*
X144815092Y-36027659D01*
X144960079Y-36056500D01*
X144960082Y-36056500D01*
X149750582Y-36056500D01*
X149817621Y-36076185D01*
X149850900Y-36107615D01*
X149884028Y-36153212D01*
X149884032Y-36153217D01*
X149884034Y-36153219D01*
X150028781Y-36297966D01*
X150074384Y-36331098D01*
X150117050Y-36386425D01*
X150125500Y-36431416D01*
X150125500Y-40119407D01*
X150105815Y-40186446D01*
X150057795Y-40229892D01*
X149940386Y-40289715D01*
X149774786Y-40410028D01*
X149630028Y-40554786D01*
X149509715Y-40720386D01*
X149416781Y-40902776D01*
X149353522Y-41097465D01*
X149321500Y-41299648D01*
X149321500Y-41504351D01*
X149353522Y-41706534D01*
X149416781Y-41901223D01*
X149459443Y-41984950D01*
X149484625Y-42034373D01*
X149509715Y-42083613D01*
X149630028Y-42249213D01*
X149630034Y-42249219D01*
X149774781Y-42393966D01*
X149820384Y-42427098D01*
X149863050Y-42482425D01*
X149871500Y-42527416D01*
X149871500Y-46119741D01*
X149851815Y-46186780D01*
X149847819Y-46192625D01*
X149763713Y-46308389D01*
X149763712Y-46308391D01*
X149670781Y-46490776D01*
X149607522Y-46685465D01*
X149575500Y-46887648D01*
X149575500Y-47092351D01*
X149607522Y-47294534D01*
X149670781Y-47489223D01*
X149763715Y-47671613D01*
X149884028Y-47837213D01*
X150028786Y-47981971D01*
X150165786Y-48081505D01*
X150194390Y-48102287D01*
X150310607Y-48161503D01*
X150376776Y-48195218D01*
X150376778Y-48195218D01*
X150376781Y-48195220D01*
X150481137Y-48229127D01*
X150571465Y-48258477D01*
X150672557Y-48274488D01*
X150773648Y-48290500D01*
X150773649Y-48290500D01*
X150978351Y-48290500D01*
X150978352Y-48290500D01*
X151180534Y-48258477D01*
X151375219Y-48195220D01*
X151557610Y-48102287D01*
X151662121Y-48026356D01*
X151723213Y-47981971D01*
X151723215Y-47981968D01*
X151723219Y-47981966D01*
X151867966Y-47837219D01*
X151887492Y-47810344D01*
X151901100Y-47791615D01*
X151956429Y-47748949D01*
X152001418Y-47740500D01*
X160161500Y-47740500D01*
X160228539Y-47760185D01*
X160274294Y-47812989D01*
X160285500Y-47864500D01*
X160285500Y-55953918D01*
X160285500Y-55953920D01*
X160285499Y-55953920D01*
X160314340Y-56098907D01*
X160314343Y-56098917D01*
X160370914Y-56235492D01*
X160403812Y-56284727D01*
X160403813Y-56284730D01*
X160453046Y-56358414D01*
X160453052Y-56358421D01*
X161319584Y-57224952D01*
X161319586Y-57224954D01*
X161345964Y-57242578D01*
X161393270Y-57274186D01*
X161442505Y-57307084D01*
X161492279Y-57327701D01*
X161498120Y-57330120D01*
X161498123Y-57330122D01*
X161525540Y-57341478D01*
X161579088Y-57363659D01*
X161695241Y-57386763D01*
X161714468Y-57390587D01*
X161724081Y-57392500D01*
X161724082Y-57392500D01*
X161724083Y-57392500D01*
X161871918Y-57392500D01*
X162958582Y-57392500D01*
X163025621Y-57412185D01*
X163058900Y-57443615D01*
X163092028Y-57489212D01*
X163092032Y-57489217D01*
X163236786Y-57633971D01*
X163347528Y-57714428D01*
X163402390Y-57754287D01*
X163493840Y-57800883D01*
X163495080Y-57801515D01*
X163545876Y-57849490D01*
X163562671Y-57917311D01*
X163540134Y-57983446D01*
X163495080Y-58022485D01*
X163402386Y-58069715D01*
X163236786Y-58190028D01*
X163092028Y-58334786D01*
X162971715Y-58500386D01*
X162878781Y-58682776D01*
X162815522Y-58877465D01*
X162783500Y-59079648D01*
X162783500Y-59284351D01*
X162815522Y-59486534D01*
X162878781Y-59681223D01*
X162971715Y-59863613D01*
X163092028Y-60029213D01*
X163236786Y-60173971D01*
X163391749Y-60286556D01*
X163402390Y-60294287D01*
X163518607Y-60353503D01*
X163584776Y-60387218D01*
X163584778Y-60387218D01*
X163584781Y-60387220D01*
X163689137Y-60421127D01*
X163779465Y-60450477D01*
X163880557Y-60466488D01*
X163981648Y-60482500D01*
X163981649Y-60482500D01*
X164186351Y-60482500D01*
X164186352Y-60482500D01*
X164388534Y-60450477D01*
X164583219Y-60387220D01*
X164765610Y-60294287D01*
X164858590Y-60226732D01*
X164931213Y-60173971D01*
X164931215Y-60173968D01*
X164931219Y-60173966D01*
X165075966Y-60029219D01*
X165075968Y-60029215D01*
X165075971Y-60029213D01*
X165128732Y-59956590D01*
X165196287Y-59863610D01*
X165289220Y-59681219D01*
X165352477Y-59486534D01*
X165384500Y-59284352D01*
X165384500Y-59079648D01*
X165382036Y-59064091D01*
X165352477Y-58877465D01*
X165289218Y-58682776D01*
X165233032Y-58572506D01*
X165196287Y-58500390D01*
X165188556Y-58489749D01*
X165075971Y-58334786D01*
X164931213Y-58190028D01*
X164765614Y-58069715D01*
X164733790Y-58053500D01*
X164672917Y-58022483D01*
X164622123Y-57974511D01*
X164605328Y-57906690D01*
X164627865Y-57840555D01*
X164672917Y-57801516D01*
X164765610Y-57754287D01*
X164820484Y-57714419D01*
X164931213Y-57633971D01*
X164931215Y-57633968D01*
X164931219Y-57633966D01*
X165075966Y-57489219D01*
X165075968Y-57489215D01*
X165075971Y-57489213D01*
X165150405Y-57386761D01*
X165196287Y-57323610D01*
X165289220Y-57141219D01*
X165352477Y-56946534D01*
X165384500Y-56744352D01*
X165384500Y-56539648D01*
X165352477Y-56337466D01*
X165289220Y-56142781D01*
X165289218Y-56142778D01*
X165289218Y-56142776D01*
X165255503Y-56076607D01*
X165196287Y-55960390D01*
X165146236Y-55891500D01*
X165075971Y-55794786D01*
X164931213Y-55650028D01*
X164765614Y-55529715D01*
X164750737Y-55522135D01*
X164672917Y-55482483D01*
X164622123Y-55434511D01*
X164605328Y-55366690D01*
X164627865Y-55300555D01*
X164672917Y-55261516D01*
X164765610Y-55214287D01*
X164824357Y-55171605D01*
X164931213Y-55093971D01*
X164931215Y-55093968D01*
X164931219Y-55093966D01*
X165075966Y-54949219D01*
X165075968Y-54949215D01*
X165075971Y-54949213D01*
X165128732Y-54876590D01*
X165196287Y-54783610D01*
X165289220Y-54601219D01*
X165352477Y-54406534D01*
X165384500Y-54204352D01*
X165384500Y-53999648D01*
X165363656Y-53868046D01*
X165352477Y-53797465D01*
X165342776Y-53767610D01*
X165329196Y-53725817D01*
X165327201Y-53655978D01*
X165363281Y-53596145D01*
X165425982Y-53565316D01*
X165447128Y-53563500D01*
X170340872Y-53563500D01*
X170407911Y-53583185D01*
X170453666Y-53635989D01*
X170463610Y-53705147D01*
X170458803Y-53725819D01*
X170435522Y-53797465D01*
X170403500Y-53999648D01*
X170403500Y-54204351D01*
X170435522Y-54406534D01*
X170498781Y-54601223D01*
X170591715Y-54783613D01*
X170712028Y-54949213D01*
X170856786Y-55093971D01*
X171011749Y-55206556D01*
X171022390Y-55214287D01*
X171113840Y-55260883D01*
X171115080Y-55261515D01*
X171165876Y-55309490D01*
X171182671Y-55377311D01*
X171160134Y-55443446D01*
X171115080Y-55482485D01*
X171022386Y-55529715D01*
X170856786Y-55650028D01*
X170712028Y-55794786D01*
X170591715Y-55960386D01*
X170498781Y-56142776D01*
X170435522Y-56337465D01*
X170403500Y-56539648D01*
X170403500Y-56744351D01*
X170435522Y-56946534D01*
X170498781Y-57141223D01*
X170591715Y-57323613D01*
X170712028Y-57489213D01*
X170856786Y-57633971D01*
X170967528Y-57714428D01*
X171022390Y-57754287D01*
X171113840Y-57800883D01*
X171115080Y-57801515D01*
X171165876Y-57849490D01*
X171182671Y-57917311D01*
X171160134Y-57983446D01*
X171115080Y-58022485D01*
X171022386Y-58069715D01*
X170856786Y-58190028D01*
X170712028Y-58334786D01*
X170591715Y-58500386D01*
X170498781Y-58682776D01*
X170435522Y-58877465D01*
X170403500Y-59079648D01*
X170403500Y-59284351D01*
X170435522Y-59486534D01*
X170498781Y-59681223D01*
X170591715Y-59863613D01*
X170712028Y-60029213D01*
X170856786Y-60173971D01*
X171011749Y-60286556D01*
X171022390Y-60294287D01*
X171138607Y-60353503D01*
X171204776Y-60387218D01*
X171204778Y-60387218D01*
X171204781Y-60387220D01*
X171309137Y-60421127D01*
X171399465Y-60450477D01*
X171500557Y-60466488D01*
X171601648Y-60482500D01*
X171601649Y-60482500D01*
X171806351Y-60482500D01*
X171806352Y-60482500D01*
X172008534Y-60450477D01*
X172203219Y-60387220D01*
X172385610Y-60294287D01*
X172478590Y-60226732D01*
X172551213Y-60173971D01*
X172551215Y-60173968D01*
X172551219Y-60173966D01*
X172695966Y-60029219D01*
X172695968Y-60029215D01*
X172695971Y-60029213D01*
X172748732Y-59956590D01*
X172816287Y-59863610D01*
X172909220Y-59681219D01*
X172972477Y-59486534D01*
X173004500Y-59284352D01*
X173004500Y-59079648D01*
X173002036Y-59064091D01*
X172972477Y-58877465D01*
X172909218Y-58682776D01*
X172853032Y-58572506D01*
X172816287Y-58500390D01*
X172808556Y-58489749D01*
X172695971Y-58334786D01*
X172551213Y-58190028D01*
X172385614Y-58069715D01*
X172353790Y-58053500D01*
X172292917Y-58022483D01*
X172242123Y-57974511D01*
X172225328Y-57906690D01*
X172247865Y-57840555D01*
X172292917Y-57801516D01*
X172385610Y-57754287D01*
X172440484Y-57714419D01*
X172551213Y-57633971D01*
X172551215Y-57633968D01*
X172551219Y-57633966D01*
X172695966Y-57489219D01*
X172695968Y-57489215D01*
X172695971Y-57489213D01*
X172770405Y-57386761D01*
X172816287Y-57323610D01*
X172909220Y-57141219D01*
X172972477Y-56946534D01*
X172973691Y-56938872D01*
X184091500Y-56938872D01*
X184091500Y-57201127D01*
X184107627Y-57323613D01*
X184125730Y-57461116D01*
X184178893Y-57659523D01*
X184193602Y-57714418D01*
X184193605Y-57714428D01*
X184293953Y-57956690D01*
X184293958Y-57956700D01*
X184425075Y-58183803D01*
X184584718Y-58391851D01*
X184584726Y-58391860D01*
X184770140Y-58577274D01*
X184770148Y-58577281D01*
X184978196Y-58736924D01*
X185205299Y-58868041D01*
X185205309Y-58868046D01*
X185447571Y-58968394D01*
X185447581Y-58968398D01*
X185700884Y-59036270D01*
X185949188Y-59068960D01*
X185960864Y-59070498D01*
X185960880Y-59070500D01*
X185960887Y-59070500D01*
X186223113Y-59070500D01*
X186223120Y-59070500D01*
X186483116Y-59036270D01*
X186736419Y-58968398D01*
X186978697Y-58868043D01*
X187205803Y-58736924D01*
X187413851Y-58577282D01*
X187413855Y-58577277D01*
X187413860Y-58577274D01*
X187599274Y-58391860D01*
X187599277Y-58391855D01*
X187599282Y-58391851D01*
X187758924Y-58183803D01*
X187890043Y-57956697D01*
X187990398Y-57714419D01*
X188058270Y-57461116D01*
X188092500Y-57201120D01*
X188092500Y-56938880D01*
X188058270Y-56678884D01*
X187990398Y-56425581D01*
X187990394Y-56425571D01*
X187890046Y-56183309D01*
X187890041Y-56183299D01*
X187758924Y-55956196D01*
X187599281Y-55748148D01*
X187599274Y-55748140D01*
X187413860Y-55562726D01*
X187413851Y-55562718D01*
X187360963Y-55522135D01*
X189091500Y-55522135D01*
X189091500Y-58617870D01*
X189091501Y-58617876D01*
X189097908Y-58677483D01*
X189148202Y-58812328D01*
X189148206Y-58812335D01*
X189234452Y-58927544D01*
X189234455Y-58927547D01*
X189349664Y-59013793D01*
X189349671Y-59013797D01*
X189484517Y-59064091D01*
X189484516Y-59064091D01*
X189491444Y-59064835D01*
X189544127Y-59070500D01*
X192639872Y-59070499D01*
X192699483Y-59064091D01*
X192834331Y-59013796D01*
X192949546Y-58927546D01*
X193035796Y-58812331D01*
X193086091Y-58677483D01*
X193092500Y-58617873D01*
X193092499Y-55522128D01*
X193086091Y-55462517D01*
X193075645Y-55434511D01*
X193035797Y-55327671D01*
X193035793Y-55327664D01*
X192949547Y-55212455D01*
X192949544Y-55212452D01*
X192834335Y-55126206D01*
X192834328Y-55126202D01*
X192699482Y-55075908D01*
X192699483Y-55075908D01*
X192639883Y-55069501D01*
X192639881Y-55069500D01*
X192639873Y-55069500D01*
X192639864Y-55069500D01*
X189544129Y-55069500D01*
X189544123Y-55069501D01*
X189484516Y-55075908D01*
X189349671Y-55126202D01*
X189349664Y-55126206D01*
X189234455Y-55212452D01*
X189234452Y-55212455D01*
X189148206Y-55327664D01*
X189148202Y-55327671D01*
X189097908Y-55462517D01*
X189091968Y-55517770D01*
X189091501Y-55522123D01*
X189091500Y-55522135D01*
X187360963Y-55522135D01*
X187205803Y-55403075D01*
X186978700Y-55271958D01*
X186978690Y-55271953D01*
X186736428Y-55171605D01*
X186736421Y-55171603D01*
X186736419Y-55171602D01*
X186483116Y-55103730D01*
X186425339Y-55096123D01*
X186223127Y-55069500D01*
X186223120Y-55069500D01*
X185960880Y-55069500D01*
X185960872Y-55069500D01*
X185729772Y-55099926D01*
X185700884Y-55103730D01*
X185447581Y-55171602D01*
X185447571Y-55171605D01*
X185205309Y-55271953D01*
X185205299Y-55271958D01*
X184978196Y-55403075D01*
X184770148Y-55562718D01*
X184584718Y-55748148D01*
X184425075Y-55956196D01*
X184293958Y-56183299D01*
X184293953Y-56183309D01*
X184193605Y-56425571D01*
X184193602Y-56425581D01*
X184125730Y-56678885D01*
X184091500Y-56938872D01*
X172973691Y-56938872D01*
X173004500Y-56744352D01*
X173004500Y-56539648D01*
X172972477Y-56337466D01*
X172909220Y-56142781D01*
X172909218Y-56142778D01*
X172909218Y-56142776D01*
X172875503Y-56076607D01*
X172816287Y-55960390D01*
X172766236Y-55891500D01*
X172695971Y-55794786D01*
X172551213Y-55650028D01*
X172385614Y-55529715D01*
X172370737Y-55522135D01*
X172292917Y-55482483D01*
X172242123Y-55434511D01*
X172225328Y-55366690D01*
X172247865Y-55300555D01*
X172292917Y-55261516D01*
X172385610Y-55214287D01*
X172444357Y-55171605D01*
X172551213Y-55093971D01*
X172551215Y-55093968D01*
X172551219Y-55093966D01*
X172695966Y-54949219D01*
X172695968Y-54949215D01*
X172695971Y-54949213D01*
X172748732Y-54876590D01*
X172816287Y-54783610D01*
X172909220Y-54601219D01*
X172972477Y-54406534D01*
X173004500Y-54204352D01*
X173004500Y-53999648D01*
X172983656Y-53868046D01*
X172972477Y-53797465D01*
X172962776Y-53767610D01*
X172949196Y-53725817D01*
X172947201Y-53655978D01*
X172983281Y-53596145D01*
X173045982Y-53565316D01*
X173067128Y-53563500D01*
X175352920Y-53563500D01*
X175450462Y-53544096D01*
X175497913Y-53534658D01*
X175634495Y-53478084D01*
X175683729Y-53445186D01*
X175757416Y-53395952D01*
X177112951Y-52040416D01*
X177195084Y-51917495D01*
X177251658Y-51780913D01*
X177271953Y-51678885D01*
X177280500Y-51635920D01*
X177280500Y-51488084D01*
X177280286Y-51487005D01*
X177280286Y-51487004D01*
X177251659Y-51343092D01*
X177251657Y-51343084D01*
X177195087Y-51206511D01*
X177195080Y-51206498D01*
X177112951Y-51083584D01*
X177112948Y-51083580D01*
X177008419Y-50979051D01*
X177008415Y-50979048D01*
X176885501Y-50896919D01*
X176885488Y-50896912D01*
X176748917Y-50840343D01*
X176748907Y-50840340D01*
X176603920Y-50811500D01*
X176603918Y-50811500D01*
X176603917Y-50811500D01*
X176456082Y-50811500D01*
X176456080Y-50811500D01*
X176311092Y-50840340D01*
X176311082Y-50840343D01*
X176174511Y-50896912D01*
X176174498Y-50896919D01*
X176051584Y-50979048D01*
X176051580Y-50979051D01*
X175004451Y-52026181D01*
X174943128Y-52059666D01*
X174916770Y-52062500D01*
X173079476Y-52062500D01*
X173012437Y-52042815D01*
X172966682Y-51990011D01*
X172956738Y-51920853D01*
X172961545Y-51900183D01*
X172972475Y-51866542D01*
X172972475Y-51866538D01*
X172972477Y-51866534D01*
X173004500Y-51664352D01*
X173004500Y-51459648D01*
X172972477Y-51257466D01*
X172967761Y-51242953D01*
X172909218Y-51062776D01*
X172857865Y-50961991D01*
X172816287Y-50880390D01*
X172800892Y-50859200D01*
X172695971Y-50714786D01*
X172551213Y-50570028D01*
X172385613Y-50449715D01*
X172385612Y-50449714D01*
X172385610Y-50449713D01*
X172294078Y-50403075D01*
X172203223Y-50356781D01*
X172008534Y-50293522D01*
X171833995Y-50265878D01*
X171806352Y-50261500D01*
X171601648Y-50261500D01*
X171577329Y-50265351D01*
X171399465Y-50293522D01*
X171204776Y-50356781D01*
X171022386Y-50449715D01*
X170856786Y-50570028D01*
X170712028Y-50714786D01*
X170591715Y-50880386D01*
X170498781Y-51062776D01*
X170435522Y-51257465D01*
X170403500Y-51459648D01*
X170403500Y-51664351D01*
X170435523Y-51866535D01*
X170435524Y-51866542D01*
X170446455Y-51900183D01*
X170448450Y-51970024D01*
X170412369Y-52029856D01*
X170349668Y-52060684D01*
X170328524Y-52062500D01*
X165697229Y-52062500D01*
X165630190Y-52042815D01*
X165609548Y-52026181D01*
X165420818Y-51837451D01*
X165387333Y-51776128D01*
X165384499Y-51749770D01*
X165384499Y-50961998D01*
X165384498Y-50961981D01*
X165373999Y-50859203D01*
X165373998Y-50859200D01*
X165337196Y-50748140D01*
X165318814Y-50692666D01*
X165226712Y-50543344D01*
X165102656Y-50419288D01*
X164953334Y-50327186D01*
X164786797Y-50272001D01*
X164786795Y-50272000D01*
X164684010Y-50261500D01*
X163483998Y-50261500D01*
X163483981Y-50261501D01*
X163381203Y-50272000D01*
X163381200Y-50272001D01*
X163214668Y-50327185D01*
X163214663Y-50327187D01*
X163065342Y-50419289D01*
X162941289Y-50543342D01*
X162849187Y-50692663D01*
X162849186Y-50692666D01*
X162794001Y-50859203D01*
X162794001Y-50859204D01*
X162794000Y-50859204D01*
X162783500Y-50961983D01*
X162783500Y-52162001D01*
X162783501Y-52162018D01*
X162794000Y-52264796D01*
X162794001Y-52264799D01*
X162849185Y-52431331D01*
X162849187Y-52431336D01*
X162884069Y-52487888D01*
X162941288Y-52580656D01*
X163065344Y-52704712D01*
X163214666Y-52796814D01*
X163296570Y-52823954D01*
X163354015Y-52863727D01*
X163380838Y-52928243D01*
X163368523Y-52997018D01*
X163330451Y-53041978D01*
X163236787Y-53110028D01*
X163236782Y-53110032D01*
X163092028Y-53254786D01*
X162971715Y-53420386D01*
X162878781Y-53602776D01*
X162815522Y-53797465D01*
X162783500Y-53999648D01*
X162783500Y-54204351D01*
X162815522Y-54406534D01*
X162878781Y-54601223D01*
X162971715Y-54783613D01*
X163092028Y-54949213D01*
X163236786Y-55093971D01*
X163391749Y-55206556D01*
X163402390Y-55214287D01*
X163493840Y-55260883D01*
X163495080Y-55261515D01*
X163545876Y-55309490D01*
X163562671Y-55377311D01*
X163540134Y-55443446D01*
X163495080Y-55482485D01*
X163402386Y-55529715D01*
X163236786Y-55650028D01*
X163092032Y-55794782D01*
X163092028Y-55794787D01*
X163058900Y-55840385D01*
X163003571Y-55883051D01*
X162958582Y-55891500D01*
X162160230Y-55891500D01*
X162093191Y-55871815D01*
X162072549Y-55855181D01*
X161822819Y-55605451D01*
X161789334Y-55544128D01*
X161786500Y-55517770D01*
X161786500Y-47864500D01*
X161806185Y-47797461D01*
X161858989Y-47751706D01*
X161910500Y-47740500D01*
X178234082Y-47740500D01*
X178381918Y-47740500D01*
X179719500Y-47740500D01*
X179786539Y-47760185D01*
X179832294Y-47812989D01*
X179843500Y-47864500D01*
X179843500Y-50873918D01*
X179843500Y-50873920D01*
X179843499Y-50873920D01*
X179872340Y-51018907D01*
X179872343Y-51018917D01*
X179928913Y-51155490D01*
X179928914Y-51155491D01*
X179928916Y-51155495D01*
X179947497Y-51183303D01*
X179997049Y-51257465D01*
X180011051Y-51278420D01*
X180011052Y-51278421D01*
X181385580Y-52652948D01*
X181385584Y-52652951D01*
X181508498Y-52735080D01*
X181508511Y-52735087D01*
X181620479Y-52781465D01*
X181645087Y-52791658D01*
X181645091Y-52791658D01*
X181645092Y-52791659D01*
X181790079Y-52820500D01*
X181790082Y-52820500D01*
X181937917Y-52820500D01*
X184154688Y-52820500D01*
X184221727Y-52840185D01*
X184267482Y-52892989D01*
X184269249Y-52897047D01*
X184293954Y-52956690D01*
X184293958Y-52956700D01*
X184425075Y-53183803D01*
X184584718Y-53391851D01*
X184584726Y-53391860D01*
X184770140Y-53577274D01*
X184770148Y-53577281D01*
X184978196Y-53736924D01*
X185205299Y-53868041D01*
X185205309Y-53868046D01*
X185447571Y-53968394D01*
X185447581Y-53968398D01*
X185700884Y-54036270D01*
X185960880Y-54070500D01*
X185960887Y-54070500D01*
X186223113Y-54070500D01*
X186223120Y-54070500D01*
X186483116Y-54036270D01*
X186736419Y-53968398D01*
X186978697Y-53868043D01*
X187205803Y-53736924D01*
X187413851Y-53577282D01*
X187413855Y-53577277D01*
X187413860Y-53577274D01*
X187599274Y-53391860D01*
X187599277Y-53391855D01*
X187599282Y-53391851D01*
X187758924Y-53183803D01*
X187890043Y-52956697D01*
X187990398Y-52714419D01*
X188058270Y-52461116D01*
X188092500Y-52201120D01*
X188092500Y-51938880D01*
X188092499Y-51938872D01*
X189091500Y-51938872D01*
X189091500Y-52201127D01*
X189118123Y-52403339D01*
X189125730Y-52461116D01*
X189191001Y-52704712D01*
X189193602Y-52714418D01*
X189193605Y-52714428D01*
X189293953Y-52956690D01*
X189293958Y-52956700D01*
X189425075Y-53183803D01*
X189584718Y-53391851D01*
X189584726Y-53391860D01*
X189770140Y-53577274D01*
X189770148Y-53577281D01*
X189978196Y-53736924D01*
X190205299Y-53868041D01*
X190205309Y-53868046D01*
X190447571Y-53968394D01*
X190447581Y-53968398D01*
X190700884Y-54036270D01*
X190960880Y-54070500D01*
X190960887Y-54070500D01*
X191223113Y-54070500D01*
X191223120Y-54070500D01*
X191483116Y-54036270D01*
X191736419Y-53968398D01*
X191978697Y-53868043D01*
X192205803Y-53736924D01*
X192413851Y-53577282D01*
X192413855Y-53577277D01*
X192413860Y-53577274D01*
X192599274Y-53391860D01*
X192599277Y-53391855D01*
X192599282Y-53391851D01*
X192758924Y-53183803D01*
X192890043Y-52956697D01*
X192990398Y-52714419D01*
X193058270Y-52461116D01*
X193092500Y-52201120D01*
X193092500Y-51938880D01*
X193058270Y-51678884D01*
X192990398Y-51425581D01*
X192890043Y-51183303D01*
X192873986Y-51155491D01*
X192758924Y-50956196D01*
X192599281Y-50748148D01*
X192599274Y-50748140D01*
X192413860Y-50562726D01*
X192413851Y-50562718D01*
X192205803Y-50403075D01*
X191978700Y-50271958D01*
X191978690Y-50271953D01*
X191736428Y-50171605D01*
X191736421Y-50171603D01*
X191736419Y-50171602D01*
X191483116Y-50103730D01*
X191425339Y-50096123D01*
X191223127Y-50069500D01*
X191223120Y-50069500D01*
X190960880Y-50069500D01*
X190960872Y-50069500D01*
X190729772Y-50099926D01*
X190700884Y-50103730D01*
X190447581Y-50171602D01*
X190447571Y-50171605D01*
X190205309Y-50271953D01*
X190205299Y-50271958D01*
X189978196Y-50403075D01*
X189770148Y-50562718D01*
X189584718Y-50748148D01*
X189425075Y-50956196D01*
X189293958Y-51183299D01*
X189293958Y-51183301D01*
X189193605Y-51425571D01*
X189193602Y-51425581D01*
X189176855Y-51488084D01*
X189125730Y-51678885D01*
X189091500Y-51938872D01*
X188092499Y-51938872D01*
X188058270Y-51678884D01*
X187990398Y-51425581D01*
X187890043Y-51183303D01*
X187873986Y-51155491D01*
X187758924Y-50956196D01*
X187599281Y-50748148D01*
X187599274Y-50748140D01*
X187413860Y-50562726D01*
X187413851Y-50562718D01*
X187205803Y-50403075D01*
X186978700Y-50271958D01*
X186978690Y-50271953D01*
X186736428Y-50171605D01*
X186736421Y-50171603D01*
X186736419Y-50171602D01*
X186483116Y-50103730D01*
X186425339Y-50096123D01*
X186223127Y-50069500D01*
X186223120Y-50069500D01*
X185960880Y-50069500D01*
X185960872Y-50069500D01*
X185729772Y-50099926D01*
X185700884Y-50103730D01*
X185447581Y-50171602D01*
X185447571Y-50171605D01*
X185205309Y-50271953D01*
X185205299Y-50271958D01*
X184978196Y-50403075D01*
X184770148Y-50562718D01*
X184584718Y-50748148D01*
X184425075Y-50956196D01*
X184293958Y-51183299D01*
X184293958Y-51183301D01*
X184269249Y-51242953D01*
X184225408Y-51297356D01*
X184159114Y-51319421D01*
X184154688Y-51319500D01*
X182226229Y-51319500D01*
X182159190Y-51299815D01*
X182138548Y-51283181D01*
X181380819Y-50525451D01*
X181347334Y-50464128D01*
X181344500Y-50437770D01*
X181344500Y-46938872D01*
X184091500Y-46938872D01*
X184091500Y-47201127D01*
X184116627Y-47391972D01*
X184125730Y-47461116D01*
X184193602Y-47714418D01*
X184193605Y-47714428D01*
X184293953Y-47956690D01*
X184293958Y-47956700D01*
X184425075Y-48183803D01*
X184584718Y-48391851D01*
X184584726Y-48391860D01*
X184770140Y-48577274D01*
X184770148Y-48577281D01*
X184978196Y-48736924D01*
X185205299Y-48868041D01*
X185205309Y-48868046D01*
X185447571Y-48968394D01*
X185447581Y-48968398D01*
X185700884Y-49036270D01*
X185960880Y-49070500D01*
X185960887Y-49070500D01*
X186223113Y-49070500D01*
X186223120Y-49070500D01*
X186483116Y-49036270D01*
X186736419Y-48968398D01*
X186978697Y-48868043D01*
X187205803Y-48736924D01*
X187413851Y-48577282D01*
X187413855Y-48577277D01*
X187413860Y-48577274D01*
X187599274Y-48391860D01*
X187599277Y-48391855D01*
X187599282Y-48391851D01*
X187758924Y-48183803D01*
X187890043Y-47956697D01*
X187990398Y-47714419D01*
X188058270Y-47461116D01*
X188092500Y-47201120D01*
X188092500Y-46938880D01*
X188092499Y-46938872D01*
X189091500Y-46938872D01*
X189091500Y-47201127D01*
X189116627Y-47391972D01*
X189125730Y-47461116D01*
X189193602Y-47714418D01*
X189193605Y-47714428D01*
X189293953Y-47956690D01*
X189293958Y-47956700D01*
X189425075Y-48183803D01*
X189584718Y-48391851D01*
X189584726Y-48391860D01*
X189770140Y-48577274D01*
X189770148Y-48577281D01*
X189978196Y-48736924D01*
X190205299Y-48868041D01*
X190205309Y-48868046D01*
X190447571Y-48968394D01*
X190447581Y-48968398D01*
X190700884Y-49036270D01*
X190960880Y-49070500D01*
X190960887Y-49070500D01*
X191223113Y-49070500D01*
X191223120Y-49070500D01*
X191483116Y-49036270D01*
X191736419Y-48968398D01*
X191978697Y-48868043D01*
X192205803Y-48736924D01*
X192413851Y-48577282D01*
X192413855Y-48577277D01*
X192413860Y-48577274D01*
X192599274Y-48391860D01*
X192599277Y-48391855D01*
X192599282Y-48391851D01*
X192758924Y-48183803D01*
X192890043Y-47956697D01*
X192990398Y-47714419D01*
X193058270Y-47461116D01*
X193092500Y-47201120D01*
X193092500Y-46938880D01*
X193058270Y-46678884D01*
X192990398Y-46425581D01*
X192982722Y-46407049D01*
X192890046Y-46183309D01*
X192890041Y-46183299D01*
X192758924Y-45956196D01*
X192599281Y-45748148D01*
X192599274Y-45748140D01*
X192413860Y-45562726D01*
X192413851Y-45562718D01*
X192205803Y-45403075D01*
X191978700Y-45271958D01*
X191978690Y-45271953D01*
X191736428Y-45171605D01*
X191736421Y-45171603D01*
X191736419Y-45171602D01*
X191483116Y-45103730D01*
X191425339Y-45096123D01*
X191223127Y-45069500D01*
X191223120Y-45069500D01*
X190960880Y-45069500D01*
X190960872Y-45069500D01*
X190729772Y-45099926D01*
X190700884Y-45103730D01*
X190447581Y-45171602D01*
X190447571Y-45171605D01*
X190205309Y-45271953D01*
X190205299Y-45271958D01*
X189978196Y-45403075D01*
X189770148Y-45562718D01*
X189584718Y-45748148D01*
X189425075Y-45956196D01*
X189293958Y-46183299D01*
X189293953Y-46183309D01*
X189193605Y-46425571D01*
X189193602Y-46425581D01*
X189125730Y-46678884D01*
X189123360Y-46696888D01*
X189091500Y-46938872D01*
X188092499Y-46938872D01*
X188058270Y-46678884D01*
X187990398Y-46425581D01*
X187982722Y-46407049D01*
X187890046Y-46183309D01*
X187890041Y-46183299D01*
X187758924Y-45956196D01*
X187599281Y-45748148D01*
X187599274Y-45748140D01*
X187413860Y-45562726D01*
X187413851Y-45562718D01*
X187205803Y-45403075D01*
X186978700Y-45271958D01*
X186978690Y-45271953D01*
X186736428Y-45171605D01*
X186736421Y-45171603D01*
X186736419Y-45171602D01*
X186483116Y-45103730D01*
X186425339Y-45096123D01*
X186223127Y-45069500D01*
X186223120Y-45069500D01*
X185960880Y-45069500D01*
X185960872Y-45069500D01*
X185729772Y-45099926D01*
X185700884Y-45103730D01*
X185447581Y-45171602D01*
X185447571Y-45171605D01*
X185205309Y-45271953D01*
X185205299Y-45271958D01*
X184978196Y-45403075D01*
X184770148Y-45562718D01*
X184584718Y-45748148D01*
X184425075Y-45956196D01*
X184293958Y-46183299D01*
X184293953Y-46183309D01*
X184193605Y-46425571D01*
X184193602Y-46425581D01*
X184125730Y-46678884D01*
X184123360Y-46696888D01*
X184091500Y-46938872D01*
X181344500Y-46938872D01*
X181344500Y-46916079D01*
X181315659Y-46771092D01*
X181315658Y-46771091D01*
X181315658Y-46771087D01*
X181315656Y-46771082D01*
X181259087Y-46634511D01*
X181259080Y-46634498D01*
X181176951Y-46511584D01*
X181176948Y-46511580D01*
X181072419Y-46407051D01*
X181072415Y-46407048D01*
X180949501Y-46324919D01*
X180949488Y-46324912D01*
X180812917Y-46268343D01*
X180812907Y-46268340D01*
X180667920Y-46239500D01*
X180667918Y-46239500D01*
X179182500Y-46239500D01*
X179115461Y-46219815D01*
X179069706Y-46167011D01*
X179058500Y-46115500D01*
X179058500Y-39986230D01*
X179078185Y-39919191D01*
X179094819Y-39898549D01*
X179584549Y-39408819D01*
X179645872Y-39375334D01*
X179672230Y-39372500D01*
X182379500Y-39372500D01*
X182446539Y-39392185D01*
X182492294Y-39444989D01*
X182503500Y-39496500D01*
X182503500Y-39822015D01*
X182514000Y-39924795D01*
X182514001Y-39924796D01*
X182569186Y-40091335D01*
X182569187Y-40091337D01*
X182661286Y-40240651D01*
X182661289Y-40240655D01*
X182785344Y-40364710D01*
X182785348Y-40364713D01*
X182934662Y-40456812D01*
X182934664Y-40456813D01*
X182934666Y-40456814D01*
X183101203Y-40511999D01*
X183203992Y-40522500D01*
X183203997Y-40522500D01*
X185604003Y-40522500D01*
X185604008Y-40522500D01*
X185706797Y-40511999D01*
X185873334Y-40456814D01*
X186022655Y-40364711D01*
X186146711Y-40240655D01*
X186238814Y-40091334D01*
X186293999Y-39924797D01*
X186304500Y-39822008D01*
X186304500Y-37421992D01*
X186293999Y-37319203D01*
X186238814Y-37152666D01*
X186238813Y-37152664D01*
X186238812Y-37152662D01*
X186146713Y-37003348D01*
X186146710Y-37003344D01*
X186044590Y-36901224D01*
X186034494Y-36882734D01*
X186020414Y-36867060D01*
X186018084Y-36852682D01*
X186011105Y-36839901D01*
X186012607Y-36818886D01*
X186009238Y-36798090D01*
X186015050Y-36784737D01*
X186016089Y-36770209D01*
X186028714Y-36753343D01*
X186037123Y-36734026D01*
X186055601Y-36717428D01*
X186057961Y-36714276D01*
X186063350Y-36710461D01*
X186078729Y-36700186D01*
X186078729Y-36700185D01*
X186078731Y-36700185D01*
X186103291Y-36683774D01*
X186152416Y-36650952D01*
X188034952Y-34768416D01*
X188088542Y-34688211D01*
X188117084Y-34645495D01*
X188154361Y-34555500D01*
X188173659Y-34508912D01*
X188200793Y-34372500D01*
X188202500Y-34363918D01*
X188202500Y-23802082D01*
X188202500Y-23802079D01*
X188173659Y-23657092D01*
X188173658Y-23657091D01*
X188173658Y-23657087D01*
X188123826Y-23536781D01*
X188117087Y-23520511D01*
X188117080Y-23520498D01*
X188034952Y-23397585D01*
X187996267Y-23358900D01*
X187930416Y-23293049D01*
X187676416Y-23039048D01*
X187560346Y-22961494D01*
X187553495Y-22956916D01*
X187553496Y-22956916D01*
X187553491Y-22956913D01*
X187416917Y-22900343D01*
X187416907Y-22900340D01*
X187271920Y-22871500D01*
X187271918Y-22871500D01*
X186233073Y-22871500D01*
X186166034Y-22851815D01*
X186120279Y-22799011D01*
X186118511Y-22794950D01*
X186118264Y-22794354D01*
X186112164Y-22779627D01*
X185987599Y-22563873D01*
X185835938Y-22366224D01*
X185835933Y-22366218D01*
X185659781Y-22190066D01*
X185659774Y-22190060D01*
X185462126Y-22038400D01*
X185246376Y-21913837D01*
X185246361Y-21913830D01*
X185016207Y-21818498D01*
X184775561Y-21754017D01*
X184528575Y-21721501D01*
X184528570Y-21721500D01*
X184528565Y-21721500D01*
X184279435Y-21721500D01*
X184279429Y-21721500D01*
X184279424Y-21721501D01*
X184032438Y-21754017D01*
X183791792Y-21818498D01*
X183561638Y-21913830D01*
X183561623Y-21913837D01*
X183345873Y-22038400D01*
X183148225Y-22190060D01*
X183148218Y-22190066D01*
X182972066Y-22366218D01*
X182972060Y-22366225D01*
X182820400Y-22563873D01*
X182695837Y-22779623D01*
X182695830Y-22779638D01*
X182600498Y-23009792D01*
X182536017Y-23250438D01*
X182503501Y-23497424D01*
X182503500Y-23497441D01*
X182503500Y-23746558D01*
X182503501Y-23746575D01*
X182536017Y-23993561D01*
X182600498Y-24234207D01*
X182695830Y-24464361D01*
X182695837Y-24464376D01*
X182820400Y-24680126D01*
X182972060Y-24877774D01*
X182972066Y-24877781D01*
X183148218Y-25053933D01*
X183148225Y-25053939D01*
X183345873Y-25205599D01*
X183561623Y-25330162D01*
X183561638Y-25330169D01*
X183645504Y-25364907D01*
X183791793Y-25425502D01*
X184032435Y-25489982D01*
X184279435Y-25522500D01*
X184279442Y-25522500D01*
X184528558Y-25522500D01*
X184528565Y-25522500D01*
X184775565Y-25489982D01*
X185016207Y-25425502D01*
X185246373Y-25330164D01*
X185462127Y-25205599D01*
X185659776Y-25053938D01*
X185835938Y-24877776D01*
X185987599Y-24680127D01*
X186112164Y-24464373D01*
X186118511Y-24449050D01*
X186162351Y-24394646D01*
X186228644Y-24372579D01*
X186233073Y-24372500D01*
X186577500Y-24372500D01*
X186644539Y-24392185D01*
X186690294Y-24444989D01*
X186701500Y-24496500D01*
X186701500Y-33927769D01*
X186681815Y-33994808D01*
X186665181Y-34015450D01*
X186447280Y-34233351D01*
X186385957Y-34266836D01*
X186316265Y-34261852D01*
X186260332Y-34219980D01*
X186235915Y-34154516D01*
X186239823Y-34113582D01*
X186271982Y-33993565D01*
X186304500Y-33746565D01*
X186304500Y-33497435D01*
X186271982Y-33250435D01*
X186207502Y-33009793D01*
X186112164Y-32779627D01*
X186066145Y-32699920D01*
X185987599Y-32563873D01*
X185835939Y-32366225D01*
X185835933Y-32366218D01*
X185659781Y-32190066D01*
X185659774Y-32190060D01*
X185462126Y-32038400D01*
X185246376Y-31913837D01*
X185246361Y-31913830D01*
X185016207Y-31818498D01*
X185002331Y-31814780D01*
X184775565Y-31754018D01*
X184775564Y-31754017D01*
X184775561Y-31754017D01*
X184528575Y-31721501D01*
X184528570Y-31721500D01*
X184528565Y-31721500D01*
X184279435Y-31721500D01*
X184279429Y-31721500D01*
X184279424Y-31721501D01*
X184032438Y-31754017D01*
X184027609Y-31755311D01*
X183791793Y-31818498D01*
X183791791Y-31818498D01*
X183791790Y-31818499D01*
X183791779Y-31818502D01*
X183776462Y-31824847D01*
X183706992Y-31832313D01*
X183644514Y-31801035D01*
X183641333Y-31797965D01*
X181740421Y-29897052D01*
X181740414Y-29897046D01*
X181666729Y-29847812D01*
X181666729Y-29847813D01*
X181617491Y-29814913D01*
X181480917Y-29758343D01*
X181480907Y-29758340D01*
X181335920Y-29729500D01*
X181335918Y-29729500D01*
X172067418Y-29729500D01*
X172000379Y-29709815D01*
X171967100Y-29678385D01*
X171933971Y-29632787D01*
X171933967Y-29632782D01*
X171789213Y-29488028D01*
X171623614Y-29367715D01*
X171586605Y-29348858D01*
X171530917Y-29320483D01*
X171480123Y-29272511D01*
X171463328Y-29204690D01*
X171485865Y-29138555D01*
X171530917Y-29099516D01*
X171623610Y-29052287D01*
X171723067Y-28980028D01*
X171789213Y-28931971D01*
X171789215Y-28931968D01*
X171789219Y-28931966D01*
X171933966Y-28787219D01*
X171961917Y-28748748D01*
X171967100Y-28741615D01*
X172022429Y-28698949D01*
X172067418Y-28690500D01*
X182387374Y-28690500D01*
X182454413Y-28710185D01*
X182500168Y-28762989D01*
X182510313Y-28798315D01*
X182536017Y-28993561D01*
X182600498Y-29234207D01*
X182695830Y-29464361D01*
X182695837Y-29464376D01*
X182820400Y-29680126D01*
X182972060Y-29877774D01*
X182972066Y-29877781D01*
X183148218Y-30053933D01*
X183148225Y-30053939D01*
X183345873Y-30205599D01*
X183561623Y-30330162D01*
X183561638Y-30330169D01*
X183660825Y-30371253D01*
X183791793Y-30425502D01*
X184032435Y-30489982D01*
X184279435Y-30522500D01*
X184279442Y-30522500D01*
X184528558Y-30522500D01*
X184528565Y-30522500D01*
X184775565Y-30489982D01*
X185016207Y-30425502D01*
X185246373Y-30330164D01*
X185462127Y-30205599D01*
X185659776Y-30053938D01*
X185835938Y-29877776D01*
X185987599Y-29680127D01*
X186112164Y-29464373D01*
X186207502Y-29234207D01*
X186271982Y-28993565D01*
X186304500Y-28746565D01*
X186304500Y-28497435D01*
X186271982Y-28250435D01*
X186207502Y-28009793D01*
X186113528Y-27782919D01*
X186112169Y-27779638D01*
X186112162Y-27779623D01*
X185987599Y-27563873D01*
X185835939Y-27366225D01*
X185835933Y-27366218D01*
X185659781Y-27190066D01*
X185659774Y-27190060D01*
X185462126Y-27038400D01*
X185246376Y-26913837D01*
X185246361Y-26913830D01*
X185016207Y-26818498D01*
X184775561Y-26754017D01*
X184528575Y-26721501D01*
X184528570Y-26721500D01*
X184528565Y-26721500D01*
X184279435Y-26721500D01*
X184279429Y-26721500D01*
X184279424Y-26721501D01*
X184032438Y-26754017D01*
X183791792Y-26818498D01*
X183561638Y-26913830D01*
X183561623Y-26913837D01*
X183345873Y-27038400D01*
X183182350Y-27163876D01*
X183117181Y-27189070D01*
X183106864Y-27189500D01*
X172067418Y-27189500D01*
X172000379Y-27169815D01*
X171967100Y-27138385D01*
X171933971Y-27092787D01*
X171933967Y-27092782D01*
X171789213Y-26948028D01*
X171623614Y-26827715D01*
X171617006Y-26824348D01*
X171530917Y-26780483D01*
X171480123Y-26732511D01*
X171463328Y-26664690D01*
X171485865Y-26598555D01*
X171530917Y-26559516D01*
X171623610Y-26512287D01*
X171752482Y-26418657D01*
X171789213Y-26391971D01*
X171789215Y-26391968D01*
X171789219Y-26391966D01*
X171933966Y-26247219D01*
X171954196Y-26219375D01*
X171967100Y-26201615D01*
X172022429Y-26158949D01*
X172067418Y-26150500D01*
X174063920Y-26150500D01*
X174161462Y-26131096D01*
X174208913Y-26121658D01*
X174345495Y-26065084D01*
X174394729Y-26032186D01*
X174468416Y-25982952D01*
X174826951Y-25624416D01*
X174909084Y-25501495D01*
X174911243Y-25496284D01*
X174947357Y-25409096D01*
X174965658Y-25364913D01*
X174992252Y-25231219D01*
X174994500Y-25219920D01*
X174994500Y-19992079D01*
X174965659Y-19847092D01*
X174965658Y-19847091D01*
X174965658Y-19847087D01*
X174965656Y-19847082D01*
X174909087Y-19710511D01*
X174909080Y-19710498D01*
X174826951Y-19587584D01*
X174826948Y-19587580D01*
X174722419Y-19483051D01*
X174722415Y-19483048D01*
X174599501Y-19400919D01*
X174599488Y-19400912D01*
X174462917Y-19344343D01*
X174462907Y-19344340D01*
X174317920Y-19315500D01*
X174317918Y-19315500D01*
X150441918Y-19315500D01*
X133784082Y-19315500D01*
X133784080Y-19315500D01*
X133639092Y-19344340D01*
X133639082Y-19344343D01*
X133502511Y-19400912D01*
X133502498Y-19400919D01*
X133379584Y-19483048D01*
X133379580Y-19483051D01*
X130735050Y-22127580D01*
X130735044Y-22127588D01*
X130685812Y-22201268D01*
X130685813Y-22201269D01*
X130652921Y-22250496D01*
X130652914Y-22250508D01*
X130596342Y-22387086D01*
X130596340Y-22387092D01*
X130567500Y-22532079D01*
X130567500Y-40317500D01*
X130547815Y-40384539D01*
X130495011Y-40430294D01*
X130443500Y-40441500D01*
X122954573Y-40441500D01*
X122887534Y-40421815D01*
X122841779Y-40369011D01*
X122840011Y-40364950D01*
X122836476Y-40356415D01*
X122833664Y-40349627D01*
X122766615Y-40233495D01*
X122709099Y-40133873D01*
X122557439Y-39936225D01*
X122557433Y-39936218D01*
X122381281Y-39760066D01*
X122381274Y-39760060D01*
X122183626Y-39608400D01*
X121967876Y-39483837D01*
X121967861Y-39483830D01*
X121737707Y-39388498D01*
X121497061Y-39324017D01*
X121250075Y-39291501D01*
X121250070Y-39291500D01*
X121250065Y-39291500D01*
X121000935Y-39291500D01*
X121000929Y-39291500D01*
X121000924Y-39291501D01*
X120753938Y-39324017D01*
X120513292Y-39388498D01*
X120283138Y-39483830D01*
X120283123Y-39483837D01*
X120067373Y-39608400D01*
X119869725Y-39760060D01*
X119869718Y-39760066D01*
X119693566Y-39936218D01*
X119693560Y-39936225D01*
X119541900Y-40133873D01*
X119417337Y-40349623D01*
X119417330Y-40349638D01*
X119321998Y-40579792D01*
X119257517Y-40820438D01*
X119225001Y-41067424D01*
X119225000Y-41067441D01*
X113276500Y-41067441D01*
X113276500Y-18181713D01*
X114981500Y-18181713D01*
X114981500Y-18394286D01*
X115006544Y-18552412D01*
X115014754Y-18604243D01*
X115059454Y-18741816D01*
X115080444Y-18806414D01*
X115176951Y-18995820D01*
X115301890Y-19167786D01*
X115452213Y-19318109D01*
X115624179Y-19443048D01*
X115624181Y-19443049D01*
X115624184Y-19443051D01*
X115813588Y-19539557D01*
X116015757Y-19605246D01*
X116225713Y-19638500D01*
X116225714Y-19638500D01*
X116438286Y-19638500D01*
X116438287Y-19638500D01*
X116648243Y-19605246D01*
X116850412Y-19539557D01*
X117039816Y-19443051D01*
X117166176Y-19351246D01*
X117211786Y-19318109D01*
X117211788Y-19318106D01*
X117211792Y-19318104D01*
X117362104Y-19167792D01*
X117362106Y-19167788D01*
X117362109Y-19167786D01*
X117487048Y-18995820D01*
X117487047Y-18995820D01*
X117487051Y-18995816D01*
X117583557Y-18806412D01*
X117649246Y-18604243D01*
X117682500Y-18394287D01*
X117682500Y-18181713D01*
X117649246Y-17971757D01*
X117634935Y-17927713D01*
X193467500Y-17927713D01*
X193467500Y-18140286D01*
X193500753Y-18350239D01*
X193566444Y-18552414D01*
X193662951Y-18741820D01*
X193787890Y-18913786D01*
X193938213Y-19064109D01*
X194110179Y-19189048D01*
X194110181Y-19189049D01*
X194110184Y-19189051D01*
X194299588Y-19285557D01*
X194501757Y-19351246D01*
X194711713Y-19384500D01*
X194711714Y-19384500D01*
X194924286Y-19384500D01*
X194924287Y-19384500D01*
X195134243Y-19351246D01*
X195336412Y-19285557D01*
X195525816Y-19189051D01*
X195555085Y-19167786D01*
X195697786Y-19064109D01*
X195697788Y-19064106D01*
X195697792Y-19064104D01*
X195848104Y-18913792D01*
X195848106Y-18913788D01*
X195848109Y-18913786D01*
X195973048Y-18741820D01*
X195973047Y-18741820D01*
X195973051Y-18741816D01*
X196069557Y-18552412D01*
X196135246Y-18350243D01*
X196168500Y-18140287D01*
X196168500Y-17927713D01*
X196135246Y-17717757D01*
X196069557Y-17515588D01*
X195973051Y-17326184D01*
X195973049Y-17326181D01*
X195973048Y-17326179D01*
X195848109Y-17154213D01*
X195697786Y-17003890D01*
X195525820Y-16878951D01*
X195336414Y-16782444D01*
X195336413Y-16782443D01*
X195336412Y-16782443D01*
X195134243Y-16716754D01*
X195134241Y-16716753D01*
X195134240Y-16716753D01*
X194972957Y-16691208D01*
X194924287Y-16683500D01*
X194711713Y-16683500D01*
X194663042Y-16691208D01*
X194501760Y-16716753D01*
X194299585Y-16782444D01*
X194110179Y-16878951D01*
X193938213Y-17003890D01*
X193787890Y-17154213D01*
X193662951Y-17326179D01*
X193566444Y-17515585D01*
X193500753Y-17717760D01*
X193467500Y-17927713D01*
X117634935Y-17927713D01*
X117583557Y-17769588D01*
X117487051Y-17580184D01*
X117487049Y-17580181D01*
X117487048Y-17580179D01*
X117362109Y-17408213D01*
X117211786Y-17257890D01*
X117039820Y-17132951D01*
X116850414Y-17036444D01*
X116850413Y-17036443D01*
X116850412Y-17036443D01*
X116648243Y-16970754D01*
X116648241Y-16970753D01*
X116648240Y-16970753D01*
X116486957Y-16945208D01*
X116438287Y-16937500D01*
X116225713Y-16937500D01*
X116177042Y-16945208D01*
X116015760Y-16970753D01*
X115813585Y-17036444D01*
X115624179Y-17132951D01*
X115452213Y-17257890D01*
X115301890Y-17408213D01*
X115176951Y-17580179D01*
X115080444Y-17769585D01*
X115014753Y-17971760D01*
X114981500Y-18181713D01*
X113276500Y-18181713D01*
X113276500Y-15356500D01*
X113296185Y-15289461D01*
X113348989Y-15243706D01*
X113400500Y-15232500D01*
X199273500Y-15232500D01*
X199340539Y-15252185D01*
G37*
%TD.AperFunction*%
%TD*%
M02*
