M48
; DRILL file {KiCad 9.0.5} date 2026-02-21T14:18:21+0530
; FORMAT={-:-/ absolute / metric / decimal}
; #@! TF.CreationDate,2026-02-21T14:18:21+05:30
; #@! TF.GenerationSoftware,Kicad,Pcbnew,9.0.5
; #@! TF.FileFunction,Plated,1,2,PTH
FMAT,2
METRIC
; #@! TA.AperFunction,Plated,PTH,ViaDrill
T1C0.500
; #@! TA.AperFunction,Plated,PTH,ComponentDrill
T2C0.800
; #@! TA.AperFunction,Plated,PTH,ComponentDrill
T3C1.000
; #@! TA.AperFunction,Plated,PTH,ComponentDrill
T4C1.200
; #@! TA.AperFunction,Plated,PTH,ComponentDrill
T5C1.300
%
G90
G05
T1
X176.53Y-51.562
T2
X135.128Y-24.384
X135.128Y-29.972
X135.382Y-41.402
X135.636Y-35.306
X135.636Y-46.99
X135.636Y-53.086
X135.636Y-58.928
X150.368Y-24.384
X150.368Y-29.972
X150.622Y-41.402
X150.876Y-35.306
X150.876Y-46.99
X150.876Y-53.086
X150.876Y-58.928
X163.322Y-25.4
X163.322Y-27.94
X163.322Y-30.48
X163.322Y-33.02
X164.084Y-51.562
X164.084Y-54.102
X164.084Y-56.642
X164.084Y-59.182
X170.942Y-25.4
X170.942Y-27.94
X170.942Y-30.48
X170.942Y-33.02
X171.704Y-51.562
X171.704Y-54.102
X171.704Y-56.642
X171.704Y-59.182
T3
X161.33Y-39.624
X161.33Y-44.45
X166.33Y-39.624
X166.33Y-44.45
X172.974Y-39.664
X172.974Y-44.664
T4
X186.092Y-47.07
X186.092Y-52.07
X186.092Y-57.07
X191.092Y-47.07
X191.092Y-52.07
X191.092Y-57.07
T5
X121.125Y-41.192
X121.125Y-46.192
X184.404Y-23.622
X184.404Y-28.622
X184.404Y-33.622
X184.404Y-38.622
M30
